<svg width="396" height="314" viewBox="0 0 396 314" fill="none" xmlns="http://www.w3.org/2000/svg">
<g filter="url(#filter0_d)">
<rect x="10" y="10" width="376" height="294" rx="20" fill="#F8F8F8"/>
<rect x="10.25" y="10.25" width="375.5" height="293.5" rx="19.75" stroke="#E0E0E0" stroke-width="0.5"/>
</g>
<path d="M11.1821 30.0929C11.1821 19.0472 20.1364 10.0929 31.1821 10.0929H366C377.045 10.0929 386 19.0472 386 30.0929V103.579H11.1821V30.0929Z" fill="url(#paint0_linear)"/>
<path d="M51.2069 78.5927C48.8489 78.5927 47.0489 77.7557 45.8069 76.0817C44.5649 74.4077 43.9439 71.9867 43.9439 68.8187C43.9439 65.6687 44.5649 63.2567 45.8069 61.5827C47.0489 59.9087 48.8489 59.0717 51.2069 59.0717C53.5469 59.0717 55.3379 59.9087 56.5799 61.5827C57.8399 63.2567 58.4699 65.6687 58.4699 68.8187C58.4699 71.9867 57.8489 74.4077 56.6069 76.0817C55.3649 77.7557 53.5649 78.5927 51.2069 78.5927ZM51.2069 74.8397C52.0709 74.8397 52.6919 74.3717 53.0699 73.4357C53.4479 72.4997 53.6369 70.9607 53.6369 68.8187C53.6369 66.6947 53.4479 65.1647 53.0699 64.2287C52.6919 63.2927 52.0709 62.8247 51.2069 62.8247C50.3429 62.8247 49.7219 63.2927 49.3439 64.2287C48.9659 65.1467 48.7769 66.6767 48.7769 68.8187C48.7769 70.9607 48.9659 72.4997 49.3439 73.4357C49.7219 74.3717 50.3429 74.8397 51.2069 74.8397ZM69.0164 65.8217C70.0964 65.8217 71.0684 66.0917 71.9324 66.6317C72.7964 67.1537 73.4714 67.8917 73.9574 68.8457C74.4614 69.7817 74.7134 70.8437 74.7134 72.0317C74.7134 73.2917 74.4254 74.4257 73.8494 75.4337C73.2914 76.4237 72.5084 77.1977 71.5004 77.7557C70.4924 78.3137 69.3494 78.5927 68.0714 78.5927C65.5334 78.5927 63.5714 77.7647 62.1854 76.1087C60.7994 74.4527 60.1064 72.0947 60.1064 69.0347C60.1064 67.0187 60.4304 65.2637 61.0784 63.7697C61.7444 62.2577 62.6714 61.0967 63.8594 60.2867C65.0654 59.4767 66.4694 59.0717 68.0714 59.0717C69.0794 59.0717 70.1054 59.2337 71.1494 59.5577C72.2114 59.8817 73.1204 60.3317 73.8764 60.9077C74.1824 61.1417 74.3984 61.3847 74.5244 61.6367C74.6684 61.8887 74.7404 62.2037 74.7404 62.5817C74.7404 63.1397 74.5784 63.6167 74.2544 64.0127C73.9484 64.3907 73.5704 64.5797 73.1204 64.5797C72.8684 64.5797 72.6434 64.5437 72.4454 64.4717C72.2474 64.3817 71.9774 64.2467 71.6354 64.0667L71.0414 63.7697C70.4474 63.4817 69.9524 63.2657 69.5564 63.1217C69.1604 62.9777 68.7464 62.9057 68.3144 62.9057C67.3964 62.9057 66.6494 63.3287 66.0734 64.1747C65.5154 65.0027 65.1824 66.1727 65.0744 67.6847C65.4884 67.1087 66.0374 66.6587 66.7214 66.3347C67.4234 65.9927 68.1884 65.8217 69.0164 65.8217ZM67.7744 74.7857C68.4764 74.7857 69.0344 74.5517 69.4484 74.0837C69.8624 73.6157 70.0694 72.9947 70.0694 72.2207C70.0694 71.4287 69.8624 70.8077 69.4484 70.3577C69.0524 69.8897 68.4944 69.6557 67.7744 69.6557C67.0724 69.6557 66.5054 69.8897 66.0734 70.3577C65.6594 70.8257 65.4524 71.4467 65.4524 72.2207C65.4524 72.9767 65.6684 73.5977 66.1004 74.0837C66.5324 74.5517 67.0904 74.7857 67.7744 74.7857ZM96.2254 59.1797C96.9454 59.1797 97.5304 59.3867 97.9804 59.8007C98.4484 60.1967 98.6824 60.7097 98.6824 61.3397V76.2977C98.6824 76.9817 98.4664 77.5217 98.0344 77.9177C97.6024 78.3137 97.0264 78.5117 96.3064 78.5117C95.6404 78.5117 95.0914 78.3407 94.6594 77.9987C94.2454 77.6387 94.0114 77.1527 93.9574 76.5407C93.5794 77.1707 93.0214 77.6657 92.2834 78.0257C91.5634 78.3857 90.7624 78.5657 89.8804 78.5657C88.7464 78.5657 87.7294 78.2777 86.8294 77.7017C85.9474 77.1077 85.2544 76.2797 84.7504 75.2177C84.2464 74.1557 83.9944 72.9407 83.9944 71.5727C83.9944 70.2047 84.2374 69.0077 84.7234 67.9817C85.2274 66.9377 85.9204 66.1367 86.8024 65.5787C87.7024 65.0207 88.7284 64.7417 89.8804 64.7417C90.7264 64.7417 91.5004 64.9127 92.2024 65.2547C92.9224 65.5967 93.4804 66.0557 93.8764 66.6317V61.2587C93.8764 60.6287 94.0834 60.1247 94.4974 59.7467C94.9294 59.3687 95.5054 59.1797 96.2254 59.1797ZM91.3384 74.9747C92.1844 74.9747 92.8324 74.6867 93.2824 74.1107C93.7324 73.5347 93.9574 72.7067 93.9574 71.6267C93.9574 70.5647 93.7324 69.7547 93.2824 69.1967C92.8324 68.6207 92.1844 68.3327 91.3384 68.3327C90.5104 68.3327 89.8714 68.6117 89.4214 69.1697C88.9714 69.7277 88.7464 70.5287 88.7464 71.5727C88.7464 72.6527 88.9714 73.4897 89.4214 74.0837C89.8894 74.6777 90.5284 74.9747 91.3384 74.9747ZM112.29 74.0837C112.704 74.0837 113.037 74.2457 113.289 74.5697C113.559 74.8937 113.694 75.3167 113.694 75.8387C113.694 76.5587 113.343 77.1077 112.641 77.4857C112.029 77.7917 111.3 78.0527 110.454 78.2687C109.626 78.4667 108.861 78.5657 108.159 78.5657C106.683 78.5657 105.396 78.2867 104.298 77.7287C103.2 77.1707 102.354 76.3697 101.76 75.3257C101.166 74.2817 100.869 73.0577 100.869 71.6537C100.869 70.3217 101.148 69.1337 101.706 68.0897C102.282 67.0277 103.074 66.2087 104.082 65.6327C105.108 65.0387 106.26 64.7417 107.538 64.7417C108.78 64.7417 109.869 65.0117 110.805 65.5517C111.741 66.0917 112.461 66.8567 112.965 67.8467C113.487 68.8367 113.748 69.9977 113.748 71.3297C113.748 71.7437 113.649 72.0677 113.451 72.3017C113.271 72.5177 113.001 72.6257 112.641 72.6257H105.513C105.639 73.4897 105.918 74.1107 106.35 74.4887C106.782 74.8667 107.421 75.0557 108.267 75.0557C108.717 75.0557 109.131 75.0107 109.509 74.9207C109.887 74.8127 110.31 74.6687 110.778 74.4887C111.048 74.3807 111.309 74.2907 111.561 74.2187C111.831 74.1287 112.074 74.0837 112.29 74.0837ZM107.673 67.9817C107.043 67.9817 106.539 68.1887 106.161 68.6027C105.783 68.9987 105.558 69.5837 105.486 70.3577H109.725C109.617 68.7737 108.933 67.9817 107.673 67.9817ZM140.891 59.1797C141.575 59.1797 142.133 59.4047 142.565 59.8547C142.997 60.3047 143.213 60.8897 143.213 61.6097V76.2977C143.213 76.9817 143.015 77.5217 142.619 77.9177C142.223 78.3137 141.701 78.5117 141.053 78.5117C140.423 78.5117 139.901 78.3137 139.487 77.9177C139.091 77.5217 138.893 76.9817 138.893 76.2977V68.3597L135.815 74.0297C135.509 74.6057 135.185 75.0197 134.843 75.2717C134.501 75.5057 134.096 75.6227 133.628 75.6227C133.16 75.6227 132.755 75.5057 132.413 75.2717C132.071 75.0197 131.747 74.6057 131.441 74.0297L128.39 68.5217V76.2977C128.39 76.9637 128.183 77.5037 127.769 77.9177C127.373 78.3137 126.851 78.5117 126.203 78.5117C125.573 78.5117 125.051 78.3137 124.637 77.9177C124.241 77.5217 124.043 76.9817 124.043 76.2977V61.6097C124.043 60.8897 124.259 60.3047 124.691 59.8547C125.141 59.4047 125.708 59.1797 126.392 59.1797C126.878 59.1797 127.319 59.3237 127.715 59.6117C128.111 59.8817 128.444 60.2777 128.714 60.7997L133.682 70.1417L138.623 60.7997C139.181 59.7197 139.937 59.1797 140.891 59.1797ZM152.577 64.7417C154.629 64.7417 156.141 65.2367 157.113 66.2267C158.103 67.1987 158.598 68.6837 158.598 70.6817V76.3247C158.598 77.0087 158.391 77.5487 157.977 77.9447C157.581 78.3227 157.023 78.5117 156.303 78.5117C155.673 78.5117 155.151 78.3317 154.737 77.9717C154.341 77.6117 154.125 77.1257 154.089 76.5137C153.837 77.1617 153.414 77.6657 152.82 78.0257C152.226 78.3857 151.515 78.5657 150.687 78.5657C149.769 78.5657 148.941 78.3857 148.203 78.0257C147.465 77.6477 146.88 77.1347 146.448 76.4867C146.034 75.8207 145.827 75.0737 145.827 74.2457C145.827 73.2917 146.07 72.5357 146.556 71.9777C147.06 71.4017 147.852 70.9877 148.932 70.7357C150.012 70.4837 151.47 70.3577 153.306 70.3577H154.035V70.0337C154.035 69.4037 153.891 68.9537 153.603 68.6837C153.315 68.3957 152.829 68.2517 152.145 68.2517C151.407 68.2517 150.327 68.5037 148.905 69.0077C148.491 69.1517 148.14 69.2237 147.852 69.2237C147.402 69.2237 147.042 69.0617 146.772 68.7377C146.502 68.4137 146.367 67.9907 146.367 67.4687C146.367 67.0727 146.448 66.7487 146.61 66.4967C146.772 66.2447 147.033 66.0197 147.393 65.8217C148.023 65.4977 148.815 65.2367 149.769 65.0387C150.723 64.8407 151.659 64.7417 152.577 64.7417ZM151.821 75.3527C152.469 75.3527 153 75.1277 153.414 74.6777C153.828 74.2097 154.035 73.6157 154.035 72.8957V72.5717H153.603C152.451 72.5717 151.632 72.6797 151.146 72.8957C150.66 73.0937 150.417 73.4357 150.417 73.9217C150.417 74.3357 150.543 74.6777 150.795 74.9477C151.065 75.2177 151.407 75.3527 151.821 75.3527ZM169.715 64.7957C170.327 64.7417 170.813 64.8857 171.173 65.2277C171.533 65.5517 171.713 66.0377 171.713 66.6857C171.713 67.4057 171.542 67.9277 171.2 68.2517C170.876 68.5757 170.282 68.7827 169.418 68.8727L168.608 68.9537C167.708 69.0617 167.06 69.3497 166.664 69.8177C166.286 70.2677 166.097 70.8887 166.097 71.6807V76.2977C166.097 77.0357 165.863 77.5937 165.395 77.9717C164.945 78.3317 164.378 78.5117 163.694 78.5117C163.01 78.5117 162.434 78.3317 161.966 77.9717C161.516 77.5937 161.291 77.0357 161.291 76.2977V66.9557C161.291 66.2717 161.516 65.7407 161.966 65.3627C162.434 64.9847 162.992 64.7957 163.64 64.7957C164.306 64.7957 164.837 64.9757 165.233 65.3357C165.647 65.6957 165.854 66.1997 165.854 66.8477V67.3607C166.142 66.5687 166.61 65.9567 167.258 65.5247C167.924 65.0927 168.617 64.8587 169.337 64.8227L169.715 64.7957ZM182.68 73.9757C183.094 73.9757 183.427 74.1557 183.679 74.5157C183.949 74.8577 184.084 75.3077 184.084 75.8657C184.084 76.2077 184.012 76.5227 183.868 76.8107C183.724 77.0807 183.526 77.2877 183.274 77.4317C182.284 78.0257 181.078 78.3947 179.656 78.5387L179.494 79.4567C179.638 79.4387 179.827 79.4297 180.061 79.4297C180.619 79.4297 181.087 79.6007 181.465 79.9427C181.861 80.2847 182.059 80.7347 182.059 81.2927C182.059 82.0127 181.726 82.5887 181.06 83.0207C180.412 83.4707 179.476 83.6957 178.252 83.6957C177.442 83.6957 176.794 83.6147 176.308 83.4527C175.912 83.3267 175.714 83.0387 175.714 82.5887C175.714 82.3187 175.795 82.0757 175.957 81.8597C176.137 81.6617 176.344 81.5987 176.578 81.6707C177.298 81.8147 177.802 81.8867 178.09 81.8867C178.846 81.8867 179.224 81.6887 179.224 81.2927C179.224 80.9867 179.026 80.8337 178.63 80.8337C178.486 80.8337 178.297 80.8517 178.063 80.8877C177.829 80.9417 177.649 80.9687 177.523 80.9687C177.343 80.9687 177.199 80.9147 177.091 80.8067C176.983 80.7167 176.947 80.5817 176.983 80.4017L177.226 78.4577C175.498 78.1697 174.148 77.4407 173.176 76.2707C172.204 75.0827 171.718 73.5707 171.718 71.7347C171.718 70.3487 172.024 69.1247 172.636 68.0627C173.248 67.0007 174.103 66.1817 175.201 65.6057C176.317 65.0297 177.586 64.7417 179.008 64.7417C179.764 64.7417 180.52 64.8407 181.276 65.0387C182.032 65.2367 182.698 65.5157 183.274 65.8757C183.832 66.2177 184.111 66.7397 184.111 67.4417C184.111 67.9997 183.976 68.4587 183.706 68.8187C183.454 69.1607 183.121 69.3317 182.707 69.3317C182.437 69.3317 182.176 69.2957 181.924 69.2237C181.672 69.1337 181.393 69.0077 181.087 68.8457C180.727 68.6837 180.421 68.5667 180.169 68.4947C179.917 68.4047 179.638 68.3597 179.332 68.3597C177.55 68.3597 176.659 69.4487 176.659 71.6267C176.659 72.7067 176.884 73.5347 177.334 74.1107C177.802 74.6687 178.468 74.9477 179.332 74.9477C179.638 74.9477 179.917 74.9117 180.169 74.8397C180.439 74.7497 180.736 74.6237 181.06 74.4617C181.42 74.2997 181.708 74.1827 181.924 74.1107C182.158 74.0207 182.41 73.9757 182.68 73.9757ZM192.535 78.5657C191.077 78.5657 189.79 78.2867 188.674 77.7287C187.576 77.1527 186.721 76.3427 186.109 75.2987C185.515 74.2547 185.218 73.0307 185.218 71.6267C185.218 70.2227 185.515 69.0077 186.109 67.9817C186.721 66.9377 187.576 66.1367 188.674 65.5787C189.772 65.0207 191.059 64.7417 192.535 64.7417C194.011 64.7417 195.298 65.0207 196.396 65.5787C197.494 66.1367 198.34 66.9377 198.934 67.9817C199.546 69.0077 199.852 70.2227 199.852 71.6267C199.852 73.0307 199.546 74.2547 198.934 75.2987C198.34 76.3427 197.494 77.1527 196.396 77.7287C195.298 78.2867 194.011 78.5657 192.535 78.5657ZM192.535 74.9747C194.245 74.9747 195.1 73.8587 195.1 71.6267C195.1 69.3947 194.245 68.2787 192.535 68.2787C190.825 68.2787 189.97 69.3947 189.97 71.6267C189.97 73.8587 190.825 74.9747 192.535 74.9747Z" fill="white"/>
<path d="M53.5169 43.8524C53.5569 43.9324 53.5769 44.0174 53.5769 44.1074C53.5769 44.2574 53.5169 44.3824 53.3969 44.4824C53.2869 44.5824 53.1519 44.6324 52.9919 44.6324C52.7419 44.6324 52.5669 44.5124 52.4669 44.2724L51.4019 41.8424H45.7469L44.6669 44.2724C44.5669 44.5124 44.3919 44.6324 44.1419 44.6324C43.9819 44.6324 43.8419 44.5824 43.7219 44.4824C43.6019 44.3724 43.5419 44.2424 43.5419 44.0924C43.5419 44.0124 43.5619 43.9324 43.6019 43.8524L47.8919 34.3124C47.9519 34.1724 48.0419 34.0674 48.1619 33.9974C48.2819 33.9274 48.4119 33.8924 48.5519 33.8924C48.7019 33.8924 48.8369 33.9324 48.9569 34.0124C49.0769 34.0824 49.1669 34.1824 49.2269 34.3124L53.5169 43.8524ZM50.9519 40.8224L48.5669 35.4374L46.1969 40.8224H50.9519ZM58.3442 43.6724C58.6942 43.7024 58.8692 43.8624 58.8692 44.1524C58.8692 44.3224 58.8042 44.4524 58.6742 44.5424C58.5542 44.6224 58.3692 44.6524 58.1192 44.6324L57.7142 44.6024C56.9142 44.5424 56.3242 44.3024 55.9442 43.8824C55.5642 43.4624 55.3742 42.8274 55.3742 41.9774V38.2124H54.3692C54.1992 38.2124 54.0642 38.1724 53.9642 38.0924C53.8742 38.0024 53.8292 37.8874 53.8292 37.7474C53.8292 37.5974 53.8742 37.4774 53.9642 37.3874C54.0642 37.2974 54.1992 37.2524 54.3692 37.2524H55.3742V35.5574C55.3742 35.3674 55.4292 35.2224 55.5392 35.1224C55.6492 35.0124 55.7992 34.9574 55.9892 34.9574C56.1692 34.9574 56.3142 35.0124 56.4242 35.1224C56.5342 35.2224 56.5892 35.3674 56.5892 35.5574V37.2524H58.2542C58.4142 37.2524 58.5392 37.2974 58.6292 37.3874C58.7292 37.4774 58.7792 37.5974 58.7792 37.7474C58.7792 37.8874 58.7292 38.0024 58.6292 38.0924C58.5392 38.1724 58.4142 38.2124 58.2542 38.2124H56.5892V42.0374C56.5892 42.5874 56.6992 42.9874 56.9192 43.2374C57.1492 43.4774 57.4892 43.6124 57.9392 43.6424L58.3442 43.6724ZM65.7219 42.8624C65.8319 42.8624 65.9269 42.9074 66.0069 42.9974C66.0869 43.0874 66.1269 43.2024 66.1269 43.3424C66.1269 43.5924 65.9519 43.8224 65.6019 44.0324C65.2419 44.2424 64.8619 44.4024 64.4619 44.5124C64.0619 44.6124 63.6719 44.6624 63.2919 44.6624C62.1619 44.6624 61.2669 44.3274 60.6069 43.6574C59.9569 42.9874 59.6319 42.0624 59.6319 40.8824C59.6319 40.1324 59.7769 39.4724 60.0669 38.9024C60.3569 38.3224 60.7619 37.8724 61.2819 37.5524C61.8119 37.2324 62.4119 37.0724 63.0819 37.0724C64.0319 37.0724 64.7869 37.3824 65.3469 38.0024C65.9069 38.6224 66.1869 39.4624 66.1869 40.5224C66.1869 40.7224 66.1469 40.8674 66.0669 40.9574C65.9869 41.0474 65.8569 41.0924 65.6769 41.0924H60.8469C60.9369 42.8124 61.7519 43.6724 63.2919 43.6724C63.6819 43.6724 64.0169 43.6224 64.2969 43.5224C64.5769 43.4124 64.8769 43.2674 65.1969 43.0874C65.4569 42.9374 65.6319 42.8624 65.7219 42.8624ZM63.0969 38.0174C62.4569 38.0174 61.9419 38.2174 61.5519 38.6174C61.1719 39.0174 60.9469 39.5824 60.8769 40.3124H65.1219C65.1019 39.5724 64.9169 39.0074 64.5669 38.6174C64.2169 38.2174 63.7269 38.0174 63.0969 38.0174ZM71.6521 37.0724C73.4021 37.0724 74.2771 38.0374 74.2771 39.9674V44.0324C74.2771 44.2224 74.2221 44.3724 74.1121 44.4824C74.0121 44.5824 73.8671 44.6324 73.6771 44.6324C73.4871 44.6324 73.3371 44.5824 73.2271 44.4824C73.1171 44.3724 73.0621 44.2224 73.0621 44.0324V40.0424C73.0621 39.3624 72.9271 38.8674 72.6571 38.5574C72.3971 38.2474 71.9771 38.0924 71.3971 38.0924C70.7271 38.0924 70.1921 38.2974 69.7921 38.7074C69.3921 39.1174 69.1921 39.6724 69.1921 40.3724V44.0324C69.1921 44.2224 69.1371 44.3724 69.0271 44.4824C68.9271 44.5824 68.7821 44.6324 68.5921 44.6324C68.4021 44.6324 68.2521 44.5824 68.1421 44.4824C68.0321 44.3724 67.9771 44.2224 67.9771 44.0324V37.7024C67.9771 37.5224 68.0321 37.3774 68.1421 37.2674C68.2521 37.1574 68.4021 37.1024 68.5921 37.1024C68.7721 37.1024 68.9121 37.1574 69.0121 37.2674C69.1221 37.3774 69.1771 37.5174 69.1771 37.6874V38.4524C69.4171 38.0024 69.7521 37.6624 70.1821 37.4324C70.6121 37.1924 71.1021 37.0724 71.6521 37.0724ZM82.3674 33.9074C82.5574 33.9074 82.7074 33.9624 82.8174 34.0724C82.9274 34.1824 82.9824 34.3224 82.9824 34.4924V44.0324C82.9824 44.2124 82.9274 44.3574 82.8174 44.4674C82.7074 44.5774 82.5574 44.6324 82.3674 44.6324C82.1774 44.6324 82.0274 44.5774 81.9174 44.4674C81.8174 44.3574 81.7674 44.2124 81.7674 44.0324V43.2224C81.5474 43.6824 81.2224 44.0374 80.7924 44.2874C80.3724 44.5374 79.8774 44.6624 79.3074 44.6624C78.6674 44.6624 78.1024 44.5024 77.6124 44.1824C77.1224 43.8624 76.7424 43.4174 76.4724 42.8474C76.2024 42.2674 76.0674 41.5974 76.0674 40.8374C76.0674 40.0874 76.2024 39.4274 76.4724 38.8574C76.7424 38.2874 77.1224 37.8474 77.6124 37.5374C78.1024 37.2274 78.6674 37.0724 79.3074 37.0724C79.8774 37.0724 80.3724 37.1974 80.7924 37.4474C81.2224 37.6974 81.5474 38.0524 81.7674 38.5124V34.4924C81.7674 34.3124 81.8174 34.1724 81.9174 34.0724C82.0274 33.9624 82.1774 33.9074 82.3674 33.9074ZM79.5474 43.6574C80.2574 43.6574 80.8024 43.4174 81.1824 42.9374C81.5724 42.4474 81.7674 41.7574 81.7674 40.8674C81.7674 39.9774 81.5724 39.2924 81.1824 38.8124C80.8024 38.3324 80.2574 38.0924 79.5474 38.0924C78.8374 38.0924 78.2824 38.3324 77.8824 38.8124C77.4924 39.2924 77.2974 39.9674 77.2974 40.8374C77.2974 41.7274 77.4924 42.4224 77.8824 42.9224C78.2824 43.4124 78.8374 43.6574 79.5474 43.6574ZM85.8479 44.6324C85.6679 44.6324 85.5179 44.5824 85.3979 44.4824C85.2879 44.3724 85.2329 44.2224 85.2329 44.0324V37.7024C85.2329 37.5124 85.2879 37.3674 85.3979 37.2674C85.5179 37.1574 85.6679 37.1024 85.8479 37.1024C86.0279 37.1024 86.1729 37.1574 86.2829 37.2674C86.3929 37.3674 86.4479 37.5124 86.4479 37.7024V44.0324C86.4479 44.2324 86.3929 44.3824 86.2829 44.4824C86.1729 44.5824 86.0279 44.6324 85.8479 44.6324ZM85.8479 35.5274C85.6079 35.5274 85.4129 35.4574 85.2629 35.3174C85.1129 35.1774 85.0379 34.9924 85.0379 34.7624C85.0379 34.5424 85.1129 34.3624 85.2629 34.2224C85.4129 34.0824 85.6079 34.0124 85.8479 34.0124C86.0879 34.0124 86.2829 34.0824 86.4329 34.2224C86.5829 34.3624 86.6579 34.5424 86.6579 34.7624C86.6579 34.9924 86.5829 35.1774 86.4329 35.3174C86.2829 35.4574 86.0879 35.5274 85.8479 35.5274ZM96.8492 37.0724C98.4692 37.0724 99.2792 38.0374 99.2792 39.9674V44.0324C99.2792 44.2224 99.2242 44.3724 99.1142 44.4824C99.0042 44.5824 98.8592 44.6324 98.6792 44.6324C98.4992 44.6324 98.3492 44.5824 98.2292 44.4824C98.1192 44.3724 98.0642 44.2224 98.0642 44.0324V39.9974C98.0642 39.3274 97.9442 38.8424 97.7042 38.5424C97.4642 38.2424 97.0892 38.0924 96.5792 38.0924C95.9692 38.0924 95.4892 38.2974 95.1392 38.7074C94.7892 39.1174 94.6142 39.6724 94.6142 40.3724V44.0324C94.6142 44.2224 94.5542 44.3724 94.4342 44.4824C94.3242 44.5824 94.1792 44.6324 93.9992 44.6324C93.8192 44.6324 93.6742 44.5824 93.5642 44.4824C93.4542 44.3724 93.3992 44.2224 93.3992 44.0324V39.9974C93.3992 39.3274 93.2792 38.8424 93.0392 38.5424C92.7992 38.2424 92.4192 38.0924 91.8992 38.0924C91.2992 38.0924 90.8192 38.2974 90.4592 38.7074C90.1092 39.1174 89.9342 39.6724 89.9342 40.3724V44.0324C89.9342 44.2224 89.8792 44.3724 89.7692 44.4824C89.6592 44.5824 89.5142 44.6324 89.3342 44.6324C89.1542 44.6324 89.0042 44.5824 88.8842 44.4824C88.7742 44.3724 88.7192 44.2224 88.7192 44.0324V37.7024C88.7192 37.5224 88.7742 37.3774 88.8842 37.2674C89.0042 37.1574 89.1542 37.1024 89.3342 37.1024C89.5042 37.1024 89.6442 37.1574 89.7542 37.2674C89.8642 37.3674 89.9192 37.5074 89.9192 37.6874V38.4074C90.1392 37.9774 90.4442 37.6474 90.8342 37.4174C91.2242 37.1874 91.6742 37.0724 92.1842 37.0724C93.3242 37.0724 94.0692 37.5524 94.4192 38.5124C94.6292 38.0724 94.9492 37.7224 95.3792 37.4624C95.8092 37.2024 96.2992 37.0724 96.8492 37.0724ZM107.148 42.8624C107.258 42.8624 107.353 42.9074 107.433 42.9974C107.513 43.0874 107.553 43.2024 107.553 43.3424C107.553 43.5924 107.378 43.8224 107.028 44.0324C106.668 44.2424 106.288 44.4024 105.888 44.5124C105.488 44.6124 105.098 44.6624 104.718 44.6624C103.588 44.6624 102.693 44.3274 102.033 43.6574C101.383 42.9874 101.058 42.0624 101.058 40.8824C101.058 40.1324 101.203 39.4724 101.493 38.9024C101.783 38.3224 102.188 37.8724 102.708 37.5524C103.238 37.2324 103.838 37.0724 104.508 37.0724C105.458 37.0724 106.213 37.3824 106.773 38.0024C107.333 38.6224 107.613 39.4624 107.613 40.5224C107.613 40.7224 107.573 40.8674 107.493 40.9574C107.413 41.0474 107.283 41.0924 107.103 41.0924H102.273C102.363 42.8124 103.178 43.6724 104.718 43.6724C105.108 43.6724 105.443 43.6224 105.723 43.5224C106.003 43.4124 106.303 43.2674 106.623 43.0874C106.883 42.9374 107.058 42.8624 107.148 42.8624ZM104.523 38.0174C103.883 38.0174 103.368 38.2174 102.978 38.6174C102.598 39.0174 102.373 39.5824 102.303 40.3124H106.548C106.528 39.5724 106.343 39.0074 105.993 38.6174C105.643 38.2174 105.153 38.0174 104.523 38.0174ZM113.078 37.0724C114.828 37.0724 115.703 38.0374 115.703 39.9674V44.0324C115.703 44.2224 115.648 44.3724 115.538 44.4824C115.438 44.5824 115.293 44.6324 115.103 44.6324C114.913 44.6324 114.763 44.5824 114.653 44.4824C114.543 44.3724 114.488 44.2224 114.488 44.0324V40.0424C114.488 39.3624 114.353 38.8674 114.083 38.5574C113.823 38.2474 113.403 38.0924 112.823 38.0924C112.153 38.0924 111.618 38.2974 111.218 38.7074C110.818 39.1174 110.618 39.6724 110.618 40.3724V44.0324C110.618 44.2224 110.563 44.3724 110.453 44.4824C110.353 44.5824 110.208 44.6324 110.018 44.6324C109.828 44.6324 109.678 44.5824 109.568 44.4824C109.458 44.3724 109.403 44.2224 109.403 44.0324V37.7024C109.403 37.5224 109.458 37.3774 109.568 37.2674C109.678 37.1574 109.828 37.1024 110.018 37.1024C110.198 37.1024 110.338 37.1574 110.438 37.2674C110.548 37.3774 110.603 37.5174 110.603 37.6874V38.4524C110.843 38.0024 111.178 37.6624 111.608 37.4324C112.038 37.1924 112.528 37.0724 113.078 37.0724ZM121.303 43.6724C121.653 43.7024 121.828 43.8624 121.828 44.1524C121.828 44.3224 121.763 44.4524 121.633 44.5424C121.513 44.6224 121.328 44.6524 121.078 44.6324L120.673 44.6024C119.873 44.5424 119.283 44.3024 118.903 43.8824C118.523 43.4624 118.333 42.8274 118.333 41.9774V38.2124H117.328C117.158 38.2124 117.023 38.1724 116.923 38.0924C116.833 38.0024 116.788 37.8874 116.788 37.7474C116.788 37.5974 116.833 37.4774 116.923 37.3874C117.023 37.2974 117.158 37.2524 117.328 37.2524H118.333V35.5574C118.333 35.3674 118.388 35.2224 118.498 35.1224C118.608 35.0124 118.758 34.9574 118.948 34.9574C119.128 34.9574 119.273 35.0124 119.383 35.1224C119.493 35.2224 119.548 35.3674 119.548 35.5574V37.2524H121.213C121.373 37.2524 121.498 37.2974 121.588 37.3874C121.688 37.4774 121.738 37.5974 121.738 37.7474C121.738 37.8874 121.688 38.0024 121.588 38.0924C121.498 38.1724 121.373 38.2124 121.213 38.2124H119.548V42.0374C119.548 42.5874 119.658 42.9874 119.878 43.2374C120.108 43.4774 120.448 43.6124 120.898 43.6424L121.303 43.6724ZM126.056 44.6624C125.366 44.6624 124.756 44.5074 124.226 44.1974C123.706 43.8874 123.301 43.4474 123.011 42.8774C122.731 42.2974 122.591 41.6274 122.591 40.8674C122.591 40.1074 122.731 39.4424 123.011 38.8724C123.301 38.2924 123.706 37.8474 124.226 37.5374C124.756 37.2274 125.366 37.0724 126.056 37.0724C126.746 37.0724 127.356 37.2274 127.886 37.5374C128.416 37.8474 128.821 38.2924 129.101 38.8724C129.391 39.4424 129.536 40.1074 129.536 40.8674C129.536 41.6274 129.391 42.2974 129.101 42.8774C128.821 43.4474 128.416 43.8874 127.886 44.1974C127.356 44.5074 126.746 44.6624 126.056 44.6624ZM126.056 43.6574C126.776 43.6574 127.326 43.4224 127.706 42.9524C128.096 42.4724 128.291 41.7774 128.291 40.8674C128.291 39.9774 128.096 39.2924 127.706 38.8124C127.316 38.3224 126.766 38.0774 126.056 38.0774C125.346 38.0774 124.796 38.3224 124.406 38.8124C124.016 39.2924 123.821 39.9774 123.821 40.8674C123.821 41.7674 124.011 42.4574 124.391 42.9374C124.781 43.4174 125.336 43.6574 126.056 43.6574ZM133.806 44.6624C133.346 44.6624 132.906 44.6074 132.486 44.4974C132.076 44.3874 131.711 44.2324 131.391 44.0324C131.211 43.9124 131.081 43.8024 131.001 43.7024C130.931 43.5924 130.896 43.4624 130.896 43.3124C130.896 43.1824 130.931 43.0774 131.001 42.9974C131.081 42.9074 131.181 42.8624 131.301 42.8624C131.421 42.8624 131.596 42.9374 131.826 43.0874C132.126 43.2674 132.421 43.4124 132.711 43.5224C133.011 43.6224 133.381 43.6724 133.821 43.6724C134.361 43.6724 134.781 43.5774 135.081 43.3874C135.381 43.1974 135.531 42.9224 135.531 42.5624C135.531 42.3424 135.476 42.1674 135.366 42.0374C135.256 41.8974 135.066 41.7774 134.796 41.6774C134.526 41.5674 134.131 41.4574 133.611 41.3474C132.731 41.1574 132.101 40.9024 131.721 40.5824C131.341 40.2624 131.151 39.8274 131.151 39.2774C131.151 38.8474 131.271 38.4674 131.511 38.1374C131.751 37.8074 132.081 37.5474 132.501 37.3574C132.931 37.1674 133.416 37.0724 133.956 37.0724C134.346 37.0724 134.721 37.1274 135.081 37.2374C135.451 37.3374 135.776 37.4824 136.056 37.6724C136.396 37.9124 136.566 38.1624 136.566 38.4224C136.566 38.5524 136.526 38.6624 136.446 38.7524C136.366 38.8424 136.271 38.8874 136.161 38.8874C136.041 38.8874 135.861 38.8024 135.621 38.6324C135.341 38.4524 135.076 38.3124 134.826 38.2124C134.576 38.1124 134.266 38.0624 133.896 38.0624C133.426 38.0624 133.046 38.1674 132.756 38.3774C132.476 38.5874 132.336 38.8674 132.336 39.2174C132.336 39.4374 132.386 39.6174 132.486 39.7574C132.596 39.8874 132.771 40.0074 133.011 40.1174C133.261 40.2174 133.616 40.3174 134.076 40.4174C134.756 40.5674 135.281 40.7324 135.651 40.9124C136.031 41.0924 136.301 41.3124 136.461 41.5724C136.621 41.8324 136.701 42.1624 136.701 42.5624C136.701 43.1924 136.436 43.7024 135.906 44.0924C135.376 44.4724 134.676 44.6624 133.806 44.6624Z" fill="white"/>
<path d="M46.9492 143H45.1587V136.756H38.3491V143H36.5679V129.492H38.3491V135.3H45.1587V129.492H46.9492V143ZM49.3892 137.888C49.3892 136.905 49.5809 136.02 49.9644 135.235C50.354 134.449 50.8921 133.843 51.5786 133.417C52.2713 132.99 53.0599 132.776 53.9443 132.776C55.3112 132.776 56.4152 133.25 57.2563 134.196C58.1037 135.142 58.5273 136.401 58.5273 137.972V138.092C58.5273 139.069 58.3387 139.948 57.9614 140.727C57.5903 141.5 57.0553 142.103 56.3564 142.536C55.6637 142.969 54.8659 143.186 53.9629 143.186C52.6022 143.186 51.4982 142.712 50.6509 141.766C49.8097 140.82 49.3892 139.567 49.3892 138.009V137.888ZM51.1147 138.092C51.1147 139.206 51.3714 140.099 51.8848 140.773C52.4043 141.448 53.097 141.785 53.9629 141.785C54.835 141.785 55.5277 141.444 56.041 140.764C56.5544 140.078 56.811 139.119 56.811 137.888C56.811 136.787 56.5482 135.897 56.0225 135.216C55.5029 134.53 54.8102 134.187 53.9443 134.187C53.097 134.187 52.4136 134.524 51.894 135.198C51.3745 135.872 51.1147 136.837 51.1147 138.092ZM65.5317 134.502C65.272 134.459 64.9906 134.437 64.6875 134.437C63.5618 134.437 62.798 134.916 62.396 135.875V143H60.6797V132.962H62.3496L62.3774 134.122C62.9403 133.225 63.7381 132.776 64.771 132.776C65.105 132.776 65.3586 132.82 65.5317 132.906V134.502ZM72.9443 143C72.8454 142.802 72.765 142.45 72.7031 141.942C71.9053 142.771 70.9528 143.186 69.8457 143.186C68.8561 143.186 68.0428 142.907 67.4058 142.351C66.7749 141.788 66.4595 141.076 66.4595 140.217C66.4595 139.172 66.8553 138.361 67.647 137.786C68.4448 137.205 69.5643 136.914 71.0054 136.914H72.6753V136.125C72.6753 135.526 72.4959 135.049 72.1372 134.697C71.7785 134.338 71.2497 134.159 70.5508 134.159C69.9385 134.159 69.4251 134.313 69.0107 134.623C68.5964 134.932 68.3892 135.306 68.3892 135.745H66.6636C66.6636 135.244 66.8398 134.762 67.1924 134.298C67.5511 133.828 68.0335 133.457 68.6396 133.185C69.252 132.912 69.923 132.776 70.6528 132.776C71.8094 132.776 72.7155 133.067 73.3711 133.648C74.0267 134.224 74.3669 135.018 74.3916 136.033V140.653C74.3916 141.574 74.5091 142.307 74.7441 142.852V143H72.9443ZM70.0962 141.692C70.6343 141.692 71.1445 141.553 71.627 141.274C72.1094 140.996 72.4588 140.634 72.6753 140.189V138.129H71.3301C69.2272 138.129 68.1758 138.745 68.1758 139.976C68.1758 140.514 68.3551 140.934 68.7139 141.237C69.0726 141.54 69.5334 141.692 70.0962 141.692ZM71.6826 128.75H73.7607L71.2744 131.478H69.8921L71.6826 128.75ZM81.9341 134.502C81.6743 134.459 81.3929 134.437 81.0898 134.437C79.9642 134.437 79.2004 134.916 78.7983 135.875V143H77.082V132.962H78.752L78.7798 134.122C79.3426 133.225 80.1405 132.776 81.1733 132.776C81.5073 132.776 81.7609 132.82 81.9341 132.906V134.502ZM85.3853 143H83.6689V132.962H85.3853V143ZM83.5298 130.299C83.5298 130.021 83.6133 129.786 83.7803 129.594C83.9535 129.403 84.207 129.307 84.541 129.307C84.875 129.307 85.1286 129.403 85.3018 129.594C85.4749 129.786 85.5615 130.021 85.5615 130.299C85.5615 130.578 85.4749 130.81 85.3018 130.995C85.1286 131.181 84.875 131.273 84.541 131.273C84.207 131.273 83.9535 131.181 83.7803 130.995C83.6133 130.81 83.5298 130.578 83.5298 130.299ZM87.686 137.888C87.686 136.905 87.8778 136.02 88.2612 135.235C88.6509 134.449 89.189 133.843 89.8755 133.417C90.5682 132.99 91.3568 132.776 92.2412 132.776C93.6081 132.776 94.7121 133.25 95.5532 134.196C96.4006 135.142 96.8242 136.401 96.8242 137.972V138.092C96.8242 139.069 96.6356 139.948 96.2583 140.727C95.8872 141.5 95.3522 142.103 94.6533 142.536C93.9606 142.969 93.1628 143.186 92.2598 143.186C90.8991 143.186 89.7951 142.712 88.9478 141.766C88.1066 140.82 87.686 139.567 87.686 138.009V137.888ZM89.4116 138.092C89.4116 139.206 89.6683 140.099 90.1816 140.773C90.7012 141.448 91.3939 141.785 92.2598 141.785C93.1318 141.785 93.8245 141.444 94.3379 140.764C94.8512 140.078 95.1079 139.119 95.1079 137.888C95.1079 136.787 94.8451 135.897 94.3193 135.216C93.7998 134.53 93.1071 134.187 92.2412 134.187C91.3939 134.187 90.7104 134.524 90.1909 135.198C89.6714 135.872 89.4116 136.837 89.4116 138.092Z" fill="#458AFF"/>
<path d="M151.349 137.712V143H149.568V129.492H154.55C156.028 129.492 157.185 129.869 158.02 130.624C158.861 131.379 159.281 132.377 159.281 133.621C159.281 134.932 158.87 135.943 158.047 136.654C157.231 137.359 156.059 137.712 154.531 137.712H151.349ZM151.349 136.255H154.55C155.502 136.255 156.232 136.033 156.739 135.587C157.246 135.136 157.5 134.486 157.5 133.639C157.5 132.835 157.246 132.192 156.739 131.709C156.232 131.227 155.536 130.977 154.652 130.958H151.349V136.255ZM167.371 143C167.272 142.802 167.192 142.45 167.13 141.942C166.332 142.771 165.38 143.186 164.272 143.186C163.283 143.186 162.47 142.907 161.833 142.351C161.202 141.788 160.886 141.076 160.886 140.217C160.886 139.172 161.282 138.361 162.074 137.786C162.872 137.205 163.991 136.914 165.432 136.914H167.102V136.125C167.102 135.526 166.923 135.049 166.564 134.697C166.205 134.338 165.676 134.159 164.978 134.159C164.365 134.159 163.852 134.313 163.438 134.623C163.023 134.932 162.816 135.306 162.816 135.745H161.09C161.09 135.244 161.267 134.762 161.619 134.298C161.978 133.828 162.46 133.457 163.066 133.185C163.679 132.912 164.35 132.776 165.08 132.776C166.236 132.776 167.142 133.067 167.798 133.648C168.453 134.224 168.794 135.018 168.818 136.033V140.653C168.818 141.574 168.936 142.307 169.171 142.852V143H167.371ZM164.523 141.692C165.061 141.692 165.571 141.553 166.054 141.274C166.536 140.996 166.886 140.634 167.102 140.189V138.129H165.757C163.654 138.129 162.603 138.745 162.603 139.976C162.603 140.514 162.782 140.934 163.141 141.237C163.499 141.54 163.96 141.692 164.523 141.692ZM175.535 141.785C176.147 141.785 176.682 141.599 177.14 141.228C177.598 140.857 177.851 140.393 177.901 139.836H179.524C179.493 140.412 179.296 140.959 178.931 141.479C178.566 141.998 178.077 142.412 177.465 142.722C176.859 143.031 176.215 143.186 175.535 143.186C174.168 143.186 173.08 142.731 172.27 141.822C171.465 140.906 171.063 139.657 171.063 138.074V137.786C171.063 136.809 171.243 135.94 171.602 135.179C171.96 134.418 172.474 133.828 173.142 133.407C173.816 132.987 174.611 132.776 175.526 132.776C176.652 132.776 177.585 133.113 178.328 133.788C179.076 134.462 179.475 135.337 179.524 136.413H177.901C177.851 135.764 177.604 135.232 177.159 134.817C176.72 134.397 176.175 134.187 175.526 134.187C174.654 134.187 173.977 134.502 173.494 135.133C173.018 135.757 172.78 136.664 172.78 137.851V138.176C172.78 139.332 173.018 140.223 173.494 140.848C173.97 141.472 174.651 141.785 175.535 141.785ZM183.319 143H181.603V132.962H183.319V143ZM181.463 130.299C181.463 130.021 181.547 129.786 181.714 129.594C181.887 129.403 182.141 129.307 182.475 129.307C182.809 129.307 183.062 129.403 183.235 129.594C183.409 129.786 183.495 130.021 183.495 130.299C183.495 130.578 183.409 130.81 183.235 130.995C183.062 131.181 182.809 131.273 182.475 131.273C182.141 131.273 181.887 131.181 181.714 130.995C181.547 130.81 181.463 130.578 181.463 130.299ZM190.24 143.186C188.879 143.186 187.772 142.74 186.918 141.85C186.065 140.953 185.638 139.756 185.638 138.259V137.944C185.638 136.948 185.827 136.061 186.204 135.281C186.588 134.496 187.119 133.883 187.8 133.444C188.486 132.999 189.229 132.776 190.026 132.776C191.331 132.776 192.346 133.206 193.069 134.066C193.793 134.926 194.155 136.156 194.155 137.758V138.473H187.354C187.379 139.462 187.667 140.263 188.217 140.875C188.774 141.482 189.479 141.785 190.333 141.785C190.939 141.785 191.452 141.661 191.873 141.414C192.293 141.166 192.661 140.838 192.977 140.43L194.025 141.247C193.184 142.539 191.922 143.186 190.24 143.186ZM190.026 134.187C189.334 134.187 188.752 134.44 188.282 134.947C187.812 135.448 187.521 136.153 187.41 137.062H192.438V136.933C192.389 136.061 192.154 135.386 191.733 134.91C191.313 134.428 190.744 134.187 190.026 134.187ZM197.773 132.962L197.829 134.224C198.596 133.259 199.597 132.776 200.834 132.776C202.956 132.776 204.026 133.973 204.044 136.367V143H202.328V136.357C202.322 135.634 202.155 135.099 201.827 134.752C201.506 134.406 201.001 134.233 200.315 134.233C199.758 134.233 199.27 134.381 198.849 134.678C198.429 134.975 198.101 135.365 197.866 135.847V143H196.149V132.962H197.773ZM208.961 130.531V132.962H210.835V134.289H208.961V140.514C208.961 140.916 209.045 141.219 209.212 141.423C209.379 141.621 209.663 141.72 210.065 141.72C210.263 141.72 210.535 141.683 210.882 141.608V143C210.43 143.124 209.991 143.186 209.564 143.186C208.798 143.186 208.219 142.954 207.83 142.49C207.44 142.026 207.245 141.367 207.245 140.514V134.289H205.417V132.962H207.245V130.531H208.961ZM217.014 143.186C215.653 143.186 214.546 142.74 213.693 141.85C212.839 140.953 212.413 139.756 212.413 138.259V137.944C212.413 136.948 212.601 136.061 212.979 135.281C213.362 134.496 213.894 133.883 214.574 133.444C215.261 132.999 216.003 132.776 216.801 132.776C218.106 132.776 219.12 133.206 219.844 134.066C220.567 134.926 220.929 136.156 220.929 137.758V138.473H214.129C214.154 139.462 214.441 140.263 214.992 140.875C215.548 141.482 216.253 141.785 217.107 141.785C217.713 141.785 218.226 141.661 218.647 141.414C219.068 141.166 219.436 140.838 219.751 140.43L220.799 141.247C219.958 142.539 218.696 143.186 217.014 143.186ZM216.801 134.187C216.108 134.187 215.527 134.44 215.057 134.947C214.587 135.448 214.296 136.153 214.185 137.062H219.213V136.933C219.163 136.061 218.928 135.386 218.508 134.91C218.087 134.428 217.518 134.187 216.801 134.187Z" fill="#458AFF"/>
<path d="M296.548 136.979C295.02 136.54 293.907 136.002 293.208 135.365C292.515 134.722 292.169 133.93 292.169 132.99C292.169 131.926 292.593 131.048 293.44 130.355C294.293 129.656 295.401 129.307 296.761 129.307C297.689 129.307 298.515 129.486 299.238 129.845C299.968 130.203 300.531 130.698 300.927 131.329C301.329 131.96 301.53 132.65 301.53 133.398H299.739C299.739 132.582 299.479 131.941 298.96 131.478C298.44 131.007 297.708 130.772 296.761 130.772C295.883 130.772 295.196 130.967 294.702 131.357C294.213 131.74 293.969 132.275 293.969 132.962C293.969 133.512 294.201 133.979 294.665 134.363C295.135 134.74 295.929 135.086 297.049 135.402C298.174 135.717 299.053 136.067 299.684 136.45C300.321 136.827 300.791 137.27 301.094 137.777C301.403 138.284 301.558 138.881 301.558 139.567C301.558 140.662 301.131 141.54 300.277 142.202C299.424 142.858 298.283 143.186 296.854 143.186C295.926 143.186 295.06 143.009 294.256 142.657C293.452 142.298 292.831 141.809 292.392 141.191C291.959 140.572 291.742 139.87 291.742 139.085H293.533C293.533 139.901 293.833 140.548 294.433 141.024C295.039 141.494 295.846 141.729 296.854 141.729C297.794 141.729 298.515 141.537 299.016 141.154C299.517 140.77 299.767 140.248 299.767 139.586C299.767 138.924 299.535 138.414 299.071 138.055C298.607 137.69 297.766 137.332 296.548 136.979ZM305.909 130.531V132.962H307.783V134.289H305.909V140.514C305.909 140.916 305.992 141.219 306.159 141.423C306.326 141.621 306.611 141.72 307.013 141.72C307.211 141.72 307.483 141.683 307.829 141.608V143C307.378 143.124 306.938 143.186 306.512 143.186C305.745 143.186 305.167 142.954 304.777 142.49C304.387 142.026 304.192 141.367 304.192 140.514V134.289H302.365V132.962H304.192V130.531H305.909ZM315.993 143C315.894 142.802 315.814 142.45 315.752 141.942C314.954 142.771 314.002 143.186 312.895 143.186C311.905 143.186 311.092 142.907 310.455 142.351C309.824 141.788 309.508 141.076 309.508 140.217C309.508 139.172 309.904 138.361 310.696 137.786C311.494 137.205 312.613 136.914 314.054 136.914H315.724V136.125C315.724 135.526 315.545 135.049 315.186 134.697C314.827 134.338 314.299 134.159 313.6 134.159C312.987 134.159 312.474 134.313 312.06 134.623C311.645 134.932 311.438 135.306 311.438 135.745H309.712C309.712 135.244 309.889 134.762 310.241 134.298C310.6 133.828 311.082 133.457 311.688 133.185C312.301 132.912 312.972 132.776 313.702 132.776C314.858 132.776 315.764 133.067 316.42 133.648C317.076 134.224 317.416 135.018 317.44 136.033V140.653C317.44 141.574 317.558 142.307 317.793 142.852V143H315.993ZM313.145 141.692C313.683 141.692 314.193 141.553 314.676 141.274C315.158 140.996 315.508 140.634 315.724 140.189V138.129H314.379C312.276 138.129 311.225 138.745 311.225 139.976C311.225 140.514 311.404 140.934 311.763 141.237C312.121 141.54 312.582 141.692 313.145 141.692ZM322.459 130.531V132.962H324.333V134.289H322.459V140.514C322.459 140.916 322.543 141.219 322.71 141.423C322.877 141.621 323.161 141.72 323.563 141.72C323.761 141.72 324.034 141.683 324.38 141.608V143C323.928 143.124 323.489 143.186 323.062 143.186C322.296 143.186 321.717 142.954 321.328 142.49C320.938 142.026 320.743 141.367 320.743 140.514V134.289H318.916V132.962H320.743V130.531H322.459ZM332.544 142.007C331.876 142.793 330.896 143.186 329.603 143.186C328.533 143.186 327.717 142.876 327.154 142.258C326.597 141.633 326.316 140.712 326.31 139.493V132.962H328.026V139.447C328.026 140.968 328.644 141.729 329.881 141.729C331.193 141.729 332.065 141.24 332.498 140.263V132.962H334.214V143H332.581L332.544 142.007ZM342.675 140.337C342.675 139.874 342.499 139.515 342.146 139.261C341.8 139.001 341.19 138.779 340.318 138.593C339.452 138.408 338.763 138.185 338.25 137.925C337.742 137.666 337.365 137.356 337.118 136.998C336.876 136.639 336.756 136.212 336.756 135.717C336.756 134.895 337.102 134.199 337.795 133.63C338.494 133.061 339.384 132.776 340.467 132.776C341.605 132.776 342.526 133.07 343.231 133.658C343.943 134.245 344.298 134.997 344.298 135.912H342.573C342.573 135.442 342.372 135.037 341.97 134.697C341.574 134.357 341.073 134.187 340.467 134.187C339.842 134.187 339.354 134.323 339.001 134.595C338.648 134.867 338.472 135.222 338.472 135.662C338.472 136.076 338.636 136.388 338.964 136.599C339.292 136.809 339.882 137.01 340.736 137.202C341.596 137.393 342.291 137.622 342.823 137.888C343.355 138.154 343.748 138.476 344.001 138.853C344.261 139.224 344.391 139.679 344.391 140.217C344.391 141.114 344.032 141.834 343.315 142.378C342.597 142.917 341.667 143.186 340.522 143.186C339.718 143.186 339.007 143.043 338.389 142.759C337.77 142.474 337.285 142.078 336.932 141.571C336.586 141.058 336.413 140.504 336.413 139.911H338.129C338.16 140.486 338.389 140.944 338.815 141.284C339.248 141.618 339.817 141.785 340.522 141.785C341.172 141.785 341.691 141.655 342.081 141.395C342.477 141.129 342.675 140.777 342.675 140.337Z" fill="#458AFF"/>
<path d="M10 160L384 160" stroke="#B5B5B5" stroke-width="0.5"/>
<path d="M41.7632 189H40.0376V177.561L36.5771 178.832V177.273L41.4941 175.427H41.7632V189ZM55.2617 183.239C55.2617 185.249 54.9185 186.743 54.2319 187.72C53.5454 188.697 52.4723 189.186 51.0127 189.186C49.5716 189.186 48.5047 188.709 47.812 187.757C47.1193 186.798 46.7606 185.369 46.7358 183.471V181.179C46.7358 179.194 47.0791 177.719 47.7656 176.754C48.4521 175.789 49.5283 175.307 50.9941 175.307C52.4476 175.307 53.5176 175.774 54.2041 176.708C54.8906 177.635 55.2432 179.07 55.2617 181.012V183.239ZM53.5454 180.892C53.5454 179.438 53.3413 178.381 52.9331 177.719C52.5249 177.051 51.8786 176.717 50.9941 176.717C50.1159 176.717 49.4757 177.048 49.0737 177.709C48.6717 178.371 48.4645 179.389 48.4521 180.762V183.508C48.4521 184.967 48.6624 186.047 49.083 186.746C49.5098 187.438 50.153 187.785 51.0127 187.785C51.86 187.785 52.4878 187.457 52.896 186.801C53.3104 186.146 53.5269 185.113 53.5454 183.703V180.892ZM57.5811 188.1C57.5811 187.803 57.6676 187.556 57.8408 187.358C58.0202 187.16 58.2861 187.061 58.6387 187.061C58.9912 187.061 59.2572 187.16 59.4365 187.358C59.6221 187.556 59.7148 187.803 59.7148 188.1C59.7148 188.385 59.6221 188.623 59.4365 188.814C59.2572 189.006 58.9912 189.102 58.6387 189.102C58.2861 189.102 58.0202 189.006 57.8408 188.814C57.6676 188.623 57.5811 188.385 57.5811 188.1ZM57.5903 179.908C57.5903 179.611 57.6769 179.364 57.8501 179.166C58.0295 178.968 58.2954 178.869 58.6479 178.869C59.0005 178.869 59.2664 178.968 59.4458 179.166C59.6313 179.364 59.7241 179.611 59.7241 179.908C59.7241 180.193 59.6313 180.431 59.4458 180.623C59.2664 180.814 59.0005 180.91 58.6479 180.91C58.2954 180.91 58.0295 180.814 57.8501 180.623C57.6769 180.431 57.5903 180.193 57.5903 179.908ZM70.5322 183.239C70.5322 185.249 70.189 186.743 69.5024 187.72C68.8159 188.697 67.7428 189.186 66.2832 189.186C64.8421 189.186 63.7752 188.709 63.0825 187.757C62.3898 186.798 62.0311 185.369 62.0063 183.471V181.179C62.0063 179.194 62.3496 177.719 63.0361 176.754C63.7227 175.789 64.7988 175.307 66.2646 175.307C67.7181 175.307 68.7881 175.774 69.4746 176.708C70.1611 177.635 70.5137 179.07 70.5322 181.012V183.239ZM68.8159 180.892C68.8159 179.438 68.6118 178.381 68.2036 177.719C67.7954 177.051 67.1491 176.717 66.2646 176.717C65.3864 176.717 64.7463 177.048 64.3442 177.709C63.9422 178.371 63.735 179.389 63.7227 180.762V183.508C63.7227 184.967 63.9329 186.047 64.3535 186.746C64.7803 187.438 65.4235 187.785 66.2832 187.785C67.1305 187.785 67.7583 187.457 68.1665 186.801C68.5809 186.146 68.7974 185.113 68.8159 183.703V180.892ZM81.2012 183.239C81.2012 185.249 80.8579 186.743 80.1714 187.72C79.4849 188.697 78.4118 189.186 76.9521 189.186C75.5111 189.186 74.4442 188.709 73.7515 187.757C73.0588 186.798 72.7 185.369 72.6753 183.471V181.179C72.6753 179.194 73.0186 177.719 73.7051 176.754C74.3916 175.789 75.4678 175.307 76.9336 175.307C78.387 175.307 79.457 175.774 80.1436 176.708C80.8301 177.635 81.1826 179.07 81.2012 181.012V183.239ZM79.4849 180.892C79.4849 179.438 79.2808 178.381 78.8726 177.719C78.4644 177.051 77.818 176.717 76.9336 176.717C76.0553 176.717 75.4152 177.048 75.0132 177.709C74.6112 178.371 74.404 179.389 74.3916 180.762V183.508C74.3916 184.967 74.6019 186.047 75.0225 186.746C75.4492 187.438 76.0924 187.785 76.9521 187.785C77.7995 187.785 78.4272 187.457 78.8354 186.801C79.2498 186.146 79.4663 185.113 79.4849 183.703V180.892ZM89.7734 189C89.6745 188.802 89.5941 188.45 89.5322 187.942C88.7344 188.771 87.7819 189.186 86.6748 189.186C85.6852 189.186 84.8719 188.907 84.2349 188.351C83.604 187.788 83.2886 187.076 83.2886 186.217C83.2886 185.172 83.6844 184.361 84.4761 183.786C85.2739 183.205 86.3934 182.914 87.8345 182.914H89.5044V182.125C89.5044 181.526 89.325 181.049 88.9663 180.697C88.6076 180.338 88.0788 180.159 87.3799 180.159C86.7676 180.159 86.2542 180.313 85.8398 180.623C85.4255 180.932 85.2183 181.306 85.2183 181.745H83.4927C83.4927 181.244 83.6689 180.762 84.0215 180.298C84.3802 179.828 84.8626 179.457 85.4688 179.185C86.0811 178.912 86.7521 178.776 87.4819 178.776C88.6385 178.776 89.5446 179.067 90.2002 179.648C90.8558 180.224 91.196 181.018 91.2207 182.033V186.653C91.2207 187.574 91.3382 188.307 91.5732 188.852V189H89.7734ZM86.9253 187.692C87.4634 187.692 87.9736 187.553 88.4561 187.274C88.9385 186.996 89.2879 186.634 89.5044 186.189V184.129H88.1592C86.0563 184.129 85.0049 184.745 85.0049 185.976C85.0049 186.514 85.1842 186.934 85.543 187.237C85.9017 187.54 86.3625 187.692 86.9253 187.692ZM95.5254 178.962L95.5718 180.075C96.3078 179.209 97.3005 178.776 98.5498 178.776C99.9538 178.776 100.909 179.314 101.417 180.391C101.75 179.908 102.183 179.519 102.715 179.222C103.253 178.925 103.887 178.776 104.617 178.776C106.819 178.776 107.938 179.942 107.976 182.274V189H106.259V182.376C106.259 181.659 106.095 181.124 105.768 180.771C105.44 180.412 104.889 180.233 104.116 180.233C103.479 180.233 102.95 180.425 102.53 180.808C102.109 181.185 101.865 181.696 101.797 182.339V189H100.071V182.422C100.071 180.963 99.3569 180.233 97.9282 180.233C96.8026 180.233 96.0326 180.712 95.6182 181.671V189H93.9019V178.962H95.5254Z" fill="#A6A0A0"/>
<path d="M153.548 182.979C152.02 182.54 150.907 182.002 150.208 181.365C149.515 180.722 149.169 179.93 149.169 178.99C149.169 177.926 149.593 177.048 150.44 176.355C151.293 175.656 152.401 175.307 153.761 175.307C154.689 175.307 155.515 175.486 156.238 175.845C156.968 176.203 157.531 176.698 157.927 177.329C158.329 177.96 158.53 178.65 158.53 179.398H156.739C156.739 178.582 156.479 177.941 155.96 177.478C155.44 177.007 154.708 176.772 153.761 176.772C152.883 176.772 152.196 176.967 151.702 177.357C151.213 177.74 150.969 178.275 150.969 178.962C150.969 179.512 151.201 179.979 151.665 180.363C152.135 180.74 152.929 181.086 154.049 181.402C155.174 181.717 156.053 182.067 156.684 182.45C157.321 182.827 157.791 183.27 158.094 183.777C158.403 184.284 158.558 184.881 158.558 185.567C158.558 186.662 158.131 187.54 157.277 188.202C156.424 188.858 155.283 189.186 153.854 189.186C152.926 189.186 152.06 189.009 151.256 188.657C150.452 188.298 149.831 187.809 149.392 187.191C148.959 186.572 148.742 185.87 148.742 185.085H150.533C150.533 185.901 150.833 186.548 151.433 187.024C152.039 187.494 152.846 187.729 153.854 187.729C154.794 187.729 155.515 187.537 156.016 187.154C156.517 186.77 156.767 186.248 156.767 185.586C156.767 184.924 156.535 184.414 156.071 184.055C155.607 183.69 154.766 183.332 153.548 182.979ZM165.432 180.502C165.172 180.459 164.891 180.437 164.588 180.437C163.462 180.437 162.698 180.916 162.296 181.875V189H160.58V178.962H162.25L162.278 180.122C162.841 179.225 163.639 178.776 164.671 178.776C165.005 178.776 165.259 178.82 165.432 178.906V180.502ZM165.905 188.1C165.905 187.803 165.992 187.556 166.165 187.358C166.344 187.16 166.61 187.061 166.963 187.061C167.315 187.061 167.581 187.16 167.761 187.358C167.946 187.556 168.039 187.803 168.039 188.1C168.039 188.385 167.946 188.623 167.761 188.814C167.581 189.006 167.315 189.102 166.963 189.102C166.61 189.102 166.344 189.006 166.165 188.814C165.992 188.623 165.905 188.385 165.905 188.1ZM185.796 184.714C185.629 186.143 185.1 187.247 184.209 188.026C183.325 188.799 182.147 189.186 180.675 189.186C179.079 189.186 177.799 188.613 176.834 187.469C175.875 186.325 175.396 184.794 175.396 182.877V181.578C175.396 180.323 175.619 179.219 176.064 178.266C176.515 177.314 177.153 176.584 177.975 176.077C178.798 175.563 179.75 175.307 180.833 175.307C182.267 175.307 183.418 175.709 184.284 176.513C185.15 177.311 185.654 178.418 185.796 179.834H184.005C183.851 178.758 183.514 177.979 182.994 177.496C182.481 177.014 181.76 176.772 180.833 176.772C179.694 176.772 178.801 177.193 178.151 178.034C177.508 178.875 177.187 180.072 177.187 181.625V182.933C177.187 184.398 177.493 185.564 178.105 186.43C178.717 187.296 179.574 187.729 180.675 187.729C181.664 187.729 182.422 187.506 182.948 187.061C183.48 186.61 183.832 185.827 184.005 184.714H185.796ZM194.164 189C194.065 188.802 193.985 188.45 193.923 187.942C193.125 188.771 192.173 189.186 191.065 189.186C190.076 189.186 189.263 188.907 188.625 188.351C187.995 187.788 187.679 187.076 187.679 186.217C187.679 185.172 188.075 184.361 188.867 183.786C189.665 183.205 190.784 182.914 192.225 182.914H193.895V182.125C193.895 181.526 193.716 181.049 193.357 180.697C192.998 180.338 192.469 180.159 191.771 180.159C191.158 180.159 190.645 180.313 190.23 180.623C189.816 180.932 189.609 181.306 189.609 181.745H187.883C187.883 181.244 188.06 180.762 188.412 180.298C188.771 179.828 189.253 179.457 189.859 179.185C190.472 178.912 191.143 178.776 191.873 178.776C193.029 178.776 193.935 179.067 194.591 179.648C195.246 180.224 195.587 181.018 195.611 182.033V186.653C195.611 187.574 195.729 188.307 195.964 188.852V189H194.164ZM191.316 187.692C191.854 187.692 192.364 187.553 192.847 187.274C193.329 186.996 193.679 186.634 193.895 186.189V184.129H192.55C190.447 184.129 189.396 184.745 189.396 185.976C189.396 186.514 189.575 186.934 189.934 187.237C190.292 187.54 190.753 187.692 191.316 187.692ZM203.154 180.502C202.894 180.459 202.613 180.437 202.31 180.437C201.184 180.437 200.42 180.916 200.018 181.875V189H198.302V178.962H199.972L200 180.122C200.562 179.225 201.36 178.776 202.393 178.776C202.727 178.776 202.981 178.82 203.154 178.906V180.502ZM206.605 189H204.889V174.75H206.605V189ZM208.906 183.888C208.906 182.905 209.097 182.02 209.481 181.235C209.871 180.449 210.409 179.843 211.095 179.417C211.788 178.99 212.576 178.776 213.461 178.776C214.828 178.776 215.932 179.25 216.773 180.196C217.62 181.142 218.044 182.401 218.044 183.972V184.092C218.044 185.069 217.855 185.948 217.478 186.727C217.107 187.5 216.572 188.103 215.873 188.536C215.18 188.969 214.382 189.186 213.479 189.186C212.119 189.186 211.015 188.712 210.167 187.766C209.326 186.82 208.906 185.567 208.906 184.009V183.888ZM210.631 184.092C210.631 185.206 210.888 186.099 211.401 186.773C211.921 187.448 212.614 187.785 213.479 187.785C214.352 187.785 215.044 187.444 215.558 186.764C216.071 186.078 216.328 185.119 216.328 183.888C216.328 182.787 216.065 181.897 215.539 181.216C215.02 180.53 214.327 180.187 213.461 180.187C212.614 180.187 211.93 180.524 211.411 181.198C210.891 181.872 210.631 182.837 210.631 184.092ZM226.041 186.337C226.041 185.874 225.865 185.515 225.512 185.261C225.166 185.001 224.557 184.779 223.685 184.593C222.819 184.408 222.129 184.185 221.616 183.925C221.109 183.666 220.731 183.356 220.484 182.998C220.243 182.639 220.122 182.212 220.122 181.717C220.122 180.895 220.468 180.199 221.161 179.63C221.86 179.061 222.751 178.776 223.833 178.776C224.971 178.776 225.893 179.07 226.598 179.658C227.309 180.245 227.665 180.997 227.665 181.912H225.939C225.939 181.442 225.738 181.037 225.336 180.697C224.94 180.357 224.439 180.187 223.833 180.187C223.208 180.187 222.72 180.323 222.367 180.595C222.015 180.867 221.838 181.222 221.838 181.662C221.838 182.076 222.002 182.388 222.33 182.599C222.658 182.809 223.249 183.01 224.102 183.202C224.962 183.393 225.658 183.622 226.189 183.888C226.721 184.154 227.114 184.476 227.368 184.853C227.627 185.224 227.757 185.679 227.757 186.217C227.757 187.114 227.399 187.834 226.681 188.378C225.964 188.917 225.033 189.186 223.889 189.186C223.085 189.186 222.373 189.043 221.755 188.759C221.136 188.474 220.651 188.078 220.298 187.571C219.952 187.058 219.779 186.504 219.779 185.911H221.495C221.526 186.486 221.755 186.944 222.182 187.284C222.615 187.618 223.184 187.785 223.889 187.785C224.538 187.785 225.058 187.655 225.447 187.395C225.843 187.129 226.041 186.777 226.041 186.337Z" fill="#A6A0A0"/>
<path d="M41.7632 227H40.0376V215.561L36.5771 216.832V215.273L41.4941 213.427H41.7632V227ZM52.4321 227H50.7065V215.561L47.2461 216.832V215.273L52.1631 213.427H52.4321V227ZM57.5811 226.1C57.5811 225.803 57.6676 225.556 57.8408 225.358C58.0202 225.16 58.2861 225.061 58.6387 225.061C58.9912 225.061 59.2572 225.16 59.4365 225.358C59.6221 225.556 59.7148 225.803 59.7148 226.1C59.7148 226.385 59.6221 226.623 59.4365 226.814C59.2572 227.006 58.9912 227.102 58.6387 227.102C58.2861 227.102 58.0202 227.006 57.8408 226.814C57.6676 226.623 57.5811 226.385 57.5811 226.1ZM57.5903 217.908C57.5903 217.611 57.6769 217.364 57.8501 217.166C58.0295 216.968 58.2954 216.869 58.6479 216.869C59.0005 216.869 59.2664 216.968 59.4458 217.166C59.6313 217.364 59.7241 217.611 59.7241 217.908C59.7241 218.193 59.6313 218.431 59.4458 218.623C59.2664 218.814 59.0005 218.91 58.6479 218.91C58.2954 218.91 58.0295 218.814 57.8501 218.623C57.6769 218.431 57.5903 218.193 57.5903 217.908ZM70.5322 221.239C70.5322 223.249 70.189 224.743 69.5024 225.72C68.8159 226.697 67.7428 227.186 66.2832 227.186C64.8421 227.186 63.7752 226.709 63.0825 225.757C62.3898 224.798 62.0311 223.369 62.0063 221.471V219.179C62.0063 217.194 62.3496 215.719 63.0361 214.754C63.7227 213.789 64.7988 213.307 66.2646 213.307C67.7181 213.307 68.7881 213.774 69.4746 214.708C70.1611 215.635 70.5137 217.07 70.5322 219.012V221.239ZM68.8159 218.892C68.8159 217.438 68.6118 216.381 68.2036 215.719C67.7954 215.051 67.1491 214.717 66.2646 214.717C65.3864 214.717 64.7463 215.048 64.3442 215.709C63.9422 216.371 63.735 217.389 63.7227 218.762V221.508C63.7227 222.967 63.9329 224.047 64.3535 224.746C64.7803 225.438 65.4235 225.785 66.2832 225.785C67.1305 225.785 67.7583 225.457 68.1665 224.801C68.5809 224.146 68.7974 223.113 68.8159 221.703V218.892ZM81.2012 221.239C81.2012 223.249 80.8579 224.743 80.1714 225.72C79.4849 226.697 78.4118 227.186 76.9521 227.186C75.5111 227.186 74.4442 226.709 73.7515 225.757C73.0588 224.798 72.7 223.369 72.6753 221.471V219.179C72.6753 217.194 73.0186 215.719 73.7051 214.754C74.3916 213.789 75.4678 213.307 76.9336 213.307C78.387 213.307 79.457 213.774 80.1436 214.708C80.8301 215.635 81.1826 217.07 81.2012 219.012V221.239ZM79.4849 218.892C79.4849 217.438 79.2808 216.381 78.8726 215.719C78.4644 215.051 77.818 214.717 76.9336 214.717C76.0553 214.717 75.4152 215.048 75.0132 215.709C74.6112 216.371 74.404 217.389 74.3916 218.762V221.508C74.3916 222.967 74.6019 224.047 75.0225 224.746C75.4492 225.438 76.0924 225.785 76.9521 225.785C77.7995 225.785 78.4272 225.457 78.8354 224.801C79.2498 224.146 79.4663 223.113 79.4849 221.703V218.892ZM89.7734 227C89.6745 226.802 89.5941 226.45 89.5322 225.942C88.7344 226.771 87.7819 227.186 86.6748 227.186C85.6852 227.186 84.8719 226.907 84.2349 226.351C83.604 225.788 83.2886 225.076 83.2886 224.217C83.2886 223.172 83.6844 222.361 84.4761 221.786C85.2739 221.205 86.3934 220.914 87.8345 220.914H89.5044V220.125C89.5044 219.526 89.325 219.049 88.9663 218.697C88.6076 218.338 88.0788 218.159 87.3799 218.159C86.7676 218.159 86.2542 218.313 85.8398 218.623C85.4255 218.932 85.2183 219.306 85.2183 219.745H83.4927C83.4927 219.244 83.6689 218.762 84.0215 218.298C84.3802 217.828 84.8626 217.457 85.4688 217.185C86.0811 216.912 86.7521 216.776 87.4819 216.776C88.6385 216.776 89.5446 217.067 90.2002 217.648C90.8558 218.224 91.196 219.018 91.2207 220.033V224.653C91.2207 225.574 91.3382 226.307 91.5732 226.852V227H89.7734ZM86.9253 225.692C87.4634 225.692 87.9736 225.553 88.4561 225.274C88.9385 224.996 89.2879 224.634 89.5044 224.189V222.129H88.1592C86.0563 222.129 85.0049 222.745 85.0049 223.976C85.0049 224.514 85.1842 224.934 85.543 225.237C85.9017 225.54 86.3625 225.692 86.9253 225.692ZM95.5254 216.962L95.5718 218.075C96.3078 217.209 97.3005 216.776 98.5498 216.776C99.9538 216.776 100.909 217.314 101.417 218.391C101.75 217.908 102.183 217.519 102.715 217.222C103.253 216.925 103.887 216.776 104.617 216.776C106.819 216.776 107.938 217.942 107.976 220.274V227H106.259V220.376C106.259 219.659 106.095 219.124 105.768 218.771C105.44 218.412 104.889 218.233 104.116 218.233C103.479 218.233 102.95 218.425 102.53 218.808C102.109 219.185 101.865 219.696 101.797 220.339V227H100.071V220.422C100.071 218.963 99.3569 218.233 97.9282 218.233C96.8026 218.233 96.0326 218.712 95.6182 219.671V227H93.9019V216.962H95.5254Z" fill="#A6A0A0"/>
<path d="M153.548 220.979C152.02 220.54 150.907 220.002 150.208 219.365C149.515 218.722 149.169 217.93 149.169 216.99C149.169 215.926 149.593 215.048 150.44 214.355C151.293 213.656 152.401 213.307 153.761 213.307C154.689 213.307 155.515 213.486 156.238 213.845C156.968 214.203 157.531 214.698 157.927 215.329C158.329 215.96 158.53 216.65 158.53 217.398H156.739C156.739 216.582 156.479 215.941 155.96 215.478C155.44 215.007 154.708 214.772 153.761 214.772C152.883 214.772 152.196 214.967 151.702 215.357C151.213 215.74 150.969 216.275 150.969 216.962C150.969 217.512 151.201 217.979 151.665 218.363C152.135 218.74 152.929 219.086 154.049 219.402C155.174 219.717 156.053 220.067 156.684 220.45C157.321 220.827 157.791 221.27 158.094 221.777C158.403 222.284 158.558 222.881 158.558 223.567C158.558 224.662 158.131 225.54 157.277 226.202C156.424 226.858 155.283 227.186 153.854 227.186C152.926 227.186 152.06 227.009 151.256 226.657C150.452 226.298 149.831 225.809 149.392 225.191C148.959 224.572 148.742 223.87 148.742 223.085H150.533C150.533 223.901 150.833 224.548 151.433 225.024C152.039 225.494 152.846 225.729 153.854 225.729C154.794 225.729 155.515 225.537 156.016 225.154C156.517 224.77 156.767 224.248 156.767 223.586C156.767 222.924 156.535 222.414 156.071 222.055C155.607 221.69 154.766 221.332 153.548 220.979ZM165.432 218.502C165.172 218.459 164.891 218.437 164.588 218.437C163.462 218.437 162.698 218.916 162.296 219.875V227H160.58V216.962H162.25L162.278 218.122C162.841 217.225 163.639 216.776 164.671 216.776C165.005 216.776 165.259 216.82 165.432 216.906V218.502ZM172.845 227C172.746 226.802 172.665 226.45 172.604 225.942C171.806 226.771 170.853 227.186 169.746 227.186C168.757 227.186 167.943 226.907 167.306 226.351C166.675 225.788 166.36 225.076 166.36 224.217C166.36 223.172 166.756 222.361 167.547 221.786C168.345 221.205 169.465 220.914 170.906 220.914H172.576V220.125C172.576 219.526 172.396 219.049 172.038 218.697C171.679 218.338 171.15 218.159 170.451 218.159C169.839 218.159 169.326 218.313 168.911 218.623C168.497 218.932 168.29 219.306 168.29 219.745H166.564C166.564 219.244 166.74 218.762 167.093 218.298C167.451 217.828 167.934 217.457 168.54 217.185C169.152 216.912 169.823 216.776 170.553 216.776C171.71 216.776 172.616 217.067 173.271 217.648C173.927 218.224 174.267 219.018 174.292 220.033V224.653C174.292 225.574 174.41 226.307 174.645 226.852V227H172.845ZM169.997 225.692C170.535 225.692 171.045 225.553 171.527 225.274C172.01 224.996 172.359 224.634 172.576 224.189V222.129H171.23C169.128 222.129 168.076 222.745 168.076 223.976C168.076 224.514 168.256 224.934 168.614 225.237C168.973 225.54 169.434 225.692 169.997 225.692ZM177.02 226.1C177.02 225.803 177.106 225.556 177.279 225.358C177.459 225.16 177.725 225.061 178.077 225.061C178.43 225.061 178.696 225.16 178.875 225.358C179.061 225.556 179.153 225.803 179.153 226.1C179.153 226.385 179.061 226.623 178.875 226.814C178.696 227.006 178.43 227.102 178.077 227.102C177.725 227.102 177.459 227.006 177.279 226.814C177.106 226.623 177.02 226.385 177.02 226.1ZM190.407 220.719L188.755 222.436V227H186.974V213.492H188.755V220.172L194.758 213.492H196.91L191.594 219.458L197.328 227H195.194L190.407 220.719ZM204.814 227C204.715 226.802 204.635 226.45 204.573 225.942C203.775 226.771 202.823 227.186 201.716 227.186C200.726 227.186 199.913 226.907 199.276 226.351C198.645 225.788 198.33 225.076 198.33 224.217C198.33 223.172 198.725 222.361 199.517 221.786C200.315 221.205 201.434 220.914 202.875 220.914H204.545V220.125C204.545 219.526 204.366 219.049 204.007 218.697C203.649 218.338 203.12 218.159 202.421 218.159C201.809 218.159 201.295 218.313 200.881 218.623C200.466 218.932 200.259 219.306 200.259 219.745H198.534C198.534 219.244 198.71 218.762 199.062 218.298C199.421 217.828 199.904 217.457 200.51 217.185C201.122 216.912 201.793 216.776 202.523 216.776C203.68 216.776 204.586 217.067 205.241 217.648C205.897 218.224 206.237 219.018 206.262 220.033V224.653C206.262 225.574 206.379 226.307 206.614 226.852V227H204.814ZM201.966 225.692C202.504 225.692 203.015 225.553 203.497 225.274C203.979 224.996 204.329 224.634 204.545 224.189V222.129H203.2C201.097 222.129 200.046 222.745 200.046 223.976C200.046 224.514 200.225 224.934 200.584 225.237C200.943 225.54 201.403 225.692 201.966 225.692ZM213.804 218.502C213.544 218.459 213.263 218.437 212.96 218.437C211.834 218.437 211.07 218.916 210.668 219.875V227H208.952V216.962H210.622L210.65 218.122C211.213 217.225 212.011 216.776 213.043 216.776C213.377 216.776 213.631 216.82 213.804 216.906V218.502ZM214.75 221.888C214.75 220.905 214.942 220.02 215.326 219.235C215.715 218.449 216.253 217.843 216.94 217.417C217.633 216.99 218.421 216.776 219.306 216.776C220.673 216.776 221.777 217.25 222.618 218.196C223.465 219.142 223.889 220.401 223.889 221.972V222.092C223.889 223.069 223.7 223.948 223.323 224.727C222.952 225.5 222.417 226.103 221.718 226.536C221.025 226.969 220.227 227.186 219.324 227.186C217.964 227.186 216.86 226.712 216.012 225.766C215.171 224.82 214.75 223.567 214.75 222.009V221.888ZM216.476 222.092C216.476 223.206 216.733 224.099 217.246 224.773C217.766 225.448 218.458 225.785 219.324 225.785C220.196 225.785 220.889 225.444 221.402 224.764C221.916 224.078 222.172 223.119 222.172 221.888C222.172 220.787 221.91 219.897 221.384 219.216C220.864 218.53 220.172 218.187 219.306 218.187C218.458 218.187 217.775 218.524 217.255 219.198C216.736 219.872 216.476 220.837 216.476 222.092ZM227.906 227H226.189V212.75H227.906V227Z" fill="#A6A0A0"/>
<path d="M41.7632 264H40.0376V252.561L36.5771 253.832V252.273L41.4941 250.427H41.7632V264ZM47.5801 257.228L48.2666 250.492H55.1875V252.079H49.7231L49.3149 255.762C49.9767 255.372 50.7282 255.177 51.5693 255.177C52.8001 255.177 53.7773 255.585 54.501 256.402C55.2246 257.212 55.5864 258.31 55.5864 259.695C55.5864 261.087 55.2091 262.185 54.4546 262.989C53.7062 263.787 52.6579 264.186 51.3096 264.186C50.1159 264.186 49.1418 263.855 48.3872 263.193C47.6326 262.531 47.2028 261.616 47.0977 260.447H48.7212C48.8263 261.22 49.1016 261.804 49.5469 262.2C49.9922 262.59 50.5798 262.785 51.3096 262.785C52.1074 262.785 52.7321 262.513 53.1836 261.968C53.6413 261.424 53.8701 260.673 53.8701 259.714C53.8701 258.811 53.6227 258.087 53.1279 257.543C52.6393 256.993 51.9868 256.717 51.1704 256.717C50.422 256.717 49.8345 256.881 49.4077 257.209L48.9531 257.58L47.5801 257.228ZM57.5811 263.1C57.5811 262.803 57.6676 262.556 57.8408 262.358C58.0202 262.16 58.2861 262.061 58.6387 262.061C58.9912 262.061 59.2572 262.16 59.4365 262.358C59.6221 262.556 59.7148 262.803 59.7148 263.1C59.7148 263.385 59.6221 263.623 59.4365 263.814C59.2572 264.006 58.9912 264.102 58.6387 264.102C58.2861 264.102 58.0202 264.006 57.8408 263.814C57.6676 263.623 57.5811 263.385 57.5811 263.1ZM57.5903 254.908C57.5903 254.611 57.6769 254.364 57.8501 254.166C58.0295 253.968 58.2954 253.869 58.6479 253.869C59.0005 253.869 59.2664 253.968 59.4458 254.166C59.6313 254.364 59.7241 254.611 59.7241 254.908C59.7241 255.193 59.6313 255.431 59.4458 255.623C59.2664 255.814 59.0005 255.91 58.6479 255.91C58.2954 255.91 58.0295 255.814 57.8501 255.623C57.6769 255.431 57.5903 255.193 57.5903 254.908ZM70.5322 258.239C70.5322 260.249 70.189 261.743 69.5024 262.72C68.8159 263.697 67.7428 264.186 66.2832 264.186C64.8421 264.186 63.7752 263.709 63.0825 262.757C62.3898 261.798 62.0311 260.369 62.0063 258.471V256.179C62.0063 254.194 62.3496 252.719 63.0361 251.754C63.7227 250.789 64.7988 250.307 66.2646 250.307C67.7181 250.307 68.7881 250.774 69.4746 251.708C70.1611 252.635 70.5137 254.07 70.5322 256.012V258.239ZM68.8159 255.892C68.8159 254.438 68.6118 253.381 68.2036 252.719C67.7954 252.051 67.1491 251.717 66.2646 251.717C65.3864 251.717 64.7463 252.048 64.3442 252.709C63.9422 253.371 63.735 254.389 63.7227 255.762V258.508C63.7227 259.967 63.9329 261.047 64.3535 261.746C64.7803 262.438 65.4235 262.785 66.2832 262.785C67.1305 262.785 67.7583 262.457 68.1665 261.801C68.5809 261.146 68.7974 260.113 68.8159 258.703V255.892ZM81.2012 258.239C81.2012 260.249 80.8579 261.743 80.1714 262.72C79.4849 263.697 78.4118 264.186 76.9521 264.186C75.5111 264.186 74.4442 263.709 73.7515 262.757C73.0588 261.798 72.7 260.369 72.6753 258.471V256.179C72.6753 254.194 73.0186 252.719 73.7051 251.754C74.3916 250.789 75.4678 250.307 76.9336 250.307C78.387 250.307 79.457 250.774 80.1436 251.708C80.8301 252.635 81.1826 254.07 81.2012 256.012V258.239ZM79.4849 255.892C79.4849 254.438 79.2808 253.381 78.8726 252.719C78.4644 252.051 77.818 251.717 76.9336 251.717C76.0553 251.717 75.4152 252.048 75.0132 252.709C74.6112 253.371 74.404 254.389 74.3916 255.762V258.508C74.3916 259.967 74.6019 261.047 75.0225 261.746C75.4492 262.438 76.0924 262.785 76.9521 262.785C77.7995 262.785 78.4272 262.457 78.8354 261.801C79.2498 261.146 79.4663 260.113 79.4849 258.703V255.892ZM92.0557 259.092C92.0557 260.62 91.7062 261.851 91.0073 262.785C90.3084 263.719 89.3621 264.186 88.1685 264.186C86.95 264.186 85.9914 263.799 85.2925 263.026V267.859H83.5762V253.962H85.144L85.2275 255.075C85.9264 254.209 86.8975 253.776 88.1406 253.776C89.3467 253.776 90.2992 254.231 90.998 255.14C91.7031 256.049 92.0557 257.314 92.0557 258.935V259.092ZM90.3394 258.897C90.3394 257.766 90.0981 256.872 89.6157 256.216C89.1333 255.561 88.4715 255.233 87.6304 255.233C86.5913 255.233 85.812 255.694 85.2925 256.615V261.412C85.8058 262.327 86.5913 262.785 87.6489 262.785C88.4715 262.785 89.124 262.46 89.6064 261.811C90.0951 261.155 90.3394 260.184 90.3394 258.897ZM95.8594 253.962L95.9058 255.075C96.6418 254.209 97.6344 253.776 98.8838 253.776C100.288 253.776 101.243 254.314 101.75 255.391C102.084 254.908 102.517 254.519 103.049 254.222C103.587 253.925 104.221 253.776 104.951 253.776C107.153 253.776 108.272 254.942 108.31 257.274V264H106.593V257.376C106.593 256.659 106.429 256.124 106.102 255.771C105.774 255.412 105.223 255.233 104.45 255.233C103.813 255.233 103.284 255.425 102.864 255.808C102.443 256.185 102.199 256.696 102.131 257.339V264H100.405V257.422C100.405 255.963 99.6909 255.233 98.2622 255.233C97.1366 255.233 96.3665 255.712 95.9521 256.671V264H94.2358V253.962H95.8594Z" fill="#A6A0A0"/>
<path d="M153.548 257.979C152.02 257.54 150.907 257.002 150.208 256.365C149.515 255.722 149.169 254.93 149.169 253.99C149.169 252.926 149.593 252.048 150.44 251.355C151.293 250.656 152.401 250.307 153.761 250.307C154.689 250.307 155.515 250.486 156.238 250.845C156.968 251.203 157.531 251.698 157.927 252.329C158.329 252.96 158.53 253.65 158.53 254.398H156.739C156.739 253.582 156.479 252.941 155.96 252.478C155.44 252.007 154.708 251.772 153.761 251.772C152.883 251.772 152.196 251.967 151.702 252.357C151.213 252.74 150.969 253.275 150.969 253.962C150.969 254.512 151.201 254.979 151.665 255.363C152.135 255.74 152.929 256.086 154.049 256.402C155.174 256.717 156.053 257.067 156.684 257.45C157.321 257.827 157.791 258.27 158.094 258.777C158.403 259.284 158.558 259.881 158.558 260.567C158.558 261.662 158.131 262.54 157.277 263.202C156.424 263.858 155.283 264.186 153.854 264.186C152.926 264.186 152.06 264.009 151.256 263.657C150.452 263.298 149.831 262.809 149.392 262.191C148.959 261.572 148.742 260.87 148.742 260.085H150.533C150.533 260.901 150.833 261.548 151.433 262.024C152.039 262.494 152.846 262.729 153.854 262.729C154.794 262.729 155.515 262.537 156.016 262.154C156.517 261.77 156.767 261.248 156.767 260.586C156.767 259.924 156.535 259.414 156.071 259.055C155.607 258.69 154.766 258.332 153.548 257.979ZM165.432 255.502C165.172 255.459 164.891 255.437 164.588 255.437C163.462 255.437 162.698 255.916 162.296 256.875V264H160.58V253.962H162.25L162.278 255.122C162.841 254.225 163.639 253.776 164.671 253.776C165.005 253.776 165.259 253.82 165.432 253.906V255.502ZM172.845 264C172.746 263.802 172.665 263.45 172.604 262.942C171.806 263.771 170.853 264.186 169.746 264.186C168.757 264.186 167.943 263.907 167.306 263.351C166.675 262.788 166.36 262.076 166.36 261.217C166.36 260.172 166.756 259.361 167.547 258.786C168.345 258.205 169.465 257.914 170.906 257.914H172.576V257.125C172.576 256.526 172.396 256.049 172.038 255.697C171.679 255.338 171.15 255.159 170.451 255.159C169.839 255.159 169.326 255.313 168.911 255.623C168.497 255.932 168.29 256.306 168.29 256.745H166.564C166.564 256.244 166.74 255.762 167.093 255.298C167.451 254.828 167.934 254.457 168.54 254.185C169.152 253.912 169.823 253.776 170.553 253.776C171.71 253.776 172.616 254.067 173.271 254.648C173.927 255.224 174.267 256.018 174.292 257.033V261.653C174.292 262.574 174.41 263.307 174.645 263.852V264H172.845ZM169.997 262.692C170.535 262.692 171.045 262.553 171.527 262.274C172.01 261.996 172.359 261.634 172.576 261.189V259.129H171.23C169.128 259.129 168.076 259.745 168.076 260.976C168.076 261.514 168.256 261.934 168.614 262.237C168.973 262.54 169.434 262.692 169.997 262.692ZM177.02 263.1C177.02 262.803 177.106 262.556 177.279 262.358C177.459 262.16 177.725 262.061 178.077 262.061C178.43 262.061 178.696 262.16 178.875 262.358C179.061 262.556 179.153 262.803 179.153 263.1C179.153 263.385 179.061 263.623 178.875 263.814C178.696 264.006 178.43 264.102 178.077 264.102C177.725 264.102 177.459 264.006 177.279 263.814C177.106 263.623 177.02 263.385 177.02 263.1ZM189.275 250.492L193.691 261.514L198.107 250.492H200.417V264H198.636V258.74L198.803 253.062L194.368 264H193.004L188.579 253.09L188.755 258.74V264H186.974V250.492H189.275ZM209.49 264C209.391 263.802 209.311 263.45 209.249 262.942C208.451 263.771 207.499 264.186 206.392 264.186C205.402 264.186 204.589 263.907 203.952 263.351C203.321 262.788 203.005 262.076 203.005 261.217C203.005 260.172 203.401 259.361 204.193 258.786C204.991 258.205 206.11 257.914 207.551 257.914H209.221V257.125C209.221 256.526 209.042 256.049 208.683 255.697C208.324 255.338 207.796 255.159 207.097 255.159C206.484 255.159 205.971 255.313 205.557 255.623C205.142 255.932 204.935 256.306 204.935 256.745H203.209C203.209 256.244 203.386 255.762 203.738 255.298C204.097 254.828 204.579 254.457 205.186 254.185C205.798 253.912 206.469 253.776 207.199 253.776C208.355 253.776 209.261 254.067 209.917 254.648C210.573 255.224 210.913 256.018 210.938 257.033V261.653C210.938 262.574 211.055 263.307 211.29 263.852V264H209.49ZM206.642 262.692C207.18 262.692 207.69 262.553 208.173 262.274C208.655 261.996 209.005 261.634 209.221 261.189V259.129H207.876C205.773 259.129 204.722 259.745 204.722 260.976C204.722 261.514 204.901 261.934 205.26 262.237C205.618 262.54 206.079 262.692 206.642 262.692ZM218.48 255.502C218.22 255.459 217.939 255.437 217.636 255.437C216.51 255.437 215.746 255.916 215.344 256.875V264H213.628V253.962H215.298L215.326 255.122C215.889 254.225 216.686 253.776 217.719 253.776C218.053 253.776 218.307 253.82 218.48 253.906V255.502ZM222.859 251.531V253.962H224.733V255.289H222.859V261.514C222.859 261.916 222.942 262.219 223.109 262.423C223.276 262.621 223.561 262.72 223.963 262.72C224.161 262.72 224.433 262.683 224.779 262.608V264C224.328 264.124 223.889 264.186 223.462 264.186C222.695 264.186 222.117 263.954 221.727 263.49C221.337 263.026 221.143 262.367 221.143 261.514V255.289H219.315V253.962H221.143V251.531H222.859ZM228.462 255.177C229.223 254.243 230.213 253.776 231.431 253.776C233.553 253.776 234.623 254.973 234.641 257.367V264H232.925V257.357C232.919 256.634 232.752 256.099 232.424 255.752C232.102 255.406 231.598 255.233 230.912 255.233C230.355 255.233 229.866 255.381 229.446 255.678C229.025 255.975 228.697 256.365 228.462 256.847V264H226.746V249.75H228.462V255.177ZM243.408 264C243.309 263.802 243.229 263.45 243.167 262.942C242.369 263.771 241.417 264.186 240.31 264.186C239.32 264.186 238.507 263.907 237.87 263.351C237.239 262.788 236.923 262.076 236.923 261.217C236.923 260.172 237.319 259.361 238.111 258.786C238.909 258.205 240.028 257.914 241.469 257.914H243.139V257.125C243.139 256.526 242.96 256.049 242.601 255.697C242.242 255.338 241.714 255.159 241.015 255.159C240.402 255.159 239.889 255.313 239.475 255.623C239.06 255.932 238.853 256.306 238.853 256.745H237.127C237.127 256.244 237.304 255.762 237.656 255.298C238.015 254.828 238.497 254.457 239.104 254.185C239.716 253.912 240.387 253.776 241.117 253.776C242.273 253.776 243.179 254.067 243.835 254.648C244.491 255.224 244.831 256.018 244.855 257.033V261.653C244.855 262.574 244.973 263.307 245.208 263.852V264H243.408ZM240.56 262.692C241.098 262.692 241.608 262.553 242.091 262.274C242.573 261.996 242.923 261.634 243.139 261.189V259.129H241.794C239.691 259.129 238.64 259.745 238.64 260.976C238.64 261.514 238.819 261.934 239.178 262.237C239.536 262.54 239.997 262.692 240.56 262.692Z" fill="#A6A0A0"/>
<circle cx="299" cy="182" r="10" fill="#39AD36"/>
<circle cx="334" cy="182" r="10" fill="#C4C4C4"/>
<circle cx="299" cy="221" r="10" fill="#C4C4C4"/>
<circle cx="334" cy="221" r="10" fill="#FE1414" fill-opacity="0.87"/>
<circle cx="299" cy="258" r="10" fill="#39AD36"/>
<circle cx="334" cy="258" r="10" fill="#C4C4C4"/>
<defs>
<filter id="filter0_d" x="0" y="0" width="396" height="314" filterUnits="userSpaceOnUse" color-interpolation-filters="sRGB">
<feFlood flood-opacity="0" result="BackgroundImageFix"/>
<feColorMatrix in="SourceAlpha" type="matrix" values="0 0 0 0 0 0 0 0 0 0 0 0 0 0 0 0 0 0 127 0"/>
<feOffset/>
<feGaussianBlur stdDeviation="5"/>
<feColorMatrix type="matrix" values="0 0 0 0 0 0 0 0 0 0.120114 0 0 0 0 0.354622 0 0 0 0.3 0"/>
<feBlend mode="normal" in2="BackgroundImageFix" result="effect1_dropShadow"/>
<feBlend mode="normal" in="SourceGraphic" in2="effect1_dropShadow" result="shape"/>
</filter>
<linearGradient id="paint0_linear" x1="11.1821" y1="56.8361" x2="393.996" y2="56.8361" gradientUnits="userSpaceOnUse">
<stop stop-color="#43C7FF"/>
<stop offset="0.636368" stop-color="#44A9FF"/>
<stop offset="1" stop-color="#4584FF"/>
</linearGradient>
</defs>
</svg>
