<svg width="375" height="477" viewBox="0 0 375 477" fill="none" xmlns="http://www.w3.org/2000/svg">
<path d="M0 21C0 9.9543 8.95431 1 20 1H355C366.046 1 375 9.95431 375 21V92H0V21Z" fill="url(#paint0_linear)"/>
<path d="M0.25 20C0.25 9.09237 9.09238 0.25 20 0.25H355C365.908 0.25 374.75 9.09238 374.75 20V457C374.75 467.908 365.908 476.75 355 476.75H20C9.09238 476.75 0.25 467.908 0.25 457V20Z" stroke="#4584FF" stroke-width="0.5"/>
<path d="M61.883 66.243C60.443 66.243 59.102 66.09 57.86 65.784C56.636 65.46 55.628 65.019 54.836 64.461C54.53 64.227 54.305 63.984 54.161 63.732C54.035 63.48 53.972 63.156 53.972 62.76C53.972 62.22 54.134 61.752 54.458 61.356C54.782 60.96 55.16 60.762 55.592 60.762C55.826 60.762 56.051 60.798 56.267 60.87C56.483 60.942 56.753 61.077 57.077 61.275C57.815 61.689 58.544 61.986 59.264 62.166C60.002 62.346 60.83 62.436 61.748 62.436C62.81 62.436 63.611 62.283 64.151 61.977C64.709 61.653 64.988 61.185 64.988 60.573C64.988 60.159 64.727 59.808 64.205 59.52C63.701 59.214 62.729 58.917 61.289 58.629C59.507 58.251 58.112 57.801 57.104 57.279C56.096 56.757 55.385 56.145 54.971 55.443C54.575 54.723 54.377 53.859 54.377 52.851C54.377 51.699 54.719 50.655 55.403 49.719C56.087 48.783 57.023 48.054 58.211 47.532C59.417 46.992 60.767 46.722 62.261 46.722C63.575 46.722 64.745 46.866 65.771 47.154C66.797 47.442 67.733 47.892 68.579 48.504C68.903 48.738 69.128 48.99 69.254 49.26C69.398 49.512 69.47 49.827 69.47 50.205C69.47 50.745 69.308 51.213 68.984 51.609C68.678 52.005 68.309 52.203 67.877 52.203C67.643 52.203 67.427 52.176 67.229 52.122C67.031 52.05 66.752 51.906 66.392 51.69C66.302 51.636 66.041 51.501 65.609 51.285C65.195 51.051 64.7 50.871 64.124 50.745C63.566 50.601 62.954 50.529 62.288 50.529C61.37 50.529 60.632 50.709 60.074 51.069C59.516 51.411 59.237 51.87 59.237 52.446C59.237 52.788 59.336 53.067 59.534 53.283C59.732 53.499 60.101 53.715 60.641 53.931C61.181 54.129 61.982 54.336 63.044 54.552C64.772 54.93 66.131 55.389 67.121 55.929C68.111 56.451 68.813 57.063 69.227 57.765C69.641 58.467 69.848 59.295 69.848 60.249C69.848 61.437 69.515 62.49 68.849 63.408C68.183 64.308 67.247 65.01 66.041 65.514C64.853 66 63.467 66.243 61.883 66.243ZM83.1337 61.734C83.5477 61.734 83.8807 61.896 84.1327 62.22C84.4027 62.544 84.5377 62.967 84.5377 63.489C84.5377 64.209 84.1867 64.758 83.4847 65.136C82.8727 65.442 82.1437 65.703 81.2977 65.919C80.4697 66.117 79.7047 66.216 79.0027 66.216C77.5267 66.216 76.2397 65.937 75.1417 65.379C74.0437 64.821 73.1977 64.02 72.6037 62.976C72.0097 61.932 71.7127 60.708 71.7127 59.304C71.7127 57.972 71.9917 56.784 72.5497 55.74C73.1257 54.678 73.9177 53.859 74.9257 53.283C75.9517 52.689 77.1037 52.392 78.3817 52.392C79.6237 52.392 80.7127 52.662 81.6487 53.202C82.5847 53.742 83.3047 54.507 83.8087 55.497C84.3307 56.487 84.5917 57.648 84.5917 58.98C84.5917 59.394 84.4927 59.718 84.2947 59.952C84.1147 60.168 83.8447 60.276 83.4847 60.276H76.3567C76.4827 61.14 76.7617 61.761 77.1937 62.139C77.6257 62.517 78.2647 62.706 79.1107 62.706C79.5607 62.706 79.9747 62.661 80.3527 62.571C80.7307 62.463 81.1537 62.319 81.6217 62.139C81.8917 62.031 82.1527 61.941 82.4047 61.869C82.6747 61.779 82.9177 61.734 83.1337 61.734ZM78.5167 55.632C77.8867 55.632 77.3827 55.839 77.0047 56.253C76.6267 56.649 76.4017 57.234 76.3297 58.008H80.5687C80.4607 56.424 79.7767 55.632 78.5167 55.632ZM97.7719 52.446C98.5099 52.446 99.0949 52.644 99.5269 53.04C99.9589 53.436 100.175 53.976 100.175 54.66V64.002C100.175 64.632 99.9499 65.154 99.4999 65.568C99.0499 65.964 98.4649 66.162 97.7449 66.162C97.0969 66.162 96.5659 65.991 96.1519 65.649C95.7379 65.289 95.5219 64.812 95.5039 64.218C95.0899 64.866 94.5589 65.361 93.9109 65.703C93.2809 66.045 92.5519 66.216 91.7239 66.216C90.0139 66.216 88.7449 65.748 87.9169 64.812C87.0889 63.858 86.6749 62.418 86.6749 60.492V54.66C86.6749 53.976 86.8909 53.436 87.3229 53.04C87.7549 52.644 88.3399 52.446 89.0779 52.446C89.8159 52.446 90.4009 52.644 90.8329 53.04C91.2649 53.436 91.4809 53.976 91.4809 54.66V60.6C91.4809 61.896 92.0389 62.544 93.1549 62.544C93.8029 62.544 94.3339 62.31 94.7479 61.842C95.1619 61.374 95.3689 60.762 95.3689 60.006V54.66C95.3689 53.976 95.5849 53.436 96.0169 53.04C96.4489 52.644 97.0339 52.446 97.7719 52.446ZM108.21 66.216C107.004 66.216 105.987 66.126 105.159 65.946C104.331 65.766 103.602 65.478 102.972 65.082C102.72 64.956 102.522 64.74 102.378 64.434C102.234 64.128 102.162 63.786 102.162 63.408C102.162 62.922 102.288 62.526 102.54 62.22C102.81 61.896 103.143 61.734 103.539 61.734C103.809 61.734 104.061 61.77 104.295 61.842C104.529 61.896 104.817 61.995 105.159 62.139C105.735 62.337 106.239 62.49 106.671 62.598C107.121 62.706 107.688 62.76 108.372 62.76C108.858 62.76 109.236 62.697 109.506 62.571C109.794 62.427 109.938 62.229 109.938 61.977C109.938 61.779 109.866 61.626 109.722 61.518C109.596 61.41 109.344 61.311 108.966 61.221C108.588 61.113 107.949 60.969 107.049 60.789C105.447 60.483 104.286 60.024 103.566 59.412C102.864 58.782 102.513 57.9 102.513 56.766C102.513 55.938 102.765 55.191 103.269 54.525C103.791 53.859 104.502 53.337 105.402 52.959C106.302 52.581 107.31 52.392 108.426 52.392C109.236 52.392 110.019 52.491 110.775 52.689C111.549 52.887 112.233 53.166 112.827 53.526C113.385 53.85 113.664 54.372 113.664 55.092C113.664 55.596 113.529 56.019 113.259 56.361C112.989 56.703 112.656 56.874 112.26 56.874C111.792 56.874 111.234 56.721 110.586 56.415C110.154 56.217 109.767 56.073 109.425 55.983C109.101 55.875 108.714 55.821 108.264 55.821C107.814 55.821 107.463 55.893 107.211 56.037C106.959 56.163 106.833 56.352 106.833 56.604C106.833 56.892 107.004 57.117 107.346 57.279C107.706 57.441 108.408 57.621 109.452 57.819C111.198 58.125 112.431 58.593 113.151 59.223C113.871 59.835 114.231 60.726 114.231 61.896C114.231 63.21 113.682 64.263 112.584 65.055C111.504 65.829 110.046 66.216 108.21 66.216ZM142.483 62.949C142.645 63.291 142.726 63.624 142.726 63.948C142.726 64.542 142.483 65.046 141.997 65.46C141.529 65.874 140.989 66.081 140.377 66.081C139.963 66.081 139.585 65.973 139.243 65.757C138.901 65.541 138.631 65.217 138.433 64.785L137.218 62.058H128.47L127.228 64.785C127.03 65.217 126.751 65.541 126.391 65.757C126.049 65.973 125.671 66.081 125.257 66.081C124.645 66.081 124.087 65.874 123.583 65.46C123.097 65.046 122.854 64.542 122.854 63.948C122.854 63.624 122.935 63.291 123.097 62.949L130.225 48.315C130.459 47.829 130.801 47.46 131.251 47.208C131.719 46.938 132.232 46.803 132.79 46.803C133.33 46.803 133.834 46.938 134.302 47.208C134.77 47.46 135.121 47.829 135.355 48.315L142.483 62.949ZM135.544 58.332L132.844 52.311L130.144 58.332H135.544ZM151.909 62.733C153.115 62.805 153.718 63.345 153.718 64.353C153.718 64.983 153.475 65.451 152.989 65.757C152.503 66.063 151.81 66.189 150.91 66.135L150.154 66.081C148.534 65.955 147.301 65.469 146.455 64.623C145.627 63.759 145.213 62.562 145.213 61.032V56.253H144.43C142.99 56.253 142.27 55.659 142.27 54.471C142.27 53.301 142.99 52.716 144.43 52.716H145.213V50.961C145.213 50.277 145.429 49.737 145.861 49.341C146.293 48.927 146.878 48.72 147.616 48.72C148.354 48.72 148.939 48.927 149.371 49.341C149.803 49.737 150.019 50.277 150.019 50.961V52.716H151.504C152.944 52.716 153.664 53.301 153.664 54.471C153.664 55.659 152.944 56.253 151.504 56.253H150.019V61.437C150.019 61.779 150.118 62.067 150.316 62.301C150.532 62.535 150.802 62.661 151.126 62.679L151.909 62.733ZM165.795 61.734C166.209 61.734 166.542 61.896 166.794 62.22C167.064 62.544 167.199 62.967 167.199 63.489C167.199 64.209 166.848 64.758 166.146 65.136C165.534 65.442 164.805 65.703 163.959 65.919C163.131 66.117 162.366 66.216 161.664 66.216C160.188 66.216 158.901 65.937 157.803 65.379C156.705 64.821 155.859 64.02 155.265 62.976C154.671 61.932 154.374 60.708 154.374 59.304C154.374 57.972 154.653 56.784 155.211 55.74C155.787 54.678 156.579 53.859 157.587 53.283C158.613 52.689 159.765 52.392 161.043 52.392C162.285 52.392 163.374 52.662 164.31 53.202C165.246 53.742 165.966 54.507 166.47 55.497C166.992 56.487 167.253 57.648 167.253 58.98C167.253 59.394 167.154 59.718 166.956 59.952C166.776 60.168 166.506 60.276 166.146 60.276H159.018C159.144 61.14 159.423 61.761 159.855 62.139C160.287 62.517 160.926 62.706 161.772 62.706C162.222 62.706 162.636 62.661 163.014 62.571C163.392 62.463 163.815 62.319 164.283 62.139C164.553 62.031 164.814 61.941 165.066 61.869C165.336 61.779 165.579 61.734 165.795 61.734ZM161.178 55.632C160.548 55.632 160.044 55.839 159.666 56.253C159.288 56.649 159.063 57.234 158.991 58.008H163.23C163.122 56.424 162.438 55.632 161.178 55.632ZM178.381 52.392C179.965 52.392 181.144 52.869 181.918 53.823C182.692 54.759 183.079 56.19 183.079 58.116V63.948C183.079 64.632 182.863 65.172 182.431 65.568C181.999 65.964 181.414 66.162 180.676 66.162C179.938 66.162 179.353 65.964 178.921 65.568C178.489 65.172 178.273 64.632 178.273 63.948V58.332C178.273 57.54 178.129 56.964 177.841 56.604C177.571 56.244 177.157 56.064 176.599 56.064C175.879 56.064 175.303 56.298 174.871 56.766C174.457 57.216 174.25 57.828 174.25 58.602V63.948C174.25 64.632 174.034 65.172 173.602 65.568C173.17 65.964 172.585 66.162 171.847 66.162C171.109 66.162 170.524 65.964 170.092 65.568C169.66 65.172 169.444 64.632 169.444 63.948V54.606C169.444 53.976 169.669 53.463 170.119 53.067C170.569 52.653 171.154 52.446 171.874 52.446C172.558 52.446 173.098 52.635 173.494 53.013C173.908 53.391 174.115 53.886 174.115 54.498C174.583 53.814 175.186 53.292 175.924 52.932C176.662 52.572 177.481 52.392 178.381 52.392ZM197.402 46.83C198.122 46.83 198.707 47.037 199.157 47.451C199.625 47.847 199.859 48.36 199.859 48.99V63.948C199.859 64.632 199.643 65.172 199.211 65.568C198.779 65.964 198.203 66.162 197.483 66.162C196.817 66.162 196.268 65.991 195.836 65.649C195.422 65.289 195.188 64.803 195.134 64.191C194.756 64.821 194.198 65.316 193.46 65.676C192.74 66.036 191.939 66.216 191.057 66.216C189.923 66.216 188.906 65.928 188.006 65.352C187.124 64.758 186.431 63.93 185.927 62.868C185.423 61.806 185.171 60.591 185.171 59.223C185.171 57.855 185.414 56.658 185.9 55.632C186.404 54.588 187.097 53.787 187.979 53.229C188.879 52.671 189.905 52.392 191.057 52.392C191.903 52.392 192.677 52.563 193.379 52.905C194.099 53.247 194.657 53.706 195.053 54.282V48.909C195.053 48.279 195.26 47.775 195.674 47.397C196.106 47.019 196.682 46.83 197.402 46.83ZM192.515 62.625C193.361 62.625 194.009 62.337 194.459 61.761C194.909 61.185 195.134 60.357 195.134 59.277C195.134 58.215 194.909 57.405 194.459 56.847C194.009 56.271 193.361 55.983 192.515 55.983C191.687 55.983 191.048 56.262 190.598 56.82C190.148 57.378 189.923 58.179 189.923 59.223C189.923 60.303 190.148 61.14 190.598 61.734C191.066 62.328 191.705 62.625 192.515 62.625ZM205.07 66.162C204.386 66.162 203.81 65.982 203.342 65.622C202.892 65.244 202.667 64.686 202.667 63.948V54.66C202.667 53.922 202.892 53.373 203.342 53.013C203.81 52.635 204.386 52.446 205.07 52.446C205.754 52.446 206.321 52.635 206.771 53.013C207.239 53.373 207.473 53.922 207.473 54.66V63.948C207.473 64.686 207.239 65.244 206.771 65.622C206.321 65.982 205.754 66.162 205.07 66.162ZM205.07 50.556C204.26 50.556 203.612 50.349 203.126 49.935C202.658 49.503 202.424 48.936 202.424 48.234C202.424 47.532 202.658 46.974 203.126 46.56C203.612 46.146 204.26 45.939 205.07 45.939C205.862 45.939 206.501 46.146 206.987 46.56C207.473 46.974 207.716 47.532 207.716 48.234C207.716 48.936 207.473 49.503 206.987 49.935C206.519 50.349 205.88 50.556 205.07 50.556ZM227.216 52.392C228.674 52.392 229.799 52.833 230.591 53.715C231.383 54.579 231.779 56.046 231.779 58.116V63.948C231.779 64.686 231.545 65.244 231.077 65.622C230.627 65.982 230.06 66.162 229.376 66.162C228.692 66.162 228.116 65.982 227.648 65.622C227.198 65.244 226.973 64.686 226.973 63.948V58.008C226.973 57.288 226.847 56.784 226.595 56.496C226.343 56.208 225.974 56.064 225.488 56.064C224.858 56.064 224.354 56.289 223.976 56.739C223.598 57.189 223.409 57.81 223.409 58.602V63.948C223.409 64.686 223.184 65.244 222.734 65.622C222.284 65.982 221.708 66.162 221.006 66.162C220.322 66.162 219.746 65.982 219.278 65.622C218.828 65.244 218.603 64.686 218.603 63.948V58.008C218.603 57.288 218.477 56.784 218.225 56.496C217.973 56.208 217.604 56.064 217.118 56.064C216.488 56.064 215.984 56.289 215.606 56.739C215.246 57.189 215.066 57.81 215.066 58.602V63.948C215.066 64.686 214.832 65.244 214.364 65.622C213.914 65.982 213.347 66.162 212.663 66.162C211.979 66.162 211.403 65.982 210.935 65.622C210.485 65.244 210.26 64.686 210.26 63.948V54.606C210.26 53.904 210.494 53.373 210.962 53.013C211.448 52.635 212.024 52.446 212.69 52.446C213.32 52.446 213.842 52.617 214.256 52.959C214.688 53.283 214.913 53.76 214.931 54.39C215.813 53.058 217.163 52.392 218.981 52.392C220.907 52.392 222.194 53.175 222.842 54.741C223.292 54.021 223.895 53.454 224.651 53.04C225.407 52.608 226.262 52.392 227.216 52.392ZM245.292 61.734C245.706 61.734 246.039 61.896 246.291 62.22C246.561 62.544 246.696 62.967 246.696 63.489C246.696 64.209 246.345 64.758 245.643 65.136C245.031 65.442 244.302 65.703 243.456 65.919C242.628 66.117 241.863 66.216 241.161 66.216C239.685 66.216 238.398 65.937 237.3 65.379C236.202 64.821 235.356 64.02 234.762 62.976C234.168 61.932 233.871 60.708 233.871 59.304C233.871 57.972 234.15 56.784 234.708 55.74C235.284 54.678 236.076 53.859 237.084 53.283C238.11 52.689 239.262 52.392 240.54 52.392C241.782 52.392 242.871 52.662 243.807 53.202C244.743 53.742 245.463 54.507 245.967 55.497C246.489 56.487 246.75 57.648 246.75 58.98C246.75 59.394 246.651 59.718 246.453 59.952C246.273 60.168 246.003 60.276 245.643 60.276H238.515C238.641 61.14 238.92 61.761 239.352 62.139C239.784 62.517 240.423 62.706 241.269 62.706C241.719 62.706 242.133 62.661 242.511 62.571C242.889 62.463 243.312 62.319 243.78 62.139C244.05 62.031 244.311 61.941 244.563 61.869C244.833 61.779 245.076 61.734 245.292 61.734ZM240.675 55.632C240.045 55.632 239.541 55.839 239.163 56.253C238.785 56.649 238.56 57.234 238.488 58.008H242.727C242.619 56.424 241.935 55.632 240.675 55.632ZM257.878 52.392C259.462 52.392 260.641 52.869 261.415 53.823C262.189 54.759 262.576 56.19 262.576 58.116V63.948C262.576 64.632 262.36 65.172 261.928 65.568C261.496 65.964 260.911 66.162 260.173 66.162C259.435 66.162 258.85 65.964 258.418 65.568C257.986 65.172 257.77 64.632 257.77 63.948V58.332C257.77 57.54 257.626 56.964 257.338 56.604C257.068 56.244 256.654 56.064 256.096 56.064C255.376 56.064 254.8 56.298 254.368 56.766C253.954 57.216 253.747 57.828 253.747 58.602V63.948C253.747 64.632 253.531 65.172 253.099 65.568C252.667 65.964 252.082 66.162 251.344 66.162C250.606 66.162 250.021 65.964 249.589 65.568C249.157 65.172 248.941 64.632 248.941 63.948V54.606C248.941 53.976 249.166 53.463 249.616 53.067C250.066 52.653 250.651 52.446 251.371 52.446C252.055 52.446 252.595 52.635 252.991 53.013C253.405 53.391 253.612 53.886 253.612 54.498C254.08 53.814 254.683 53.292 255.421 52.932C256.159 52.572 256.978 52.392 257.878 52.392ZM273.146 62.733C274.352 62.805 274.955 63.345 274.955 64.353C274.955 64.983 274.712 65.451 274.226 65.757C273.74 66.063 273.047 66.189 272.147 66.135L271.391 66.081C269.771 65.955 268.538 65.469 267.692 64.623C266.864 63.759 266.45 62.562 266.45 61.032V56.253H265.667C264.227 56.253 263.507 55.659 263.507 54.471C263.507 53.301 264.227 52.716 265.667 52.716H266.45V50.961C266.45 50.277 266.666 49.737 267.098 49.341C267.53 48.927 268.115 48.72 268.853 48.72C269.591 48.72 270.176 48.927 270.608 49.341C271.04 49.737 271.256 50.277 271.256 50.961V52.716H272.741C274.181 52.716 274.901 53.301 274.901 54.471C274.901 55.659 274.181 56.253 272.741 56.253H271.256V61.437C271.256 61.779 271.355 62.067 271.553 62.301C271.769 62.535 272.039 62.661 272.363 62.679L273.146 62.733ZM282.927 66.216C281.469 66.216 280.182 65.937 279.066 65.379C277.968 64.803 277.113 63.993 276.501 62.949C275.907 61.905 275.61 60.681 275.61 59.277C275.61 57.873 275.907 56.658 276.501 55.632C277.113 54.588 277.968 53.787 279.066 53.229C280.164 52.671 281.451 52.392 282.927 52.392C284.403 52.392 285.69 52.671 286.788 53.229C287.886 53.787 288.732 54.588 289.326 55.632C289.938 56.658 290.244 57.873 290.244 59.277C290.244 60.681 289.938 61.905 289.326 62.949C288.732 63.993 287.886 64.803 286.788 65.379C285.69 65.937 284.403 66.216 282.927 66.216ZM282.927 62.625C284.637 62.625 285.492 61.509 285.492 59.277C285.492 57.045 284.637 55.929 282.927 55.929C281.217 55.929 280.362 57.045 280.362 59.277C280.362 61.509 281.217 62.625 282.927 62.625ZM297.659 66.216C296.453 66.216 295.436 66.126 294.608 65.946C293.78 65.766 293.051 65.478 292.421 65.082C292.169 64.956 291.971 64.74 291.827 64.434C291.683 64.128 291.611 63.786 291.611 63.408C291.611 62.922 291.737 62.526 291.989 62.22C292.259 61.896 292.592 61.734 292.988 61.734C293.258 61.734 293.51 61.77 293.744 61.842C293.978 61.896 294.266 61.995 294.608 62.139C295.184 62.337 295.688 62.49 296.12 62.598C296.57 62.706 297.137 62.76 297.821 62.76C298.307 62.76 298.685 62.697 298.955 62.571C299.243 62.427 299.387 62.229 299.387 61.977C299.387 61.779 299.315 61.626 299.171 61.518C299.045 61.41 298.793 61.311 298.415 61.221C298.037 61.113 297.398 60.969 296.498 60.789C294.896 60.483 293.735 60.024 293.015 59.412C292.313 58.782 291.962 57.9 291.962 56.766C291.962 55.938 292.214 55.191 292.718 54.525C293.24 53.859 293.951 53.337 294.851 52.959C295.751 52.581 296.759 52.392 297.875 52.392C298.685 52.392 299.468 52.491 300.224 52.689C300.998 52.887 301.682 53.166 302.276 53.526C302.834 53.85 303.113 54.372 303.113 55.092C303.113 55.596 302.978 56.019 302.708 56.361C302.438 56.703 302.105 56.874 301.709 56.874C301.241 56.874 300.683 56.721 300.035 56.415C299.603 56.217 299.216 56.073 298.874 55.983C298.55 55.875 298.163 55.821 297.713 55.821C297.263 55.821 296.912 55.893 296.66 56.037C296.408 56.163 296.282 56.352 296.282 56.604C296.282 56.892 296.453 57.117 296.795 57.279C297.155 57.441 297.857 57.621 298.901 57.819C300.647 58.125 301.88 58.593 302.6 59.223C303.32 59.835 303.68 60.726 303.68 61.896C303.68 63.21 303.131 64.263 302.033 65.055C300.953 65.829 299.495 66.216 297.659 66.216Z" fill="white"/>
<path d="M83.7864 442.883H74.8802V441.984L79.7532 436.457C80.5605 435.526 81.1204 434.758 81.4329 434.152C81.7454 433.547 81.9016 432.958 81.9016 432.385C81.9016 431.486 81.638 430.777 81.1106 430.256C80.5833 429.729 79.8574 429.465 78.9329 429.465C77.9759 429.465 77.2011 429.771 76.6087 430.383C76.0227 430.995 75.7298 431.789 75.7298 432.766H74.5677C74.5677 431.965 74.7467 431.236 75.1048 430.578C75.4694 429.921 75.9837 429.406 76.6477 429.035C77.3183 428.658 78.08 428.469 78.9329 428.469C80.235 428.469 81.2506 428.811 81.9798 429.494C82.7154 430.178 83.0833 431.109 83.0833 432.287C83.0833 432.951 82.8749 433.677 82.4583 434.465C82.0481 435.253 81.3222 436.236 80.2805 437.414L76.3157 441.896H83.7864V442.883ZM94.3528 432.326C94.3528 433.062 94.138 433.723 93.7083 434.309C93.2786 434.888 92.7122 435.314 92.0091 435.588C92.8294 435.868 93.4869 436.32 93.9817 436.945C94.4765 437.57 94.7239 438.293 94.7239 439.113C94.7239 440.331 94.3105 441.298 93.4837 442.014C92.6569 442.723 91.5631 443.078 90.2024 443.078C88.8287 443.078 87.7285 442.723 86.9016 442.014C86.0813 441.304 85.6712 440.337 85.6712 439.113C85.6712 438.306 85.9088 437.587 86.3841 436.955C86.8593 436.324 87.5104 435.868 88.3372 435.588C87.6341 435.314 87.0742 434.888 86.6575 434.309C86.2408 433.723 86.0325 433.062 86.0325 432.326C86.0325 431.148 86.4101 430.21 87.1653 429.514C87.927 428.817 88.9329 428.469 90.1829 428.469C91.4329 428.469 92.4388 428.82 93.2005 429.523C93.9687 430.227 94.3528 431.161 94.3528 432.326ZM93.552 439.123C93.552 438.238 93.2363 437.512 92.6048 436.945C91.9733 436.372 91.166 436.086 90.1829 436.086C89.1998 436.086 88.3958 436.366 87.7708 436.926C87.1458 437.486 86.8333 438.218 86.8333 439.123C86.8333 440.028 87.136 440.751 87.7415 441.291C88.347 441.825 89.1673 442.092 90.2024 442.092C91.2115 442.092 92.0221 441.825 92.6341 441.291C93.246 440.757 93.552 440.035 93.552 439.123ZM93.1809 432.316C93.1809 431.503 92.8977 430.826 92.3313 430.285C91.7714 429.738 91.0553 429.465 90.1829 429.465C89.2975 429.465 88.5781 429.729 88.0247 430.256C87.4778 430.777 87.2044 431.464 87.2044 432.316C87.2044 433.15 87.4778 433.82 88.0247 434.328C88.5781 434.836 89.3007 435.09 90.1927 435.09C91.0716 435.09 91.7877 434.836 92.3411 434.328C92.901 433.814 93.1809 433.143 93.1809 432.316Z" fill="#BFBFBF"/>
<path d="M118.208 442.883H109.302V441.984L114.175 436.457C114.982 435.526 115.542 434.758 115.854 434.152C116.167 433.547 116.323 432.958 116.323 432.385C116.323 431.486 116.059 430.777 115.532 430.256C115.005 429.729 114.279 429.465 113.354 429.465C112.397 429.465 111.623 429.771 111.03 430.383C110.444 430.995 110.151 431.789 110.151 432.766H108.989C108.989 431.965 109.168 431.236 109.526 430.578C109.891 429.921 110.405 429.406 111.069 429.035C111.74 428.658 112.501 428.469 113.354 428.469C114.656 428.469 115.672 428.811 116.401 429.494C117.137 430.178 117.505 431.109 117.505 432.287C117.505 432.951 117.296 433.677 116.88 434.465C116.47 435.253 115.744 436.236 114.702 437.414L110.737 441.896H118.208V442.883ZM127.69 436.301C127.274 436.913 126.756 437.388 126.137 437.727C125.519 438.059 124.848 438.225 124.126 438.225C123.318 438.225 122.606 438.016 121.987 437.6C121.369 437.183 120.89 436.607 120.552 435.871C120.213 435.135 120.044 434.331 120.044 433.459C120.044 432.521 120.223 431.669 120.581 430.9C120.945 430.132 121.45 429.536 122.095 429.113C122.746 428.684 123.494 428.469 124.341 428.469C125.766 428.469 126.876 428.97 127.671 429.973C128.465 430.969 128.862 432.385 128.862 434.221V435.275C128.862 437.84 128.315 439.768 127.221 441.057C126.128 442.346 124.458 442.99 122.212 442.99H121.997L122.007 441.975H122.417C124.116 441.949 125.408 441.467 126.294 440.529C127.179 439.592 127.645 438.182 127.69 436.301ZM124.272 437.219C125.053 437.219 125.753 436.988 126.372 436.525C126.997 436.057 127.44 435.451 127.7 434.709V434.035C127.7 432.59 127.397 431.47 126.792 430.676C126.193 429.875 125.382 429.475 124.36 429.475C123.436 429.475 122.677 429.849 122.085 430.598C121.492 431.34 121.196 432.277 121.196 433.41C121.196 434.497 121.479 435.406 122.046 436.135C122.619 436.857 123.361 437.219 124.272 437.219Z" fill="#BFBFBF"/>
<path d="M145.92 435.139H147.131C147.802 435.139 148.388 435.021 148.889 434.787C149.39 434.546 149.771 434.221 150.032 433.811C150.298 433.394 150.432 432.915 150.432 432.375C150.432 431.464 150.175 430.751 149.66 430.236C149.146 429.722 148.407 429.465 147.444 429.465C146.532 429.465 145.783 429.735 145.198 430.275C144.618 430.809 144.328 431.516 144.328 432.395H143.157C143.157 431.659 143.342 430.988 143.713 430.383C144.084 429.771 144.599 429.299 145.256 428.967C145.914 428.635 146.643 428.469 147.444 428.469C148.733 428.469 149.748 428.82 150.491 429.523C151.233 430.227 151.604 431.19 151.604 432.414C151.604 433.098 151.386 433.729 150.949 434.309C150.52 434.882 149.927 435.311 149.172 435.598C150.058 435.845 150.728 436.271 151.184 436.877C151.64 437.476 151.867 438.192 151.867 439.025C151.867 440.243 151.47 441.223 150.676 441.965C149.882 442.707 148.821 443.078 147.492 443.078C146.646 443.078 145.868 442.909 145.158 442.57C144.455 442.232 143.908 441.76 143.518 441.154C143.134 440.542 142.942 439.833 142.942 439.025H144.114C144.114 439.93 144.429 440.669 145.061 441.242C145.692 441.809 146.503 442.092 147.492 442.092C148.502 442.092 149.286 441.835 149.846 441.32C150.412 440.799 150.696 440.048 150.696 439.064C150.696 438.114 150.39 437.388 149.778 436.887C149.172 436.385 148.277 436.135 147.092 436.135H145.92V435.139ZM162.991 436.955C162.991 438.96 162.623 440.484 161.887 441.525C161.151 442.561 160.067 443.078 158.635 443.078C157.229 443.078 156.151 442.57 155.403 441.555C154.654 440.533 154.27 439.048 154.25 437.102V434.553C154.25 432.554 154.621 431.04 155.364 430.012C156.106 428.983 157.19 428.469 158.616 428.469C160.022 428.469 161.096 428.967 161.838 429.963C162.58 430.952 162.964 432.414 162.991 434.348V436.955ZM161.819 434.406C161.819 432.779 161.552 431.548 161.018 430.715C160.491 429.882 159.69 429.465 158.616 429.465C157.561 429.465 156.767 429.872 156.233 430.686C155.699 431.499 155.425 432.701 155.412 434.289V437.082C155.412 438.703 155.686 439.943 156.233 440.803C156.786 441.662 157.587 442.092 158.635 442.092C159.677 442.092 160.464 441.672 160.998 440.832C161.539 439.992 161.812 438.762 161.819 437.141V434.406Z" fill="#BFBFBF"/>
<path d="M180.342 435.139H181.553C182.223 435.139 182.809 435.021 183.31 434.787C183.812 434.546 184.192 434.221 184.453 433.811C184.72 433.394 184.853 432.915 184.853 432.375C184.853 431.464 184.596 430.751 184.082 430.236C183.567 429.722 182.829 429.465 181.865 429.465C180.954 429.465 180.205 429.735 179.619 430.275C179.039 430.809 178.75 431.516 178.75 432.395H177.578C177.578 431.659 177.763 430.988 178.135 430.383C178.506 429.771 179.02 429.299 179.678 428.967C180.335 428.635 181.064 428.469 181.865 428.469C183.154 428.469 184.17 428.82 184.912 429.523C185.654 430.227 186.025 431.19 186.025 432.414C186.025 433.098 185.807 433.729 185.371 434.309C184.941 434.882 184.349 435.311 183.594 435.598C184.479 435.845 185.15 436.271 185.605 436.877C186.061 437.476 186.289 438.192 186.289 439.025C186.289 440.243 185.892 441.223 185.097 441.965C184.303 442.707 183.242 443.078 181.914 443.078C181.067 443.078 180.289 442.909 179.58 442.57C178.877 442.232 178.33 441.76 177.939 441.154C177.555 440.542 177.363 439.833 177.363 439.025H178.535C178.535 439.93 178.851 440.669 179.482 441.242C180.114 441.809 180.924 442.092 181.914 442.092C182.923 442.092 183.707 441.835 184.267 441.32C184.834 440.799 185.117 440.048 185.117 439.064C185.117 438.114 184.811 437.388 184.199 436.887C183.594 436.385 182.698 436.135 181.513 436.135H180.342V435.139ZM194.277 442.883H193.105V430.07L189.238 431.506V430.412L194.082 428.615H194.277V442.883Z" fill="#BFBFBF"/>
<path opacity="0.49632" d="M222.752 442.883H221.58V430.07L217.713 431.506V430.412L222.556 428.615H222.752V442.883Z" fill="#BFBFBF"/>
<path opacity="0.49632" d="M260.64 442.883H251.734V441.984L256.607 436.457C257.414 435.526 257.974 434.758 258.286 434.152C258.599 433.547 258.755 432.958 258.755 432.385C258.755 431.486 258.491 430.777 257.964 430.256C257.437 429.729 256.711 429.465 255.786 429.465C254.829 429.465 254.055 429.771 253.462 430.383C252.876 430.995 252.583 431.789 252.583 432.766H251.421C251.421 431.965 251.6 431.236 251.958 430.578C252.323 429.921 252.837 429.406 253.501 429.035C254.172 428.658 254.934 428.469 255.786 428.469C257.088 428.469 258.104 428.811 258.833 429.494C259.569 430.178 259.937 431.109 259.937 432.287C259.937 432.951 259.728 433.677 259.312 434.465C258.902 435.253 258.176 436.236 257.134 437.414L253.169 441.896H260.64V442.883Z" fill="#BFBFBF"/>
<path opacity="0.49632" d="M288.352 435.139H289.563C290.234 435.139 290.82 435.021 291.321 434.787C291.822 434.546 292.203 434.221 292.464 433.811C292.731 433.394 292.864 432.915 292.864 432.375C292.864 431.464 292.607 430.751 292.093 430.236C291.578 429.722 290.839 429.465 289.876 429.465C288.964 429.465 288.216 429.735 287.63 430.275C287.05 430.809 286.761 431.516 286.761 432.395H285.589C285.589 431.659 285.774 430.988 286.145 430.383C286.516 429.771 287.031 429.299 287.688 428.967C288.346 428.635 289.075 428.469 289.876 428.469C291.165 428.469 292.18 428.82 292.923 429.523C293.665 430.227 294.036 431.19 294.036 432.414C294.036 433.098 293.818 433.729 293.382 434.309C292.952 434.882 292.359 435.311 291.604 435.598C292.49 435.845 293.16 436.271 293.616 436.877C294.072 437.476 294.3 438.192 294.3 439.025C294.3 440.243 293.902 441.223 293.108 441.965C292.314 442.707 291.253 443.078 289.925 443.078C289.078 443.078 288.3 442.909 287.591 442.57C286.887 442.232 286.341 441.76 285.95 441.154C285.566 440.542 285.374 439.833 285.374 439.025H286.546C286.546 439.93 286.861 440.669 287.493 441.242C288.124 441.809 288.935 442.092 289.925 442.092C290.934 442.092 291.718 441.835 292.278 441.32C292.845 440.799 293.128 440.048 293.128 439.064C293.128 438.114 292.822 437.388 292.21 436.887C291.604 436.385 290.709 436.135 289.524 436.135H288.352V435.139Z" fill="#BFBFBF"/>
<path d="M83.7864 390.85H74.8802V389.952L79.7532 384.425C80.5605 383.494 81.1204 382.725 81.4329 382.12C81.7454 381.514 81.9016 380.925 81.9016 380.352C81.9016 379.454 81.638 378.744 81.1106 378.223C80.5833 377.696 79.8574 377.432 78.9329 377.432C77.9759 377.432 77.2011 377.738 76.6087 378.35C76.0227 378.962 75.7298 379.757 75.7298 380.733H74.5677C74.5677 379.932 74.7467 379.203 75.1048 378.546C75.4694 377.888 75.9837 377.374 76.6477 377.003C77.3183 376.625 78.08 376.436 78.9329 376.436C80.235 376.436 81.2506 376.778 81.9798 377.462C82.7154 378.145 83.0833 379.076 83.0833 380.255C83.0833 380.919 82.8749 381.645 82.4583 382.432C82.0481 383.22 81.3222 384.203 80.2805 385.382L76.3157 389.864H83.7864V390.85ZM94.5481 384.923C94.5481 386.928 94.1803 388.451 93.4446 389.493C92.7089 390.528 91.6249 391.046 90.1927 391.046C88.7864 391.046 87.7089 390.538 86.9602 389.522C86.2115 388.5 85.8274 387.016 85.8079 385.069V382.52C85.8079 380.522 86.179 379.008 86.9212 377.979C87.6634 376.951 88.7473 376.436 90.1731 376.436C91.5794 376.436 92.6536 376.934 93.3958 377.93C94.138 378.92 94.5221 380.382 94.5481 382.315V384.923ZM93.3763 382.374C93.3763 380.746 93.1093 379.516 92.5755 378.682C92.0481 377.849 91.2473 377.432 90.1731 377.432C89.1184 377.432 88.3242 377.839 87.7903 378.653C87.2565 379.467 86.983 380.668 86.97 382.257V385.05C86.97 386.671 87.2434 387.911 87.7903 388.77C88.3437 389.63 89.1445 390.059 90.1927 390.059C91.2343 390.059 92.0221 389.639 92.5559 388.8C93.0963 387.96 93.3697 386.729 93.3763 385.108V382.374Z" fill="#BFBFBF"/>
<path d="M118.208 390.85H109.302V389.952L114.175 384.425C114.982 383.494 115.542 382.725 115.854 382.12C116.167 381.514 116.323 380.925 116.323 380.352C116.323 379.454 116.059 378.744 115.532 378.223C115.005 377.696 114.279 377.432 113.354 377.432C112.397 377.432 111.623 377.738 111.03 378.35C110.444 378.962 110.151 379.757 110.151 380.733H108.989C108.989 379.932 109.168 379.203 109.526 378.546C109.891 377.888 110.405 377.374 111.069 377.003C111.74 376.625 112.501 376.436 113.354 376.436C114.656 376.436 115.672 376.778 116.401 377.462C117.137 378.145 117.505 379.076 117.505 380.255C117.505 380.919 117.296 381.645 116.88 382.432C116.47 383.22 115.744 384.203 114.702 385.382L110.737 389.864H118.208V390.85ZM125.835 390.85H124.663V378.038L120.796 379.473V378.38L125.639 376.583H125.835V390.85Z" fill="#BFBFBF"/>
<path d="M152.229 390.85H143.323V389.952L148.196 384.425C149.003 383.494 149.563 382.725 149.875 382.12C150.188 381.514 150.344 380.925 150.344 380.352C150.344 379.454 150.08 378.744 149.553 378.223C149.026 377.696 148.3 377.432 147.375 377.432C146.418 377.432 145.644 377.738 145.051 378.35C144.465 378.962 144.172 379.757 144.172 380.733H143.01C143.01 379.932 143.189 379.203 143.547 378.546C143.912 377.888 144.426 377.374 145.09 377.003C145.761 376.625 146.522 376.436 147.375 376.436C148.677 376.436 149.693 376.778 150.422 377.462C151.158 378.145 151.526 379.076 151.526 380.255C151.526 380.919 151.317 381.645 150.901 382.432C150.491 383.22 149.765 384.203 148.723 385.382L144.758 389.864H152.229V390.85ZM157.014 383.106H158.225C158.895 383.106 159.481 382.989 159.983 382.755C160.484 382.514 160.865 382.188 161.125 381.778C161.392 381.361 161.526 380.883 161.526 380.343C161.526 379.431 161.269 378.718 160.754 378.204C160.24 377.69 159.501 377.432 158.537 377.432C157.626 377.432 156.877 377.703 156.291 378.243C155.712 378.777 155.422 379.483 155.422 380.362H154.25C154.25 379.626 154.436 378.956 154.807 378.35C155.178 377.738 155.692 377.266 156.35 376.934C157.007 376.602 157.737 376.436 158.537 376.436C159.826 376.436 160.842 376.788 161.584 377.491C162.326 378.194 162.698 379.158 162.698 380.382C162.698 381.065 162.479 381.697 162.043 382.276C161.614 382.849 161.021 383.279 160.266 383.565C161.151 383.813 161.822 384.239 162.278 384.844C162.733 385.443 162.961 386.16 162.961 386.993C162.961 388.21 162.564 389.19 161.77 389.932C160.976 390.675 159.914 391.046 158.586 391.046C157.74 391.046 156.962 390.876 156.252 390.538C155.549 390.199 155.002 389.727 154.612 389.122C154.227 388.51 154.035 387.8 154.035 386.993H155.207C155.207 387.898 155.523 388.637 156.155 389.21C156.786 389.776 157.597 390.059 158.586 390.059C159.595 390.059 160.38 389.802 160.94 389.288C161.506 388.767 161.789 388.015 161.789 387.032C161.789 386.081 161.483 385.356 160.871 384.854C160.266 384.353 159.371 384.102 158.186 384.102H157.014V383.106Z" fill="#BFBFBF"/>
<path d="M186.65 390.85H177.744V389.952L182.617 384.425C183.424 383.494 183.984 382.725 184.297 382.12C184.609 381.514 184.765 380.925 184.765 380.352C184.765 379.454 184.502 378.744 183.974 378.223C183.447 377.696 182.721 377.432 181.797 377.432C180.84 377.432 180.065 377.738 179.472 378.35C178.887 378.962 178.594 379.757 178.594 380.733H177.431C177.431 379.932 177.61 379.203 177.969 378.546C178.333 377.888 178.847 377.374 179.512 377.003C180.182 376.625 180.944 376.436 181.797 376.436C183.099 376.436 184.114 376.778 184.844 377.462C185.579 378.145 185.947 379.076 185.947 380.255C185.947 380.919 185.739 381.645 185.322 382.432C184.912 383.22 184.186 384.203 183.144 385.382L179.179 389.864H186.65V390.85ZM196.015 386.27H198.232V387.257H196.015V390.85H194.844V387.257H188.154V386.593L194.736 376.632H196.015V386.27ZM189.59 386.27H194.844V378.145L194.326 379.044L189.59 386.27Z" fill="#BFBFBF"/>
<path fill-rule="evenodd" clip-rule="evenodd" d="M222.01 400.072C230.852 400.072 238.02 392.904 238.02 384.062C238.02 375.22 230.852 368.052 222.01 368.052C213.168 368.052 206 375.22 206 384.062C206 392.904 213.168 400.072 222.01 400.072Z" fill="#F7FAFF"/>
<path d="M220.672 390.85H211.765V389.952L216.638 384.425C217.446 383.494 218.006 382.725 218.318 382.12C218.631 381.514 218.787 380.925 218.787 380.352C218.787 379.454 218.523 378.744 217.996 378.223C217.469 377.696 216.743 377.432 215.818 377.432C214.861 377.432 214.086 377.738 213.494 378.35C212.908 378.962 212.615 379.757 212.615 380.733H211.453C211.453 379.932 211.632 379.203 211.99 378.546C212.355 377.888 212.869 377.374 213.533 377.003C214.204 376.625 214.965 376.436 215.818 376.436C217.12 376.436 218.136 376.778 218.865 377.462C219.601 378.145 219.969 379.076 219.969 380.255C219.969 380.919 219.76 381.645 219.344 382.432C218.933 383.22 218.207 384.203 217.166 385.382L213.201 389.864H220.672V390.85ZM223.65 383.565L224.344 376.632H231.453V377.716H225.349L224.851 382.52C225.613 381.999 226.505 381.739 227.527 381.739C228.81 381.739 229.832 382.156 230.594 382.989C231.355 383.822 231.736 384.932 231.736 386.319C231.736 387.816 231.365 388.979 230.623 389.805C229.881 390.632 228.836 391.046 227.488 391.046C226.251 391.046 225.248 390.701 224.48 390.01C223.712 389.32 223.273 388.354 223.162 387.11H224.285C224.396 388.08 224.724 388.816 225.271 389.317C225.818 389.812 226.557 390.059 227.488 390.059C228.504 390.059 229.269 389.737 229.783 389.093C230.304 388.448 230.564 387.53 230.564 386.339C230.564 385.297 230.275 384.447 229.695 383.79C229.116 383.132 228.325 382.803 227.322 382.803C226.769 382.803 226.287 382.875 225.877 383.018C225.467 383.155 225.034 383.425 224.578 383.829L223.65 383.565Z" fill="#BFBFBF"/>
<path d="M255.093 390.85H246.187V389.952L251.06 384.425C251.867 383.494 252.427 382.725 252.74 382.12C253.052 381.514 253.208 380.925 253.208 380.352C253.208 379.454 252.945 378.744 252.417 378.223C251.89 377.696 251.164 377.432 250.24 377.432C249.283 377.432 248.508 377.738 247.915 378.35C247.329 378.962 247.036 379.757 247.036 380.733H245.874C245.874 379.932 246.053 379.203 246.411 378.546C246.776 377.888 247.29 377.374 247.954 377.003C248.625 376.625 249.387 376.436 250.24 376.436C251.542 376.436 252.557 376.778 253.286 377.462C254.022 378.145 254.39 379.076 254.39 380.255C254.39 380.919 254.182 381.645 253.765 382.432C253.355 383.22 252.629 384.203 251.587 385.382L247.622 389.864H255.093V390.85ZM264.175 376.524V377.55H264.038C262.339 377.55 261.001 378.051 260.025 379.053C259.048 380.05 258.508 381.436 258.404 383.214C258.794 382.673 259.292 382.257 259.898 381.964C260.503 381.664 261.18 381.514 261.929 381.514C263.179 381.514 264.172 381.947 264.908 382.813C265.65 383.673 266.021 384.799 266.021 386.192C266.021 387.117 265.848 387.95 265.503 388.692C265.158 389.434 264.663 390.014 264.019 390.43C263.374 390.841 262.639 391.046 261.812 391.046C260.451 391.046 259.344 390.554 258.491 389.571C257.639 388.581 257.212 387.305 257.212 385.743V384.571C257.212 382.025 257.792 380.056 258.95 378.663C260.109 377.263 261.753 376.55 263.882 376.524H264.175ZM261.743 382.52C261.001 382.52 260.308 382.742 259.663 383.184C259.025 383.621 258.599 384.177 258.384 384.854V385.85C258.384 387.087 258.7 388.096 259.331 388.878C259.969 389.659 260.796 390.05 261.812 390.05C262.723 390.05 263.459 389.688 264.019 388.966C264.585 388.243 264.868 387.331 264.868 386.231C264.868 385.111 264.585 384.213 264.019 383.536C263.459 382.859 262.7 382.52 261.743 382.52Z" fill="#BFBFBF"/>
<path d="M289.114 390.85H280.208V389.952L285.081 384.425C285.888 383.494 286.448 382.725 286.761 382.12C287.073 381.514 287.229 380.925 287.229 380.352C287.229 379.454 286.966 378.744 286.438 378.223C285.911 377.696 285.185 377.432 284.261 377.432C283.303 377.432 282.529 377.738 281.936 378.35C281.35 378.962 281.057 379.757 281.057 380.733H279.895C279.895 379.932 280.074 379.203 280.432 378.546C280.797 377.888 281.311 377.374 281.975 377.003C282.646 376.625 283.408 376.436 284.261 376.436C285.563 376.436 286.578 376.778 287.307 377.462C288.043 378.145 288.411 379.076 288.411 380.255C288.411 380.919 288.203 381.645 287.786 382.432C287.376 383.22 286.65 384.203 285.608 385.382L281.643 389.864H289.114V390.85ZM300.061 377.305L293.987 390.85H292.766L298.802 377.628H290.716V376.632H300.061V377.305Z" fill="#BFBFBF"/>
<path d="M80.3196 338.818H79.1477V326.005L75.2805 327.441V326.347L80.1243 324.55H80.3196V338.818ZM88.5716 331.074H89.7825C90.4531 331.074 91.039 330.957 91.5403 330.722C92.0416 330.481 92.4225 330.156 92.6829 329.746C92.9498 329.329 93.0833 328.851 93.0833 328.31C93.0833 327.399 92.8261 326.686 92.3118 326.172C91.7975 325.657 91.0585 325.4 90.095 325.4C89.1835 325.4 88.4348 325.67 87.8489 326.211C87.2695 326.744 86.9798 327.451 86.9798 328.33H85.8079C85.8079 327.594 85.9934 326.923 86.3645 326.318C86.7356 325.706 87.2499 325.234 87.9075 324.902C88.5651 324.57 89.2942 324.404 90.095 324.404C91.3841 324.404 92.3997 324.755 93.1419 325.459C93.8841 326.162 94.2552 327.125 94.2552 328.349C94.2552 329.033 94.0371 329.664 93.6009 330.244C93.1712 330.817 92.5787 331.246 91.8235 331.533C92.7089 331.78 93.3795 332.207 93.8352 332.812C94.291 333.411 94.5188 334.127 94.5188 334.961C94.5188 336.178 94.1217 337.158 93.3274 337.9C92.5332 338.642 91.472 339.013 90.1438 339.013C89.2975 339.013 88.5195 338.844 87.8098 338.505C87.1067 338.167 86.5598 337.695 86.1692 337.089C85.7851 336.477 85.593 335.768 85.593 334.961H86.7649C86.7649 335.866 87.0807 336.604 87.7122 337.177C88.3437 337.744 89.1542 338.027 90.1438 338.027C91.1529 338.027 91.9374 337.77 92.4973 337.255C93.0638 336.735 93.347 335.983 93.347 335C93.347 334.049 93.041 333.323 92.429 332.822C91.8235 332.321 90.9283 332.07 89.7434 332.07H88.5716V331.074Z" fill="#BFBFBF"/>
<path d="M114.741 338.818H113.569V326.005L109.702 327.441V326.347L114.546 324.55H114.741V338.818ZM127.573 334.238H129.79V335.224H127.573V338.818H126.401V335.224H119.712V334.56L126.294 324.599H127.573V334.238ZM121.147 334.238H126.401V326.113L125.884 327.011L121.147 334.238Z" fill="#BFBFBF"/>
<path fill-rule="evenodd" clip-rule="evenodd" d="M153.078 347.632C161.92 347.632 169.088 340.464 169.088 331.622C169.088 322.78 161.92 315.612 153.078 315.612C144.236 315.612 137.068 322.78 137.068 331.622C137.068 340.464 144.236 347.632 153.078 347.632Z" fill="#F3F7FE"/>
<path fill-rule="evenodd" clip-rule="evenodd" d="M256.01 244.072C264.852 244.072 272.02 236.904 272.02 228.062C272.02 219.22 264.852 212.052 256.01 212.052C247.168 212.052 240 219.22 240 228.062C240 236.904 247.168 244.072 256.01 244.072Z" fill="#EED9A4"/>
<path fill-rule="evenodd" clip-rule="evenodd" d="M85.01 296.072C93.852 296.072 101.02 288.904 101.02 280.062C101.02 271.22 93.852 264.052 85.01 264.052C76.1679 264.052 69 271.22 69 280.062C69 288.904 76.1679 296.072 85.01 296.072Z" fill="#FCF7F8"/>
<path d="M148.762 338.818H147.59V326.005L143.723 327.441V326.347L148.567 324.55H148.762V338.818ZM155.207 331.533L155.901 324.599H163.01V325.683H156.907L156.408 330.488C157.17 329.967 158.062 329.707 159.084 329.707C160.367 329.707 161.389 330.123 162.151 330.957C162.912 331.79 163.293 332.9 163.293 334.287C163.293 335.784 162.922 336.946 162.18 337.773C161.438 338.6 160.393 339.013 159.045 339.013C157.808 339.013 156.806 338.668 156.037 337.978C155.269 337.288 154.83 336.321 154.719 335.078H155.842C155.953 336.048 156.282 336.783 156.828 337.285C157.375 337.78 158.114 338.027 159.045 338.027C160.061 338.027 160.826 337.705 161.34 337.06C161.861 336.416 162.121 335.498 162.121 334.306C162.121 333.265 161.832 332.415 161.252 331.757C160.673 331.1 159.882 330.771 158.879 330.771C158.326 330.771 157.844 330.843 157.434 330.986C157.024 331.123 156.591 331.393 156.135 331.797L155.207 331.533Z" fill="#BFBFBF"/>
<path d="M183.183 338.818H182.012V326.005L178.144 327.441V326.347L182.988 324.55H183.183V338.818ZM195.732 324.492V325.517H195.595C193.896 325.517 192.558 326.019 191.582 327.021C190.605 328.017 190.065 329.404 189.961 331.181C190.351 330.641 190.849 330.224 191.455 329.931C192.06 329.632 192.737 329.482 193.486 329.482C194.736 329.482 195.729 329.915 196.465 330.781C197.207 331.64 197.578 332.767 197.578 334.16C197.578 335.084 197.405 335.918 197.06 336.66C196.715 337.402 196.22 337.981 195.576 338.398C194.931 338.808 194.196 339.013 193.369 339.013C192.008 339.013 190.901 338.522 190.049 337.539C189.196 336.549 188.769 335.273 188.769 333.711V332.539C188.769 329.993 189.349 328.024 190.508 326.63C191.666 325.231 193.31 324.518 195.439 324.492H195.732ZM193.301 330.488C192.558 330.488 191.865 330.709 191.22 331.152C190.582 331.588 190.156 332.145 189.941 332.822V333.818C189.941 335.055 190.257 336.064 190.888 336.845C191.526 337.627 192.353 338.017 193.369 338.017C194.28 338.017 195.016 337.656 195.576 336.933C196.142 336.211 196.426 335.299 196.426 334.199C196.426 333.079 196.142 332.181 195.576 331.504C195.016 330.826 194.258 330.488 193.301 330.488Z" fill="#BFBFBF"/>
<path d="M217.205 338.818H216.033V326.005L212.166 327.441V326.347L217.01 324.55H217.205V338.818ZM231.619 325.273L225.545 338.818H224.324L230.359 325.595H222.273V324.599H231.619V325.273Z" fill="#BFBFBF"/>
<path d="M251.626 338.818H250.454V326.005L246.587 327.441V326.347L251.431 324.55H251.626V338.818ZM265.659 328.261C265.659 328.997 265.445 329.658 265.015 330.244C264.585 330.823 264.019 331.25 263.316 331.523C264.136 331.803 264.794 332.255 265.288 332.88C265.783 333.505 266.031 334.228 266.031 335.048C266.031 336.266 265.617 337.233 264.79 337.949C263.963 338.658 262.87 339.013 261.509 339.013C260.135 339.013 259.035 338.658 258.208 337.949C257.388 337.239 256.978 336.272 256.978 335.048C256.978 334.241 257.215 333.522 257.691 332.89C258.166 332.259 258.817 331.803 259.644 331.523C258.941 331.25 258.381 330.823 257.964 330.244C257.547 329.658 257.339 328.997 257.339 328.261C257.339 327.083 257.717 326.145 258.472 325.449C259.234 324.752 260.24 324.404 261.49 324.404C262.74 324.404 263.745 324.755 264.507 325.459C265.275 326.162 265.659 327.096 265.659 328.261ZM264.859 335.058C264.859 334.173 264.543 333.447 263.911 332.88C263.28 332.308 262.473 332.021 261.49 332.021C260.506 332.021 259.702 332.301 259.077 332.861C258.452 333.421 258.14 334.153 258.14 335.058C258.14 335.963 258.443 336.686 259.048 337.226C259.654 337.76 260.474 338.027 261.509 338.027C262.518 338.027 263.329 337.76 263.941 337.226C264.553 336.692 264.859 335.97 264.859 335.058ZM264.488 328.252C264.488 327.438 264.204 326.761 263.638 326.22C263.078 325.673 262.362 325.4 261.49 325.4C260.604 325.4 259.885 325.664 259.331 326.191C258.784 326.712 258.511 327.399 258.511 328.252C258.511 329.085 258.784 329.755 259.331 330.263C259.885 330.771 260.607 331.025 261.499 331.025C262.378 331.025 263.094 330.771 263.648 330.263C264.208 329.749 264.488 329.078 264.488 328.252Z" fill="#BFBFBF"/>
<path d="M285.647 338.818H284.475V326.005L280.608 327.441V326.347L285.452 324.55H285.647V338.818ZM298.596 332.236C298.18 332.848 297.662 333.323 297.044 333.662C296.425 333.994 295.755 334.16 295.032 334.16C294.225 334.16 293.512 333.951 292.893 333.535C292.275 333.118 291.796 332.542 291.458 331.806C291.119 331.071 290.95 330.267 290.95 329.394C290.95 328.457 291.129 327.604 291.487 326.836C291.852 326.067 292.356 325.472 293.001 325.048C293.652 324.619 294.401 324.404 295.247 324.404C296.673 324.404 297.783 324.905 298.577 325.908C299.371 326.904 299.768 328.32 299.768 330.156V331.211C299.768 333.776 299.221 335.703 298.128 336.992C297.034 338.281 295.364 338.925 293.118 338.925H292.903L292.913 337.91H293.323C295.022 337.884 296.315 337.402 297.2 336.464C298.085 335.527 298.551 334.117 298.596 332.236ZM295.178 333.154C295.96 333.154 296.66 332.923 297.278 332.461C297.903 331.992 298.346 331.386 298.606 330.644V329.97C298.606 328.525 298.303 327.405 297.698 326.611C297.099 325.81 296.289 325.41 295.266 325.41C294.342 325.41 293.583 325.784 292.991 326.533C292.399 327.275 292.102 328.213 292.102 329.345C292.102 330.433 292.386 331.341 292.952 332.07C293.525 332.793 294.267 333.154 295.178 333.154Z" fill="#BFBFBF"/>
<path d="M87.3216 272.459V273.485H87.1848C85.4856 273.485 84.1477 273.986 83.1712 274.989C82.1946 275.985 81.6542 277.371 81.5501 279.149C81.9407 278.608 82.4388 278.192 83.0442 277.899C83.6497 277.599 84.3268 277.45 85.0755 277.45C86.3255 277.45 87.3183 277.883 88.054 278.748C88.7962 279.608 89.1673 280.734 89.1673 282.127C89.1673 283.052 88.9947 283.885 88.6497 284.627C88.3046 285.37 87.8098 285.949 87.1653 286.366C86.5208 286.776 85.7851 286.981 84.9583 286.981C83.5976 286.981 82.4908 286.489 81.638 285.506C80.7851 284.517 80.3587 283.241 80.3587 281.678V280.506C80.3587 277.961 80.9381 275.991 82.097 274.598C83.2558 273.198 84.8997 272.485 87.0286 272.459H87.3216ZM84.8899 278.455C84.1477 278.455 83.4544 278.677 82.8098 279.12C82.1718 279.556 81.7454 280.112 81.5305 280.789V281.786C81.5305 283.023 81.8463 284.032 82.4778 284.813C83.1158 285.594 83.9427 285.985 84.9583 285.985C85.8697 285.985 86.6054 285.623 87.1653 284.901C87.7317 284.178 88.0149 283.267 88.0149 282.166C88.0149 281.047 87.7317 280.148 87.1653 279.471C86.6054 278.794 85.847 278.455 84.8899 278.455Z" fill="#BFBFBF"/>
<path d="M123.608 273.241L117.534 286.786H116.313L122.348 273.563H114.262V272.567H123.608V273.241Z" fill="#BFBFBF"/>
<path d="M157.248 276.229C157.248 276.965 157.033 277.625 156.604 278.211C156.174 278.791 155.608 279.217 154.905 279.491C155.725 279.771 156.382 280.223 156.877 280.848C157.372 281.473 157.619 282.196 157.619 283.016C157.619 284.233 157.206 285.2 156.379 285.916C155.552 286.626 154.459 286.981 153.098 286.981C151.724 286.981 150.624 286.626 149.797 285.916C148.977 285.207 148.567 284.24 148.567 283.016C148.567 282.209 148.804 281.489 149.28 280.858C149.755 280.226 150.406 279.771 151.233 279.491C150.53 279.217 149.97 278.791 149.553 278.211C149.136 277.625 148.928 276.965 148.928 276.229C148.928 275.05 149.306 274.113 150.061 273.416C150.823 272.72 151.828 272.371 153.078 272.371C154.328 272.371 155.334 272.723 156.096 273.426C156.864 274.129 157.248 275.064 157.248 276.229ZM156.448 283.026C156.448 282.14 156.132 281.414 155.5 280.848C154.869 280.275 154.061 279.989 153.078 279.989C152.095 279.989 151.291 280.269 150.666 280.828C150.041 281.388 149.729 282.121 149.729 283.026C149.729 283.931 150.032 284.653 150.637 285.194C151.242 285.728 152.063 285.995 153.098 285.995C154.107 285.995 154.918 285.728 155.53 285.194C156.142 284.66 156.448 283.937 156.448 283.026ZM156.076 276.219C156.076 275.405 155.793 274.728 155.227 274.188C154.667 273.641 153.951 273.368 153.078 273.368C152.193 273.368 151.474 273.631 150.92 274.159C150.373 274.679 150.1 275.366 150.1 276.219C150.1 277.052 150.373 277.723 150.92 278.231C151.474 278.739 152.196 278.993 153.088 278.993C153.967 278.993 154.683 278.739 155.237 278.231C155.796 277.717 156.076 277.046 156.076 276.219Z" fill="#BFBFBF"/>
<path d="M190.586 280.203C190.169 280.815 189.651 281.291 189.033 281.629C188.414 281.961 187.744 282.127 187.021 282.127C186.214 282.127 185.501 281.919 184.883 281.502C184.264 281.086 183.786 280.509 183.447 279.774C183.109 279.038 182.939 278.234 182.939 277.362C182.939 276.424 183.118 275.571 183.476 274.803C183.841 274.035 184.345 273.439 184.99 273.016C185.641 272.586 186.39 272.371 187.236 272.371C188.662 272.371 189.772 272.873 190.566 273.875C191.36 274.871 191.758 276.287 191.758 278.123V279.178C191.758 281.743 191.211 283.67 190.117 284.959C189.023 286.248 187.353 286.893 185.107 286.893H184.892L184.902 285.877H185.312C187.012 285.851 188.304 285.37 189.189 284.432C190.075 283.495 190.54 282.085 190.586 280.203ZM187.168 281.121C187.949 281.121 188.649 280.89 189.267 280.428C189.892 279.959 190.335 279.354 190.595 278.612V277.938C190.595 276.493 190.293 275.373 189.687 274.578C189.088 273.778 188.278 273.377 187.256 273.377C186.331 273.377 185.573 273.752 184.98 274.5C184.388 275.243 184.092 276.18 184.092 277.313C184.092 278.4 184.375 279.308 184.941 280.037C185.514 280.76 186.256 281.121 187.168 281.121Z" fill="#BFBFBF"/>
<path d="M217.205 286.786H216.033V273.973L212.166 275.409V274.315L217.01 272.518H217.205V286.786ZM231.433 280.858C231.433 282.863 231.066 284.386 230.33 285.428C229.594 286.463 228.51 286.981 227.078 286.981C225.672 286.981 224.594 286.473 223.845 285.457C223.097 284.435 222.713 282.951 222.693 281.004V278.455C222.693 276.457 223.064 274.943 223.806 273.914C224.549 272.886 225.633 272.371 227.058 272.371C228.465 272.371 229.539 272.87 230.281 273.866C231.023 274.855 231.407 276.317 231.433 278.25V280.858ZM230.262 278.309C230.262 276.681 229.995 275.451 229.461 274.618C228.933 273.784 228.133 273.368 227.058 273.368C226.004 273.368 225.209 273.774 224.676 274.588C224.142 275.402 223.868 276.603 223.855 278.192V280.985C223.855 282.606 224.129 283.846 224.676 284.705C225.229 285.565 226.03 285.995 227.078 285.995C228.12 285.995 228.907 285.575 229.441 284.735C229.982 283.895 230.255 282.664 230.262 281.043V278.309Z" fill="#BFBFBF"/>
<path d="M251.626 286.786H250.454V273.973L246.587 275.409V274.315L251.431 272.518H251.626V286.786ZM262.72 286.786H261.548V273.973L257.681 275.409V274.315L262.525 272.518H262.72V286.786Z" fill="#BFBFBF"/>
<path d="M285.647 286.786H284.475V273.973L280.608 275.409V274.315L285.452 272.518H285.647V286.786ZM300.208 286.786H291.302V285.887L296.175 280.36C296.982 279.429 297.542 278.661 297.854 278.055C298.167 277.45 298.323 276.86 298.323 276.287C298.323 275.389 298.059 274.679 297.532 274.159C297.005 273.631 296.279 273.368 295.354 273.368C294.397 273.368 293.623 273.674 293.03 274.286C292.444 274.898 292.151 275.692 292.151 276.668H290.989C290.989 275.868 291.168 275.138 291.526 274.481C291.891 273.823 292.405 273.309 293.069 272.938C293.74 272.56 294.501 272.371 295.354 272.371C296.656 272.371 297.672 272.713 298.401 273.397C299.137 274.08 299.505 275.011 299.505 276.19C299.505 276.854 299.296 277.58 298.88 278.368C298.47 279.155 297.744 280.138 296.702 281.317L292.737 285.799H300.208V286.786Z" fill="#BFBFBF"/>
<path d="M85.8665 234.753H84.6946V221.941L80.8274 223.376V222.282L85.6712 220.486H85.8665V234.753Z" fill="#BFBFBF"/>
<path d="M123.755 234.753H114.848V233.855L119.721 228.327C120.529 227.396 121.089 226.628 121.401 226.023C121.714 225.417 121.87 224.828 121.87 224.255C121.87 223.357 121.606 222.647 121.079 222.126C120.552 221.599 119.826 221.335 118.901 221.335C117.944 221.335 117.169 221.641 116.577 222.253C115.991 222.865 115.698 223.659 115.698 224.636H114.536C114.536 223.835 114.715 223.106 115.073 222.448C115.438 221.791 115.952 221.277 116.616 220.906C117.287 220.528 118.048 220.339 118.901 220.339C120.203 220.339 121.219 220.681 121.948 221.365C122.684 222.048 123.052 222.979 123.052 224.157C123.052 224.822 122.843 225.547 122.427 226.335C122.016 227.123 121.29 228.106 120.249 229.284L116.284 233.767H123.755V234.753Z" fill="#BFBFBF"/>
<path d="M151.467 227.009H152.678C153.349 227.009 153.935 226.892 154.436 226.657C154.937 226.417 155.318 226.091 155.578 225.681C155.845 225.264 155.979 224.786 155.979 224.245C155.979 223.334 155.722 222.621 155.207 222.107C154.693 221.592 153.954 221.335 152.991 221.335C152.079 221.335 151.33 221.605 150.744 222.146C150.165 222.68 149.875 223.386 149.875 224.265H148.703C148.703 223.529 148.889 222.859 149.26 222.253C149.631 221.641 150.145 221.169 150.803 220.837C151.461 220.505 152.19 220.339 152.991 220.339C154.28 220.339 155.295 220.691 156.037 221.394C156.78 222.097 157.151 223.06 157.151 224.284C157.151 224.968 156.933 225.6 156.496 226.179C156.067 226.752 155.474 227.182 154.719 227.468C155.604 227.715 156.275 228.142 156.731 228.747C157.186 229.346 157.414 230.062 157.414 230.896C157.414 232.113 157.017 233.093 156.223 233.835C155.429 234.577 154.367 234.948 153.039 234.948C152.193 234.948 151.415 234.779 150.705 234.441C150.002 234.102 149.455 233.63 149.065 233.025C148.681 232.413 148.489 231.703 148.489 230.896H149.66C149.66 231.801 149.976 232.54 150.608 233.113C151.239 233.679 152.05 233.962 153.039 233.962C154.048 233.962 154.833 233.705 155.393 233.191C155.959 232.67 156.242 231.918 156.242 230.935C156.242 229.984 155.936 229.258 155.324 228.757C154.719 228.256 153.824 228.005 152.639 228.005H151.467V227.009Z" fill="#BFBFBF"/>
<path d="M190.469 230.173H192.685V231.159H190.469V234.753H189.297V231.159H182.607V230.495L189.189 220.534H190.469V230.173ZM184.043 230.173H189.297V222.048L188.779 222.947L184.043 230.173Z" fill="#BFBFBF"/>
<path d="M218.103 227.468L218.797 220.534H225.906V221.618H219.803L219.304 226.423C220.066 225.902 220.958 225.642 221.98 225.642C223.263 225.642 224.285 226.059 225.047 226.892C225.808 227.725 226.189 228.835 226.189 230.222C226.189 231.719 225.818 232.881 225.076 233.708C224.334 234.535 223.289 234.948 221.941 234.948C220.704 234.948 219.702 234.603 218.933 233.913C218.165 233.223 217.726 232.256 217.615 231.013H218.738C218.849 231.983 219.178 232.719 219.724 233.22C220.271 233.715 221.01 233.962 221.941 233.962C222.957 233.962 223.722 233.64 224.236 232.995C224.757 232.351 225.017 231.433 225.017 230.241C225.017 229.2 224.728 228.35 224.148 227.693C223.569 227.035 222.778 226.706 221.775 226.706C221.222 226.706 220.74 226.778 220.33 226.921C219.92 227.058 219.487 227.328 219.031 227.732L218.103 227.468Z" fill="#BFBFBF"/>
<path d="M258.628 220.427V221.452H258.491C256.792 221.452 255.454 221.954 254.478 222.956C253.501 223.952 252.961 225.339 252.857 227.116C253.247 226.576 253.745 226.159 254.351 225.866C254.956 225.567 255.633 225.417 256.382 225.417C257.632 225.417 258.625 225.85 259.361 226.716C260.103 227.575 260.474 228.702 260.474 230.095C260.474 231.019 260.301 231.853 259.956 232.595C259.611 233.337 259.116 233.917 258.472 234.333C257.827 234.743 257.092 234.948 256.265 234.948C254.904 234.948 253.797 234.457 252.945 233.474C252.092 232.484 251.665 231.208 251.665 229.646V228.474C251.665 225.928 252.245 223.959 253.404 222.566C254.562 221.166 256.206 220.453 258.335 220.427H258.628ZM256.197 226.423C255.454 226.423 254.761 226.644 254.116 227.087C253.478 227.523 253.052 228.08 252.837 228.757V229.753C252.837 230.99 253.153 231.999 253.784 232.781C254.422 233.562 255.249 233.952 256.265 233.952C257.176 233.952 257.912 233.591 258.472 232.868C259.038 232.146 259.322 231.234 259.322 230.134C259.322 229.014 259.038 228.116 258.472 227.439C257.912 226.762 257.154 226.423 256.197 226.423Z" fill="#FFF7F7"/>
<path d="M294.514 221.208L288.44 234.753H287.22L293.255 221.531H285.169V220.534H294.514V221.208Z" fill="#BFBFBF"/>
<path d="M27 159H347.199V207.03H27V159Z" fill="white" fill-opacity="0.01"/>
<path d="M27 159H347.199V207.03H27V159Z" stroke="#717070"/>
<path opacity="0.601619" d="M88.1604 185.865C88.1604 185.156 87.9114 184.596 87.4134 184.186C86.9153 183.77 86.0042 183.377 84.68 183.008C83.3557 182.633 82.3889 182.226 81.7796 181.787C80.9124 181.166 80.4788 180.351 80.4788 179.343C80.4788 178.365 80.8802 177.571 81.6829 176.961C82.4915 176.346 83.5227 176.039 84.7766 176.039C85.6263 176.039 86.385 176.203 87.053 176.531C87.7268 176.859 88.2483 177.316 88.6175 177.902C88.9866 178.488 89.1712 179.141 89.1712 179.862H88.0813C88.0813 178.989 87.7825 178.289 87.1848 177.761C86.5872 177.228 85.7845 176.961 84.7766 176.961C83.7981 176.961 83.0188 177.181 82.4388 177.621C81.8587 178.054 81.5686 178.623 81.5686 179.326C81.5686 179.976 81.8294 180.506 82.3509 180.917C82.8723 181.327 83.7073 181.69 84.8557 182.006C86.0042 182.317 86.8743 182.642 87.4661 182.982C88.0579 183.316 88.5032 183.717 88.802 184.186C89.1009 184.655 89.2503 185.208 89.2503 185.847C89.2503 186.855 88.846 187.664 88.0374 188.273C87.2346 188.882 86.1741 189.187 84.8557 189.187C83.9534 189.187 83.1243 189.026 82.3684 188.704C81.6184 188.381 81.0471 187.93 80.6546 187.35C80.2679 186.77 80.0745 186.105 80.0745 185.355H81.1555C81.1555 186.257 81.4925 186.969 82.1663 187.491C82.8401 188.012 83.7366 188.273 84.8557 188.273C85.8518 188.273 86.6516 188.053 87.2552 187.614C87.8587 187.174 88.1604 186.591 88.1604 185.865Z" fill="#252525"/>
<path opacity="0.601619" d="M123.979 177.137H119.594V189.011H118.512V177.137H114.136V176.214H123.979V177.137Z" fill="#252525"/>
<path opacity="0.601619" d="M158.027 183.307C158.027 184.526 157.81 185.589 157.376 186.498C156.949 187.4 156.336 188.083 155.539 188.545L157.868 190.576L157.121 191.244L154.511 188.985C154.031 189.12 153.541 189.187 153.043 189.187C152.071 189.187 151.203 188.947 150.442 188.466C149.686 187.986 149.1 187.306 148.684 186.427C148.268 185.542 148.057 184.523 148.051 183.369V181.936C148.051 180.77 148.256 179.739 148.666 178.842C149.082 177.94 149.668 177.249 150.424 176.768C151.18 176.282 152.047 176.039 153.026 176.039C154.022 176.039 154.898 176.279 155.654 176.759C156.409 177.24 156.992 177.928 157.403 178.825C157.819 179.721 158.027 180.755 158.027 181.927V183.307ZM156.946 181.918C156.946 180.377 156.597 179.17 155.9 178.297C155.202 177.424 154.244 176.988 153.026 176.988C151.842 176.988 150.896 177.427 150.187 178.306C149.484 179.179 149.132 180.401 149.132 181.971V183.307C149.132 184.825 149.481 186.029 150.178 186.919C150.881 187.804 151.836 188.247 153.043 188.247C154.262 188.247 155.217 187.81 155.908 186.937C156.6 186.064 156.946 184.845 156.946 183.281V181.918Z" fill="#252525"/>
<path opacity="0.601619" d="M192.448 183.307C192.448 184.526 192.231 185.589 191.798 186.498C191.37 187.4 190.758 188.083 189.961 188.545L192.29 190.576L191.543 191.244L188.932 188.985C188.452 189.12 187.963 189.187 187.465 189.187C186.492 189.187 185.625 188.947 184.863 188.466C184.107 187.986 183.521 187.306 183.105 186.427C182.689 185.542 182.478 184.523 182.472 183.369V181.936C182.472 180.77 182.678 179.739 183.088 178.842C183.504 177.94 184.09 177.249 184.845 176.768C185.601 176.282 186.469 176.039 187.447 176.039C188.443 176.039 189.319 176.279 190.075 176.759C190.831 177.24 191.414 177.928 191.824 178.825C192.24 179.721 192.448 180.755 192.448 181.927V183.307ZM191.367 181.918C191.367 180.377 191.018 179.17 190.321 178.297C189.624 177.424 188.666 176.988 187.447 176.988C186.263 176.988 185.317 177.427 184.608 178.306C183.905 179.179 183.553 180.401 183.553 181.971V183.307C183.553 184.825 183.902 186.029 184.599 186.919C185.303 187.804 186.258 188.247 187.465 188.247C188.683 188.247 189.638 187.81 190.33 186.937C191.021 186.064 191.367 184.845 191.367 183.281V181.918Z" fill="#252525"/>
<path opacity="0.601619" d="M225.046 185.865C225.046 185.156 224.797 184.596 224.299 184.186C223.801 183.77 222.889 183.377 221.565 183.008C220.241 182.633 219.274 182.226 218.665 181.787C217.798 181.166 217.364 180.351 217.364 179.343C217.364 178.365 217.765 177.571 218.568 176.961C219.377 176.346 220.408 176.039 221.662 176.039C222.512 176.039 223.27 176.203 223.938 176.531C224.612 176.859 225.134 177.316 225.503 177.902C225.872 178.488 226.056 179.141 226.056 179.862H224.967C224.967 178.989 224.668 178.289 224.07 177.761C223.472 177.228 222.67 176.961 221.662 176.961C220.683 176.961 219.904 177.181 219.324 177.621C218.744 178.054 218.454 178.623 218.454 179.326C218.454 179.976 218.715 180.506 219.236 180.917C219.758 181.327 220.593 181.69 221.741 182.006C222.889 182.317 223.76 182.642 224.351 182.982C224.943 183.316 225.388 183.717 225.687 184.186C225.986 184.655 226.136 185.208 226.136 185.847C226.136 186.855 225.731 187.664 224.923 188.273C224.12 188.882 223.059 189.187 221.741 189.187C220.839 189.187 220.01 189.026 219.254 188.704C218.504 188.381 217.932 187.93 217.54 187.35C217.153 186.77 216.96 186.105 216.96 185.355H218.041C218.041 186.257 218.378 186.969 219.052 187.491C219.725 188.012 220.622 188.273 221.741 188.273C222.737 188.273 223.537 188.053 224.14 187.614C224.744 187.174 225.046 186.591 225.046 185.865Z" fill="#252525"/>
<path opacity="0.601619" d="M259.467 185.865C259.467 185.156 259.218 184.596 258.72 184.186C258.222 183.77 257.311 183.377 255.987 183.008C254.662 182.633 253.696 182.226 253.086 181.787C252.219 181.166 251.785 180.351 251.785 179.343C251.785 178.365 252.187 177.571 252.99 176.961C253.798 176.346 254.829 176.039 256.083 176.039C256.933 176.039 257.692 176.203 258.36 176.531C259.033 176.859 259.555 177.316 259.924 177.902C260.293 178.488 260.478 179.141 260.478 179.862H259.388C259.388 178.989 259.089 178.289 258.491 177.761C257.894 177.228 257.091 176.961 256.083 176.961C255.105 176.961 254.325 177.181 253.745 177.621C253.165 178.054 252.875 178.623 252.875 179.326C252.875 179.976 253.136 180.506 253.658 180.917C254.179 181.327 255.014 181.69 256.162 182.006C257.311 182.317 258.181 182.642 258.773 182.982C259.365 183.316 259.81 183.717 260.109 184.186C260.408 184.655 260.557 185.208 260.557 185.847C260.557 186.855 260.153 187.664 259.344 188.273C258.541 188.882 257.481 189.187 256.162 189.187C255.26 189.187 254.431 189.026 253.675 188.704C252.925 188.381 252.354 187.93 251.961 187.35C251.574 186.77 251.381 186.105 251.381 185.355H252.462C252.462 186.257 252.799 186.969 253.473 187.491C254.147 188.012 255.043 188.273 256.162 188.273C257.158 188.273 257.958 188.053 258.562 187.614C259.165 187.174 259.467 186.591 259.467 185.865Z" fill="#252525"/>
<path opacity="0.601619" d="M285.683 189.011V176.214H289.261C290.309 176.214 291.25 176.455 292.082 176.935C292.914 177.41 293.561 178.092 294.024 178.983C294.493 179.874 294.727 180.887 294.727 182.024V183.202C294.727 184.344 294.496 185.358 294.033 186.243C293.57 187.127 292.917 187.81 292.073 188.291C291.235 188.771 290.271 189.011 289.181 189.011H285.683ZM286.764 177.137V188.097H289.19C290.538 188.097 291.619 187.652 292.433 186.761C293.248 185.865 293.655 184.655 293.655 183.131V182.006C293.655 180.536 293.254 179.358 292.451 178.473C291.648 177.588 290.591 177.143 289.278 177.137H286.764Z" fill="#252525"/>
<path fill-rule="evenodd" clip-rule="evenodd" d="M27 78H347.199V163.653H27V78Z" fill="#D8D8D8" fill-opacity="0.01"/>
<path d="M137.823 116.402L143.067 128.951L148.33 116.402H149.932V130.621H148.731V124.43L148.828 118.082L143.536 130.621H142.608L137.334 118.131L137.432 124.391V130.621H136.231V116.402H137.823ZM159.932 130.621C159.815 130.289 159.74 129.797 159.707 129.146C159.297 129.68 158.773 130.094 158.135 130.387C157.504 130.673 156.833 130.816 156.123 130.816C155.108 130.816 154.284 130.533 153.653 129.967C153.028 129.4 152.715 128.684 152.715 127.818C152.715 126.79 153.142 125.976 153.994 125.377C154.854 124.778 156.049 124.478 157.578 124.478H159.698V123.277C159.698 122.522 159.463 121.93 158.994 121.5C158.532 121.064 157.855 120.846 156.963 120.846C156.149 120.846 155.476 121.054 154.942 121.471C154.408 121.887 154.141 122.389 154.141 122.974L152.969 122.965C152.969 122.125 153.36 121.399 154.141 120.787C154.922 120.168 155.883 119.859 157.022 119.859C158.2 119.859 159.128 120.155 159.805 120.748C160.489 121.334 160.84 122.154 160.86 123.209V128.209C160.86 129.231 160.967 129.996 161.182 130.504V130.621H159.932ZM156.26 129.781C157.041 129.781 157.738 129.592 158.35 129.215C158.968 128.837 159.418 128.333 159.698 127.701V125.377H157.608C156.442 125.39 155.531 125.605 154.873 126.021C154.216 126.432 153.887 126.998 153.887 127.721C153.887 128.313 154.105 128.805 154.541 129.195C154.984 129.586 155.557 129.781 156.26 129.781ZM168.868 121.051C168.62 121.005 168.356 120.982 168.077 120.982C167.347 120.982 166.729 121.187 166.221 121.598C165.72 122.001 165.362 122.59 165.147 123.365V130.621H163.985V120.055H165.127L165.147 121.734C165.765 120.484 166.758 119.859 168.125 119.859C168.451 119.859 168.708 119.902 168.897 119.986L168.868 121.051ZM174.434 129.83C175.248 129.83 175.928 129.602 176.475 129.146C177.028 128.684 177.328 128.088 177.373 127.359H178.496C178.464 128.004 178.262 128.593 177.891 129.127C177.52 129.654 177.025 130.068 176.407 130.367C175.795 130.667 175.137 130.816 174.434 130.816C173.047 130.816 171.947 130.335 171.133 129.371C170.326 128.407 169.922 127.112 169.922 125.484V125.133C169.922 124.091 170.105 123.17 170.469 122.369C170.834 121.568 171.355 120.95 172.032 120.514C172.715 120.077 173.513 119.859 174.424 119.859C175.583 119.859 176.537 120.204 177.286 120.894C178.041 121.585 178.444 122.493 178.496 123.619H177.373C177.321 122.792 177.022 122.125 176.475 121.617C175.935 121.109 175.251 120.855 174.424 120.855C173.369 120.855 172.549 121.236 171.963 121.998C171.384 122.76 171.094 123.827 171.094 125.201V125.543C171.094 126.891 171.384 127.942 171.963 128.697C172.549 129.452 173.373 129.83 174.434 129.83ZM174.756 130.709L174.639 131.334C175.713 131.471 176.25 132.027 176.25 133.004C176.25 133.603 175.993 134.078 175.479 134.43C174.965 134.781 174.265 134.957 173.379 134.957L173.311 134.195C173.89 134.195 174.362 134.088 174.727 133.873C175.098 133.665 175.284 133.381 175.284 133.023C175.284 132.646 175.14 132.385 174.854 132.242C174.574 132.099 174.144 132.001 173.565 131.949L173.848 130.709H174.756ZM180.196 125.182C180.196 124.166 180.391 123.251 180.782 122.437C181.179 121.624 181.735 120.992 182.452 120.543C183.174 120.087 183.991 119.859 184.903 119.859C186.309 119.859 187.448 120.354 188.321 121.344C189.193 122.327 189.629 123.632 189.629 125.26V125.504C189.629 126.526 189.431 127.447 189.034 128.267C188.643 129.081 188.09 129.71 187.373 130.152C186.657 130.595 185.84 130.816 184.922 130.816C183.522 130.816 182.383 130.325 181.504 129.342C180.632 128.352 180.196 127.043 180.196 125.416V125.182ZM181.368 125.504C181.368 126.767 181.693 127.805 182.344 128.619C183.002 129.426 183.861 129.83 184.922 129.83C185.977 129.83 186.83 129.426 187.481 128.619C188.138 127.805 188.467 126.734 188.467 125.406V125.182C188.467 124.374 188.317 123.635 188.018 122.965C187.718 122.294 187.299 121.777 186.758 121.412C186.218 121.041 185.599 120.855 184.903 120.855C183.861 120.855 183.011 121.266 182.354 122.086C181.696 122.9 181.368 123.967 181.368 125.289V125.504ZM205.635 130.621H196.729V129.723L201.602 124.195C202.409 123.264 202.969 122.496 203.282 121.891C203.594 121.285 203.75 120.696 203.75 120.123C203.75 119.224 203.487 118.515 202.959 117.994C202.432 117.467 201.706 117.203 200.782 117.203C199.825 117.203 199.05 117.509 198.457 118.121C197.871 118.733 197.578 119.527 197.578 120.504H196.416C196.416 119.703 196.595 118.974 196.953 118.316C197.318 117.659 197.832 117.144 198.496 116.773C199.167 116.396 199.929 116.207 200.782 116.207C202.084 116.207 203.099 116.549 203.828 117.232C204.564 117.916 204.932 118.847 204.932 120.025C204.932 120.689 204.724 121.415 204.307 122.203C203.897 122.991 203.171 123.974 202.129 125.152L198.164 129.635H205.635V130.621ZM216.397 124.693C216.397 126.698 216.029 128.222 215.293 129.264C214.558 130.299 213.474 130.816 212.041 130.816C210.635 130.816 209.558 130.308 208.809 129.293C208.06 128.271 207.676 126.786 207.657 124.84V122.291C207.657 120.292 208.028 118.779 208.77 117.75C209.512 116.721 210.596 116.207 212.022 116.207C213.428 116.207 214.502 116.705 215.244 117.701C215.987 118.691 216.371 120.152 216.397 122.086V124.693ZM215.225 122.144C215.225 120.517 214.958 119.286 214.424 118.453C213.897 117.62 213.096 117.203 212.022 117.203C210.967 117.203 210.173 117.61 209.639 118.424C209.105 119.238 208.832 120.439 208.819 122.027V124.82C208.819 126.441 209.092 127.682 209.639 128.541C210.192 129.4 210.993 129.83 212.041 129.83C213.083 129.83 213.871 129.41 214.405 128.57C214.945 127.73 215.218 126.5 215.225 124.879V122.144ZM227.823 130.621H218.916V129.723L223.789 124.195C224.597 123.264 225.157 122.496 225.469 121.891C225.782 121.285 225.938 120.696 225.938 120.123C225.938 119.224 225.674 118.515 225.147 117.994C224.619 117.467 223.894 117.203 222.969 117.203C222.012 117.203 221.237 117.509 220.645 118.121C220.059 118.733 219.766 119.527 219.766 120.504H218.604C218.604 119.703 218.783 118.974 219.141 118.316C219.506 117.659 220.02 117.144 220.684 116.773C221.355 116.396 222.116 116.207 222.969 116.207C224.271 116.207 225.287 116.549 226.016 117.232C226.752 117.916 227.119 118.847 227.119 120.025C227.119 120.689 226.911 121.415 226.494 122.203C226.084 122.991 225.358 123.974 224.317 125.152L220.352 129.635H227.823V130.621ZM238.584 124.693C238.584 126.698 238.216 128.222 237.481 129.264C236.745 130.299 235.661 130.816 234.229 130.816C232.823 130.816 231.745 130.308 230.996 129.293C230.248 128.271 229.864 126.786 229.844 124.84V122.291C229.844 120.292 230.215 118.779 230.957 117.75C231.7 116.721 232.784 116.207 234.209 116.207C235.616 116.207 236.69 116.705 237.432 117.701C238.174 118.691 238.558 120.152 238.584 122.086V124.693ZM237.412 122.144C237.412 120.517 237.146 119.286 236.612 118.453C236.084 117.62 235.284 117.203 234.209 117.203C233.155 117.203 232.36 117.61 231.827 118.424C231.293 119.238 231.019 120.439 231.006 122.027V124.82C231.006 126.441 231.28 127.682 231.827 128.541C232.38 129.4 233.181 129.83 234.229 129.83C235.271 129.83 236.058 129.41 236.592 128.57C237.133 127.73 237.406 126.5 237.412 124.879V122.144Z" fill="#4584FF"/>
<path d="M299.97 112.822L307.175 120.026L299.97 127.231" stroke="#4584FF" stroke-linecap="round" stroke-linejoin="round"/>
<path d="M74.6299 112.822L67.4254 120.026L74.6299 127.231" stroke="#4584FF" stroke-linecap="round" stroke-linejoin="round"/>
<defs>
<linearGradient id="paint0_linear" x1="0" y1="46.5" x2="383" y2="46.5" gradientUnits="userSpaceOnUse">
<stop stop-color="#43C7FF"/>
<stop offset="0.636368" stop-color="#44A9FF"/>
<stop offset="1" stop-color="#4584FF"/>
</linearGradient>
</defs>
</svg>
