<svg width="39" height="39" viewBox="0 0 39 39" fill="none" xmlns="http://www.w3.org/2000/svg">
<g clip-path="url(#clip0)">
<path d="M19.5 39C30.2696 39 39 30.2696 39 19.5C39 8.73045 30.2696 0 19.5 0C8.73045 0 0 8.73045 0 19.5C0 30.2696 8.73045 39 19.5 39Z" fill="#FF328E"/>
<path d="M39 19.5C39 30.2692 30.2692 39 19.5 39C19.3134 39 19.1275 38.9977 18.9424 38.9924C18.3673 38.9764 17.7976 38.9353 17.2354 38.8697C16.8804 38.8286 16.5278 38.7783 16.1789 38.7174C15.0348 38.5216 13.925 38.2261 12.8586 37.8391C11.6962 37.4187 10.5848 36.89 9.53748 36.2654C9.17795 36.0522 8.82527 35.8267 8.48098 35.5898C7.8876 35.183 7.31707 34.7435 6.77396 34.2743C2.62564 30.6988 0 25.4064 0 19.5C0 8.73082 8.73082 0 19.5 0C30.2692 0 39 8.73082 39 19.5Z" fill="#8CC444"/>
<path d="M9.53741 36.2655C10.5848 36.8901 11.6961 37.4188 12.8585 37.8392C13.9249 38.2262 15.0347 38.5217 16.1788 38.7175C16.5277 38.7784 16.8804 38.8287 17.2353 38.8699C17.7975 38.9354 18.3673 38.9765 18.9423 38.9925C19.1274 38.9978 19.3133 39.0001 19.4999 39.0001C30.2691 39.0001 38.9999 30.2693 38.9999 19.5001C38.9999 17.8486 38.7937 16.2454 38.4072 14.7138L31.456 7.7541C30.1811 6.39908 28.3717 5.55273 26.3643 5.55273C22.5036 5.55273 19.3739 8.68241 19.3739 12.5431C19.3739 14.5865 20.2508 16.425 21.6487 17.7031L21.6011 17.9382L16.5203 12.8588C16.049 12.2942 15.3401 11.935 14.5472 11.935C14.0479 11.935 13.5823 12.0777 13.188 12.3242C12.9869 12.4499 12.7294 12.4499 12.5283 12.3242C12.1341 12.0777 11.6684 11.935 11.1692 11.935C9.74985 11.935 8.59935 13.0856 8.59935 14.5048C8.59935 14.5556 8.60126 14.6058 8.60415 14.6558C8.60423 14.6573 8.60309 14.6586 8.60156 14.6588C7.302 14.7867 6.28655 15.8826 6.28655 17.2159C6.28655 17.9846 6.62452 18.6739 7.15948 19.1448C7.161 19.1461 7.1607 19.1485 7.15894 19.1494C6.36257 19.586 5.82251 20.432 5.82251 21.4043C5.82251 22.2527 6.2346 23.0039 6.86858 23.4717C6.93119 23.556 6.99883 23.6362 7.07104 23.7122C6.90423 24.0498 6.8084 24.4287 6.80566 24.8301C6.80109 25.4932 7.06266 26.1 7.48709 26.5592C7.04408 27.056 6.77382 27.7097 6.77382 28.4235V34.2743C6.87703 34.3634 6.98215 34.4505 7.08734 34.5376C7.16245 34.5993 7.23771 34.6607 7.31357 34.7215C7.69169 35.0248 8.08055 35.3154 8.48083 35.5897C8.8252 35.8268 9.17788 36.0523 9.53741 36.2655Z" fill="#62961E"/>
<path d="M19.8937 21.4044C19.8937 20.4321 19.3537 19.586 18.5573 19.1494C18.5555 19.1485 18.5553 19.1462 18.5568 19.1449C19.0917 18.674 19.4297 17.9846 19.4297 17.2159C19.4297 15.8827 18.4143 14.7868 17.1147 14.6588C17.1132 14.6587 17.112 14.6574 17.1122 14.6558C17.1151 14.6059 17.117 14.5556 17.117 14.5049C17.117 13.0856 15.9664 11.9351 14.5472 11.9351C14.0479 11.9351 13.5822 12.0777 13.188 12.3242C12.9869 12.45 12.7294 12.45 12.5283 12.3242C12.1341 12.0777 11.6684 11.9351 11.1692 11.9351C9.74985 11.9351 8.59935 13.0856 8.59935 14.5049C8.59935 14.5556 8.60126 14.6058 8.60415 14.6558C8.60423 14.6574 8.60309 14.6587 8.60156 14.6588C7.302 14.7868 6.28655 15.8827 6.28655 17.2159C6.28655 17.9846 6.62452 18.674 7.15948 19.1449C7.161 19.1462 7.1607 19.1485 7.15894 19.1494C6.36257 19.586 5.82251 20.432 5.82251 21.4044C5.82251 22.3561 6.34025 23.1863 7.10905 23.6304C7.11035 23.6312 7.1108 23.6328 7.11012 23.6341C6.91862 23.9908 6.80871 24.3977 6.80574 24.8301C6.79599 26.2535 8.01116 27.4179 9.43465 27.4179H16.2817C17.7052 27.4179 18.9204 26.2535 18.9106 24.83C18.9076 24.3977 18.7977 23.9908 18.6062 23.6341C18.6054 23.6328 18.606 23.6312 18.6073 23.6304C19.376 23.1863 19.8937 22.3561 19.8937 21.4044Z" fill="#3C3B41"/>
<path d="M18.6073 23.6308C18.6063 23.6308 18.6054 23.6328 18.6063 23.6337C18.7978 23.9903 18.9072 24.3978 18.9102 24.8295C18.9209 26.2539 17.7056 27.4174 16.2822 27.4174H12.858V12.4184C12.9724 12.4184 13.0876 12.3862 13.1882 12.3237C13.582 12.0775 14.048 11.9348 14.5471 11.9348C15.9666 11.9348 17.1175 13.0856 17.1175 14.5052C17.1175 14.555 17.1155 14.6058 17.1126 14.6556C17.1126 14.6576 17.1136 14.6585 17.1146 14.6585C18.4149 14.7865 19.4299 15.8826 19.4299 17.2161C19.4299 17.984 19.0919 18.6737 18.5565 19.1446C18.5555 19.1456 18.5555 19.1485 18.5575 19.1495C19.3537 19.5862 19.894 20.4322 19.894 21.4043C19.894 22.3559 19.3761 23.1862 18.6073 23.6308Z" fill="#171719"/>
<path d="M14.5054 23.9812H11.2109V28.1371H14.5054V23.9812Z" fill="#FFC473"/>
<path d="M14.5051 23.9812H12.8578V28.1371H14.5051V23.9812Z" fill="#FFAA20"/>
<path d="M18.9424 28.4234V38.9923C18.3673 38.9763 17.7975 38.9352 17.2354 38.8697C16.8804 38.8285 16.5277 38.7782 16.1789 38.7173C15.0348 38.5216 13.9249 38.226 12.8585 37.8391C11.6962 37.4186 10.5848 36.8899 9.53744 36.2653C9.17791 36.0521 8.82523 35.8266 8.48094 35.5897C7.88756 35.1829 7.31703 34.7434 6.77393 34.2742V28.4234C6.77393 27.0874 7.71998 25.9616 8.97529 25.682C8.98748 25.679 9.00043 25.6767 9.01338 25.6736C9.02557 25.6714 9.03852 25.6683 9.05146 25.666C9.0568 25.6645 9.06137 25.6637 9.06594 25.663L9.09717 25.6569C9.09945 25.6569 9.10174 25.6561 9.10402 25.6561C9.11316 25.6546 9.12154 25.6531 9.12992 25.6523C9.14668 25.6493 9.16496 25.6462 9.18248 25.6439C9.18553 25.6432 9.1901 25.6432 9.19314 25.6424C9.19771 25.6417 9.20152 25.6416 9.20533 25.6401C9.216 25.6394 9.2259 25.6371 9.23656 25.6363C9.23809 25.6363 9.23961 25.6363 9.24113 25.6356C9.24494 25.6356 9.24875 25.6348 9.25256 25.6348C9.25789 25.634 9.26322 25.6333 9.26855 25.6325C9.29445 25.6302 9.32111 25.6272 9.34701 25.6249H9.35158C9.35996 25.6234 9.36834 25.6234 9.37672 25.6226C9.379 25.6226 9.38129 25.6218 9.38357 25.6218C9.39805 25.6218 9.41252 25.6203 9.42699 25.6196C9.45213 25.618 9.47879 25.6165 9.50469 25.6165C9.52982 25.6158 9.55572 25.615 9.58238 25.615H16.1339C16.156 25.615 16.1781 25.6158 16.1994 25.6165H16.2261C16.2299 25.6165 16.2322 25.6165 16.2352 25.6173C16.2535 25.6173 16.271 25.618 16.2886 25.6196H16.2893C16.3038 25.6203 16.3183 25.6218 16.3335 25.6218C16.335 25.6218 16.3373 25.6226 16.3396 25.6226C16.348 25.6234 16.3563 25.6234 16.3647 25.6249H16.3693C16.396 25.6264 16.4219 25.6295 16.4478 25.6325C16.4531 25.6333 16.4584 25.634 16.4637 25.6348C16.4676 25.6348 16.4714 25.6356 16.4752 25.6356C16.4767 25.6363 16.479 25.6363 16.4797 25.6363C16.4904 25.6371 16.5003 25.6394 16.511 25.6401C16.5148 25.6416 16.5186 25.6417 16.5239 25.6424C16.5262 25.6432 16.53 25.6432 16.5323 25.6439H16.5338C16.5605 25.6477 16.5864 25.6516 16.6123 25.6561C16.6146 25.6561 16.6169 25.6569 16.6191 25.6569L16.6504 25.663C16.6664 25.666 16.6824 25.6691 16.6984 25.6729C16.7083 25.6744 16.7174 25.6767 16.7273 25.679C16.7319 25.6797 16.7364 25.6813 16.741 25.682C17.9963 25.9616 18.9424 27.0874 18.9424 28.4234Z" fill="#00EFD1"/>
<path d="M18.9424 28.4234V38.9923C18.3673 38.9763 17.7975 38.9352 17.2354 38.8697C16.8804 38.8285 16.5277 38.7782 16.1789 38.7173C15.0348 38.5216 13.9249 38.226 12.8585 37.8391V25.615H16.1339C16.156 25.615 16.1781 25.6158 16.1994 25.6165H16.2261C16.2299 25.6165 16.2322 25.6165 16.2352 25.6173C16.2535 25.6173 16.271 25.618 16.2885 25.6196H16.2893C16.3038 25.6203 16.3182 25.6218 16.3335 25.6218C16.335 25.6218 16.3373 25.6226 16.3396 25.6226C16.348 25.6234 16.3563 25.6234 16.3647 25.6249H16.3693C16.3959 25.6264 16.4218 25.6295 16.4477 25.6325C16.4531 25.6333 16.4584 25.634 16.4637 25.6348C16.4675 25.6348 16.4714 25.6356 16.4752 25.6356C16.4767 25.6363 16.479 25.6363 16.4797 25.6363C16.4904 25.6371 16.5003 25.6394 16.511 25.6401C16.5148 25.6416 16.5186 25.6417 16.5239 25.6424C16.5262 25.6432 16.53 25.6432 16.5323 25.6439H16.5338C16.5605 25.6477 16.5864 25.6516 16.6123 25.6561C16.6146 25.6561 16.6168 25.6569 16.6191 25.6569L16.6504 25.663C16.6664 25.666 16.6824 25.6691 16.6983 25.6729C16.7082 25.6744 16.7174 25.6767 16.7273 25.679C16.7319 25.6797 16.7364 25.6813 16.741 25.682C17.9963 25.9616 18.9424 27.0874 18.9424 28.4234Z" fill="#00CEB4"/>
<path d="M9.53746 30.1228V36.2653C9.17793 36.052 8.82525 35.8266 8.48096 35.5897V30.1228H9.53746Z" fill="#00CEB4"/>
<path d="M17.2353 30.1228V38.8696C16.8804 38.8285 16.5277 38.7782 16.1788 38.7173V30.1228H17.2353Z" fill="#00AD95"/>
<path d="M17.0987 18.4986C16.9217 15.8923 14.699 14.4131 12.8583 14.4131C11.0176 14.4131 8.79491 15.8923 8.61788 18.4986C8.14158 18.5878 7.80353 19.0329 7.85655 19.5224L7.93858 20.2797C7.99427 20.7935 8.46013 21.1683 8.97391 21.1126L9.06242 21.103C10.1141 23.8407 11.8114 24.5456 12.8584 24.7057C13.9054 24.5456 15.6026 23.8407 16.6544 21.103L16.7429 21.1126C17.2567 21.1683 17.7226 20.7935 17.7782 20.2797L17.8602 19.5224C17.913 19.0329 17.575 18.5878 17.0987 18.4986Z" fill="#FFDBA9"/>
<path d="M17.8601 19.5223L17.778 20.2798C17.7222 20.7935 17.2565 21.1682 16.7428 21.1127L16.654 21.1031C15.6025 23.8408 13.9052 24.5454 12.8582 24.7055V14.4131C14.6738 14.4131 16.8611 15.8522 17.0904 18.3928C17.0938 18.4294 17.0964 18.4645 17.0986 18.4986C17.5749 18.5877 17.913 19.033 17.8601 19.5223Z" fill="#FFC473"/>
<path d="M12.8585 18.8196V21.7551H13.7155V19.6766H15.5823V18.8196H12.8585Z" fill="#FFA91F"/>
<path d="M12.2562 18.8198H10.0707V19.6768H12.2562V18.8198Z" fill="#FFC473"/>
<path d="M8.6178 18.4985C8.6178 18.4985 11.0913 18.4621 12.8581 16.5353H12.8583C14.6252 18.4621 17.0986 18.4985 17.0986 18.4985C17.0986 16.5191 17.0988 13.6814 12.8583 13.6814C8.6178 13.6814 8.6178 16.5189 8.6178 18.4985Z" fill="#57555C"/>
<path d="M17.0984 18.4984C17.0984 18.4984 16.4801 18.4894 15.641 18.2396C14.8016 17.9894 13.7416 17.4987 12.8582 16.5353V13.6814C17.0989 13.6814 17.0984 16.5193 17.0984 18.4984Z" fill="#3C3B41"/>
<path d="M26.3644 5.55273C22.5037 5.55273 19.374 8.68248 19.374 12.5431C19.374 14.5865 20.2509 16.425 21.6488 17.7031L21.2775 19.5335L23.6136 18.9711C24.4579 19.3329 25.3877 19.5335 26.3644 19.5335C30.2251 19.5335 33.3548 16.4037 33.3548 12.5431C33.3548 8.68248 30.2251 5.55273 26.3644 5.55273Z" fill="white"/>
<path d="M33.3546 12.5427C33.3546 16.4036 30.2251 19.5331 26.3641 19.5331V5.55225C30.2251 5.55225 33.3546 8.68238 33.3546 12.5427Z" fill="#FFF5CB"/>
<path d="M26.3646 17.0235C28.8389 17.0235 30.8448 15.0177 30.8448 12.5433C30.8448 10.0689 28.8389 8.06299 26.3646 8.06299C23.8902 8.06299 21.8843 10.0689 21.8843 12.5433C21.8843 15.0177 23.8902 17.0235 26.3646 17.0235Z" fill="#FFE670"/>
<path d="M30.8447 12.5431C30.8447 15.0177 28.8386 17.0232 26.364 17.0232V8.06299C28.8386 8.06299 30.8447 10.0684 30.8447 12.5431Z" fill="#FFD400"/>
<path d="M24.6233 12.2613C25.0482 12.2613 25.3927 11.9169 25.3927 11.492C25.3927 11.0671 25.0482 10.7227 24.6233 10.7227C24.1984 10.7227 23.854 11.0671 23.854 11.492C23.854 11.9169 24.1984 12.2613 24.6233 12.2613Z" fill="#AB3CCC"/>
<path d="M28.1052 12.2613C28.5301 12.2613 28.8745 11.9169 28.8745 11.492C28.8745 11.0671 28.5301 10.7227 28.1052 10.7227C27.6803 10.7227 27.3358 11.0671 27.3358 11.492C27.3358 11.9169 27.6803 12.2613 28.1052 12.2613Z" fill="#681F7B"/>
<path d="M26.3642 15.4409C27.5208 15.4409 28.5061 14.647 28.8804 13.5352H23.848C24.2224 14.647 25.2076 15.4409 26.3642 15.4409Z" fill="#AB3CCC"/>
<path d="M28.8806 13.5352C28.5063 14.6472 27.5207 15.441 26.364 15.441V13.5352H28.8806Z" fill="#681F7B"/>
</g>
<defs>
<clipPath id="clip0">
<rect width="39" height="39" fill="white"/>
</clipPath>
</defs>
</svg>
