<svg width="40" height="40" viewBox="0 0 40 40" fill="none" xmlns="http://www.w3.org/2000/svg">
<path d="M20 40C31.0457 40 40 31.0457 40 20C40 8.9543 31.0457 0 20 0C8.9543 0 0 8.9543 0 20C0 31.0457 8.9543 40 20 40Z" fill="#FF328E"/>
<path d="M19.9999 40C31.0456 40 39.9999 31.0457 39.9999 20C39.9999 19.4703 39.9789 18.9455 39.9385 18.4263L30.9505 9.4382C29.422 7.76703 27.2238 6.71875 24.7806 6.71875C23.0027 6.71875 21.3546 7.2743 19.9998 8.22062C18.6449 7.2743 16.997 6.71875 15.219 6.71875C10.6023 6.71875 6.85962 10.4614 6.85962 15.0781C6.85962 17.3633 7.77673 19.4341 9.26267 20.943L12.9406 24.6199C12.6994 24.6151 12.4535 24.6557 12.2085 24.7773C12.0148 24.8734 6.69736 27.5059 2.45447 29.6059C5.85306 35.8003 12.4358 40 19.9999 40Z" fill="#C50A5B"/>
<path d="M30.4554 28.9571L22.328 32.9876C20.8327 33.7298 19.0952 34.536 17.4257 34.061C15.3312 33.4642 15.1194 33.5845 13.9976 34.1415L8.921 36.6532C6.72568 35.1899 4.83662 33.3048 3.36865 31.1126L12.464 26.6103C12.6093 26.5384 12.7733 26.5228 12.9194 26.5681L20.4866 28.8665C20.6327 28.911 20.7968 28.8954 20.9413 28.8243L28.5241 25.0626C29.6507 24.5032 30.9546 24.8017 31.5585 25.7165C31.6022 25.7821 31.6421 25.8524 31.678 25.9243C32.2108 27.0001 31.664 28.3571 30.4554 28.9571Z" fill="#FFDBA9"/>
<path d="M20.9415 28.7273C20.629 29.5859 19.4782 30.0109 18.6055 29.7414C18.6055 29.7414 16.7571 29.1695 16.7493 29.1671L12.8993 27.9734L4.20945 32.275C3.9157 31.8984 3.63523 31.5101 3.36882 31.1125C3.04226 30.625 2.73679 30.1226 2.45398 29.6062C6.69695 27.5062 12.0149 24.8734 12.2087 24.7773C12.9071 24.4304 13.6134 24.7335 14.1946 24.9124C14.5665 25.0281 19.743 26.6195 19.743 26.6195C20.1516 26.746 20.5087 27.0281 20.7407 27.3796C21.0048 27.7804 21.1087 28.271 20.9415 28.7273Z" fill="#FFC473"/>
<path d="M24.7805 23.4375C29.3973 23.4375 33.1399 19.6949 33.1399 15.0781C33.1399 10.4614 29.3973 6.71875 24.7805 6.71875C20.1638 6.71875 16.4211 10.4614 16.4211 15.0781C16.4211 19.6949 20.1638 23.4375 24.7805 23.4375Z" fill="#FEC000"/>
<path d="M33.1403 15.0781C33.1403 19.6953 29.3973 23.4374 24.7811 23.4374V6.71899C29.3973 6.71899 33.1403 10.4609 33.1403 15.0781Z" fill="#FF9A00"/>
<path d="M21.5329 14.553C22.3259 14.553 22.9688 13.9101 22.9688 13.1171C22.9688 12.324 22.3259 11.6812 21.5329 11.6812C20.7398 11.6812 20.0969 12.324 20.0969 13.1171C20.0969 13.9101 20.7398 14.553 21.5329 14.553Z" fill="#AB3CCC"/>
<path d="M28.0288 14.553C28.8219 14.553 29.4648 13.9101 29.4648 13.1171C29.4648 12.324 28.8219 11.6812 28.0288 11.6812C27.2358 11.6812 26.5929 12.324 26.5929 13.1171C26.5929 13.9101 27.2358 14.553 28.0288 14.553Z" fill="#451152"/>
<path d="M24.7807 20.4854C26.9387 20.4854 28.7771 19.0041 29.4755 16.9297H20.0859C20.7844 19.0041 22.6227 20.4854 24.7807 20.4854Z" fill="#AB3CCC"/>
<path d="M29.4756 16.9294C28.7772 19.0042 26.9393 20.4854 24.7811 20.4854V16.9294H29.4756Z" fill="#451152"/>
<path d="M15.2187 23.4375C19.8355 23.4375 23.5781 19.6949 23.5781 15.0781C23.5781 10.4614 19.8355 6.71875 15.2187 6.71875C10.602 6.71875 6.85938 10.4614 6.85938 15.0781C6.85938 19.6949 10.602 23.4375 15.2187 23.4375Z" fill="#FFE670"/>
<path d="M23.5789 15.0781C23.5789 19.6953 19.8359 23.4374 15.2186 23.4374V6.71899C19.8359 6.71899 23.5789 10.4609 23.5789 15.0781Z" fill="#FFD400"/>
<path d="M11.9711 14.553C12.7641 14.553 13.407 13.9101 13.407 13.1171C13.407 12.324 12.7641 11.6812 11.9711 11.6812C11.178 11.6812 10.5352 12.324 10.5352 13.1171C10.5352 13.9101 11.178 14.553 11.9711 14.553Z" fill="#AB3CCC"/>
<path d="M18.4672 14.553C19.2602 14.553 19.9031 13.9101 19.9031 13.1171C19.9031 12.324 19.2602 11.6812 18.4672 11.6812C17.6741 11.6812 17.0312 12.324 17.0312 13.1171C17.0312 13.9101 17.6741 14.553 18.4672 14.553Z" fill="#681F7B"/>
<path d="M15.2191 20.4854C17.3771 20.4854 19.2154 19.0041 19.9138 16.9297H10.5243C11.2227 19.0041 13.0609 20.4854 15.2191 20.4854Z" fill="#AB3CCC"/>
<path d="M19.9142 16.9294C19.2159 19.0042 17.3769 20.4854 15.2188 20.4854V16.9294H19.9142Z" fill="#681F7B"/>
</svg>
