<svg width="355" height="187" viewBox="0 0 355 187" fill="none" xmlns="http://www.w3.org/2000/svg">
<g filter="url(#filter0_d)">
<rect x="10" y="10" width="335" height="167" rx="25" fill="white"/>
</g>
<path d="M48.0396 60.6343L51.8989 49.4922H53.8472L48.8374 63H47.2603L42.2598 49.4922H44.1987L48.0396 60.6343ZM54.5151 57.8882C54.5151 56.9048 54.7069 56.0203 55.0903 55.2349C55.48 54.4494 56.0181 53.8433 56.7046 53.4165C57.3973 52.9897 58.1859 52.7764 59.0703 52.7764C60.4372 52.7764 61.5412 53.2495 62.3823 54.1958C63.2297 55.1421 63.6533 56.4007 63.6533 57.9717V58.0923C63.6533 59.0695 63.4647 59.9478 63.0874 60.7271C62.7163 61.5002 62.1813 62.1032 61.4824 62.5361C60.7897 62.9691 59.9919 63.1855 59.0889 63.1855C57.7282 63.1855 56.6242 62.7124 55.7769 61.7661C54.9357 60.8198 54.5151 59.5674 54.5151 58.0088V57.8882ZM56.2407 58.0923C56.2407 59.2056 56.4974 60.0993 57.0107 60.7734C57.5303 61.4476 58.223 61.7847 59.0889 61.7847C59.9609 61.7847 60.6536 61.4445 61.167 60.7642C61.6803 60.0776 61.937 59.119 61.937 57.8882C61.937 56.7873 61.6742 55.8966 61.1484 55.2163C60.6289 54.5298 59.9362 54.1865 59.0703 54.1865C58.223 54.1865 57.5396 54.5236 57.02 55.1978C56.5005 55.8719 56.2407 56.8368 56.2407 58.0923ZM69.832 61.7847C70.4443 61.7847 70.9793 61.5991 71.437 61.228C71.8947 60.8569 72.1483 60.3931 72.1978 59.8364H73.8213C73.7904 60.4116 73.5924 60.959 73.2275 61.4785C72.8626 61.998 72.374 62.4124 71.7617 62.7217C71.1556 63.0309 70.5124 63.1855 69.832 63.1855C68.4652 63.1855 67.3766 62.731 66.5664 61.8218C65.7624 60.9064 65.3604 59.6571 65.3604 58.0737V57.7861C65.3604 56.8089 65.5397 55.9399 65.8984 55.1792C66.2572 54.4185 66.7705 53.8278 67.4385 53.4072C68.1126 52.9867 68.9074 52.7764 69.8228 52.7764C70.9484 52.7764 71.8823 53.1134 72.6245 53.7876C73.3729 54.4618 73.7718 55.3369 73.8213 56.4131H72.1978C72.1483 55.7637 71.9009 55.2318 71.4556 54.8174C71.0164 54.3968 70.4722 54.1865 69.8228 54.1865C68.9507 54.1865 68.2734 54.502 67.791 55.1328C67.3148 55.7575 67.0767 56.6636 67.0767 57.8511V58.1758C67.0767 59.3324 67.3148 60.223 67.791 60.8477C68.2673 61.4723 68.9476 61.7847 69.832 61.7847ZM79.9165 63.1855C78.5558 63.1855 77.4487 62.7402 76.5952 61.8496C75.7417 60.9528 75.3149 59.756 75.3149 58.2593V57.9438C75.3149 56.9481 75.5036 56.0605 75.8809 55.2812C76.2643 54.4958 76.7962 53.8835 77.4766 53.4443C78.1631 52.999 78.9053 52.7764 79.7031 52.7764C81.0081 52.7764 82.0225 53.2062 82.7461 54.0659C83.4697 54.9256 83.8315 56.1564 83.8315 57.7583V58.4727H77.0312C77.056 59.4622 77.3436 60.2632 77.894 60.8755C78.4507 61.4816 79.1558 61.7847 80.0093 61.7847C80.6154 61.7847 81.1287 61.661 81.5493 61.4136C81.9699 61.1662 82.3379 60.8384 82.6533 60.4302L83.7017 61.2466C82.8605 62.5392 81.5988 63.1855 79.9165 63.1855ZM79.7031 54.1865C79.0104 54.1865 78.429 54.4401 77.959 54.9473C77.4889 55.4482 77.1982 56.1533 77.0869 57.0625H82.1152V56.9326C82.0658 56.0605 81.8307 55.3864 81.4102 54.9102C80.9896 54.4277 80.4206 54.1865 79.7031 54.1865ZM82.5049 51.292V51.3848H81.0854L79.6938 49.8076L78.3115 51.3848H76.8921V51.2734L79.1743 48.75H80.2134L82.5049 51.292ZM91.3833 63V54.2886H89.7969V52.9619H91.3833V51.9321C91.3833 50.856 91.6709 50.0241 92.2461 49.4365C92.8213 48.849 93.6346 48.5552 94.686 48.5552C95.0819 48.5552 95.4746 48.6077 95.8643 48.7129L95.7715 50.1045C95.4808 50.0488 95.1715 50.021 94.8438 50.021C94.2871 50.021 93.8573 50.1849 93.5542 50.5127C93.2511 50.8343 93.0996 51.2982 93.0996 51.9043V52.9619H95.2427V54.2886H93.0996V63H91.3833ZM96.6899 57.8882C96.6899 56.9048 96.8817 56.0203 97.2651 55.2349C97.6548 54.4494 98.1929 53.8433 98.8794 53.4165C99.5721 52.9897 100.361 52.7764 101.245 52.7764C102.612 52.7764 103.716 53.2495 104.557 54.1958C105.404 55.1421 105.828 56.4007 105.828 57.9717V58.0923C105.828 59.0695 105.639 59.9478 105.262 60.7271C104.891 61.5002 104.356 62.1032 103.657 62.5361C102.965 62.9691 102.167 63.1855 101.264 63.1855C99.903 63.1855 98.799 62.7124 97.9517 61.7661C97.1105 60.8198 96.6899 59.5674 96.6899 58.0088V57.8882ZM98.4155 58.0923C98.4155 59.2056 98.6722 60.0993 99.1855 60.7734C99.7051 61.4476 100.398 61.7847 101.264 61.7847C102.136 61.7847 102.828 61.4445 103.342 60.7642C103.855 60.0776 104.112 59.119 104.112 57.8882C104.112 56.7873 103.849 55.8966 103.323 55.2163C102.804 54.5298 102.111 54.1865 101.245 54.1865C100.398 54.1865 99.7144 54.5236 99.1948 55.1978C98.6753 55.8719 98.4155 56.8368 98.4155 58.0923ZM109.845 63H108.129V52.9619H109.845V63ZM107.99 50.2993C107.99 50.021 108.073 49.786 108.24 49.5942C108.413 49.4025 108.667 49.3066 109.001 49.3066C109.335 49.3066 109.589 49.4025 109.762 49.5942C109.935 49.786 110.021 50.021 110.021 50.2993C110.021 50.5776 109.935 50.8096 109.762 50.9951C109.589 51.1807 109.335 51.2734 109.001 51.2734C108.667 51.2734 108.413 51.1807 108.24 50.9951C108.073 50.8096 107.99 50.5776 107.99 50.2993ZM123.511 63C123.412 62.8021 123.331 62.4495 123.27 61.9424C122.472 62.7712 121.519 63.1855 120.412 63.1855C119.423 63.1855 118.609 62.9072 117.972 62.3506C117.341 61.7878 117.026 61.0765 117.026 60.2168C117.026 59.1715 117.422 58.3613 118.213 57.7861C119.011 57.2048 120.131 56.9141 121.572 56.9141H123.242V56.1255C123.242 55.5256 123.062 55.0493 122.704 54.6968C122.345 54.3381 121.816 54.1587 121.117 54.1587C120.505 54.1587 119.992 54.3133 119.577 54.6226C119.163 54.9318 118.956 55.306 118.956 55.7451H117.23C117.23 55.2441 117.406 54.7617 117.759 54.2979C118.118 53.8278 118.6 53.4567 119.206 53.1846C119.818 52.9124 120.489 52.7764 121.219 52.7764C122.376 52.7764 123.282 53.0671 123.938 53.6484C124.593 54.2236 124.933 55.0184 124.958 56.0327V60.6528C124.958 61.5744 125.076 62.3073 125.311 62.8516V63H123.511ZM120.663 61.6919C121.201 61.6919 121.711 61.5527 122.193 61.2744C122.676 60.9961 123.025 60.6343 123.242 60.189V58.1294H121.896C119.794 58.1294 118.742 58.7448 118.742 59.9756C118.742 60.5137 118.922 60.9342 119.28 61.2373C119.639 61.5404 120.1 61.6919 120.663 61.6919ZM129.977 50.5312V52.9619H131.851V54.2886H129.977V60.5137C129.977 60.9157 130.061 61.2188 130.228 61.4229C130.395 61.6208 130.679 61.7197 131.081 61.7197C131.279 61.7197 131.551 61.6826 131.897 61.6084V63C131.446 63.1237 131.007 63.1855 130.58 63.1855C129.813 63.1855 129.235 62.9536 128.845 62.4897C128.456 62.0259 128.261 61.3672 128.261 60.5137V54.2886H126.433V52.9619H128.261V50.5312H129.977ZM138.03 63.1855C136.669 63.1855 135.562 62.7402 134.708 61.8496C133.855 60.9528 133.428 59.756 133.428 58.2593V57.9438C133.428 56.9481 133.617 56.0605 133.994 55.2812C134.378 54.4958 134.91 53.8835 135.59 53.4443C136.276 52.999 137.019 52.7764 137.816 52.7764C139.121 52.7764 140.136 53.2062 140.859 54.0659C141.583 54.9256 141.945 56.1564 141.945 57.7583V58.4727H135.145C135.169 59.4622 135.457 60.2632 136.007 60.8755C136.564 61.4816 137.269 61.7847 138.123 61.7847C138.729 61.7847 139.242 61.661 139.663 61.4136C140.083 61.1662 140.451 60.8384 140.767 60.4302L141.815 61.2466C140.974 62.5392 139.712 63.1855 138.03 63.1855ZM137.816 54.1865C137.124 54.1865 136.542 54.4401 136.072 54.9473C135.602 55.4482 135.312 56.1533 135.2 57.0625H140.229V56.9326C140.179 56.0605 139.944 55.3864 139.523 54.9102C139.103 54.4277 138.534 54.1865 137.816 54.1865ZM145.563 52.9619L145.619 54.2236C146.386 53.2588 147.388 52.7764 148.625 52.7764C150.746 52.7764 151.816 53.9731 151.834 56.3667V63H150.118V56.3574C150.112 55.6338 149.945 55.0988 149.617 54.7524C149.296 54.4061 148.792 54.2329 148.105 54.2329C147.548 54.2329 147.06 54.3813 146.639 54.6782C146.219 54.9751 145.891 55.3647 145.656 55.8472V63H143.939V52.9619H145.563ZM154.005 57.8975C154.005 56.3574 154.37 55.1204 155.1 54.1865C155.83 53.2464 156.785 52.7764 157.967 52.7764C159.142 52.7764 160.073 53.1784 160.759 53.9824V48.75H162.476V63H160.898L160.815 61.9238C160.128 62.765 159.173 63.1855 157.948 63.1855C156.785 63.1855 155.836 62.7093 155.1 61.7568C154.37 60.8044 154.005 59.5612 154.005 58.0273V57.8975ZM155.722 58.0923C155.722 59.2303 155.957 60.1209 156.427 60.7642C156.897 61.4074 157.546 61.729 158.375 61.729C159.464 61.729 160.258 61.2404 160.759 60.2632V55.6523C160.246 54.7061 159.457 54.2329 158.394 54.2329C157.552 54.2329 156.897 54.5576 156.427 55.207C155.957 55.8564 155.722 56.8182 155.722 58.0923ZM167.012 63H165.296V52.9619H167.012V63ZM165.157 50.2993C165.157 50.021 165.24 49.786 165.407 49.5942C165.58 49.4025 165.834 49.3066 166.168 49.3066C166.502 49.3066 166.756 49.4025 166.929 49.5942C167.102 49.786 167.188 50.021 167.188 50.2993C167.188 50.5776 167.102 50.8096 166.929 50.9951C166.756 51.1807 166.502 51.2734 166.168 51.2734C165.834 51.2734 165.58 51.1807 165.407 50.9951C165.24 50.8096 165.157 50.5776 165.157 50.2993ZM169.35 57.8975C169.35 56.3574 169.715 55.1204 170.445 54.1865C171.175 53.2464 172.13 52.7764 173.312 52.7764C174.487 52.7764 175.417 53.1784 176.104 53.9824V48.75H177.82V63H176.243L176.16 61.9238C175.473 62.765 174.518 63.1855 173.293 63.1855C172.13 63.1855 171.181 62.7093 170.445 61.7568C169.715 60.8044 169.35 59.5612 169.35 58.0273V57.8975ZM171.066 58.0923C171.066 59.2303 171.301 60.1209 171.771 60.7642C172.242 61.4074 172.891 61.729 173.72 61.729C174.808 61.729 175.603 61.2404 176.104 60.2632V55.6523C175.591 54.7061 174.802 54.2329 173.738 54.2329C172.897 54.2329 172.242 54.5576 171.771 55.207C171.301 55.8564 171.066 56.8182 171.066 58.0923ZM180.038 57.8882C180.038 56.9048 180.229 56.0203 180.613 55.2349C181.002 54.4494 181.541 53.8433 182.227 53.4165C182.92 52.9897 183.708 52.7764 184.593 52.7764C185.96 52.7764 187.064 53.2495 187.905 54.1958C188.752 55.1421 189.176 56.4007 189.176 57.9717V58.0923C189.176 59.0695 188.987 59.9478 188.61 60.7271C188.239 61.5002 187.704 62.1032 187.005 62.5361C186.312 62.9691 185.514 63.1855 184.611 63.1855C183.251 63.1855 182.147 62.7124 181.299 61.7661C180.458 60.8198 180.038 59.5674 180.038 58.0088V57.8882ZM181.763 58.0923C181.763 59.2056 182.02 60.0993 182.533 60.7734C183.053 61.4476 183.745 61.7847 184.611 61.7847C185.483 61.7847 186.176 61.4445 186.689 60.7642C187.203 60.0776 187.459 59.119 187.459 57.8882C187.459 56.7873 187.197 55.8966 186.671 55.2163C186.151 54.5298 185.459 54.1865 184.593 54.1865C183.745 54.1865 183.062 54.5236 182.542 55.1978C182.023 55.8719 181.763 56.8368 181.763 58.0923Z" fill="#458AFF"/>
<path d="M48.7163 87.3711H51.3481C52.6014 87.3711 53.5299 87.0578 54.1338 86.4312C54.7376 85.8045 55.0396 84.9728 55.0396 83.936C55.0396 82.9334 54.7376 82.153 54.1338 81.5947C53.5413 81.0365 52.721 80.7573 51.6729 80.7573C50.7272 80.7573 49.9354 81.0194 49.2974 81.5435C48.6593 82.0562 48.3403 82.7284 48.3403 83.5601H43.4014C43.4014 82.2612 43.7489 81.0991 44.4438 80.0737C45.1502 79.0369 46.13 78.228 47.3833 77.647C48.6479 77.0659 50.0379 76.7754 51.5532 76.7754C54.1851 76.7754 56.2472 77.4077 57.7397 78.6724C59.2323 79.9256 59.9785 81.6574 59.9785 83.8677C59.9785 85.007 59.631 86.0552 58.936 87.0122C58.241 87.9692 57.3296 88.7041 56.2017 89.2168C57.603 89.7181 58.6455 90.4701 59.3291 91.4727C60.0241 92.4753 60.3716 93.6602 60.3716 95.0273C60.3716 97.2376 59.5627 99.0093 57.9448 100.342C56.3384 101.675 54.2078 102.342 51.5532 102.342C49.0695 102.342 47.0358 101.687 45.4521 100.376C43.8799 99.0662 43.0938 97.3345 43.0938 95.1812H48.0327C48.0327 96.1154 48.3802 96.8787 49.0752 97.4712C49.7816 98.0636 50.6475 98.3599 51.6729 98.3599C52.8464 98.3599 53.7635 98.0522 54.4243 97.437C55.0965 96.8104 55.4326 95.9844 55.4326 94.959C55.4326 92.4753 54.0654 91.2334 51.3311 91.2334H48.7163V87.3711ZM79.6318 95.9673L83.0669 83.5088H88.228L81.9902 102H77.2734L71.0356 83.5088H76.1968L79.6318 95.9673ZM98.687 102.342C95.9754 102.342 93.7651 101.51 92.0562 99.8467C90.3586 98.1833 89.5098 95.9673 89.5098 93.1987V92.7202C89.5098 90.8631 89.8687 89.2054 90.5864 87.7471C91.3042 86.2773 92.3182 85.1494 93.6284 84.3633C94.95 83.5658 96.4539 83.167 98.1401 83.167C100.669 83.167 102.658 83.9645 104.104 85.5596C105.563 87.1546 106.292 89.4162 106.292 92.3442V94.3608H94.5171C94.6766 95.5685 95.1551 96.5369 95.9526 97.2661C96.7616 97.9953 97.7812 98.3599 99.0117 98.3599C100.914 98.3599 102.401 97.6706 103.472 96.292L105.899 99.0093C105.158 100.057 104.156 100.878 102.891 101.47C101.626 102.051 100.225 102.342 98.687 102.342ZM98.123 87.166C97.1432 87.166 96.3457 87.4964 95.7305 88.1572C95.1266 88.818 94.7393 89.7637 94.5684 90.9941H101.438V90.6011C101.416 89.5073 101.119 88.6642 100.55 88.0718C99.9801 87.4679 99.1712 87.166 98.123 87.166ZM114.786 98.0181H123.826V102H108.479V98.9922L117.178 87.5078H108.736V83.5088H123.553V86.4312L114.786 98.0181ZM135.157 102.342C132.445 102.342 130.235 101.51 128.526 99.8467C126.828 98.1833 125.979 95.9673 125.979 93.1987V92.7202C125.979 90.8631 126.338 89.2054 127.056 87.7471C127.774 86.2773 128.788 85.1494 130.098 84.3633C131.42 83.5658 132.924 83.167 134.61 83.167C137.139 83.167 139.127 83.9645 140.574 85.5596C142.033 87.1546 142.762 89.4162 142.762 92.3442V94.3608H130.987C131.146 95.5685 131.625 96.5369 132.422 97.2661C133.231 97.9953 134.251 98.3599 135.481 98.3599C137.384 98.3599 138.871 97.6706 139.942 96.292L142.369 99.0093C141.628 100.057 140.625 100.878 139.361 101.47C138.096 102.051 136.695 102.342 135.157 102.342ZM134.593 87.166C133.613 87.166 132.815 87.4964 132.2 88.1572C131.596 88.818 131.209 89.7637 131.038 90.9941H137.908V90.6011C137.885 89.5073 137.589 88.6642 137.02 88.0718C136.45 87.4679 135.641 87.166 134.593 87.166ZM155.596 96.8901C155.596 96.2863 155.294 95.8135 154.69 95.4717C154.098 95.1185 153.141 94.8052 151.819 94.5317C147.422 93.6089 145.223 91.7404 145.223 88.9263C145.223 87.2856 145.901 85.9185 147.256 84.8247C148.624 83.7196 150.407 83.167 152.605 83.167C154.952 83.167 156.827 83.7196 158.228 84.8247C159.641 85.9299 160.347 87.3654 160.347 89.1313H155.408C155.408 88.425 155.18 87.8439 154.725 87.3882C154.269 86.9211 153.557 86.6875 152.588 86.6875C151.757 86.6875 151.113 86.8755 150.657 87.2515C150.201 87.6274 149.974 88.106 149.974 88.687C149.974 89.2339 150.23 89.6782 150.743 90.02C151.267 90.3504 152.144 90.641 153.375 90.8916C154.605 91.1309 155.642 91.4043 156.485 91.7119C159.094 92.6689 160.398 94.3267 160.398 96.6851C160.398 98.3713 159.675 99.7384 158.228 100.787C156.781 101.823 154.913 102.342 152.623 102.342C151.073 102.342 149.694 102.068 148.487 101.521C147.291 100.963 146.351 100.206 145.667 99.2485C144.983 98.2801 144.642 97.2376 144.642 96.1211H149.324C149.37 96.9984 149.694 97.6706 150.298 98.1377C150.902 98.6048 151.711 98.8384 152.725 98.8384C153.671 98.8384 154.383 98.6618 154.861 98.3086C155.351 97.944 155.596 97.4712 155.596 96.8901ZM180.821 102.342C178.109 102.342 175.899 101.51 174.19 99.8467C172.492 98.1833 171.644 95.9673 171.644 93.1987V92.7202C171.644 90.8631 172.002 89.2054 172.72 87.7471C173.438 86.2773 174.452 85.1494 175.762 84.3633C177.084 83.5658 178.588 83.167 180.274 83.167C182.803 83.167 184.791 83.9645 186.238 85.5596C187.697 87.1546 188.426 89.4162 188.426 92.3442V94.3608H176.651C176.81 95.5685 177.289 96.5369 178.086 97.2661C178.895 97.9953 179.915 98.3599 181.146 98.3599C183.048 98.3599 184.535 97.6706 185.606 96.292L188.033 99.0093C187.292 100.057 186.29 100.878 185.025 101.47C183.76 102.051 182.359 102.342 180.821 102.342ZM180.257 87.166C179.277 87.166 178.479 87.4964 177.864 88.1572C177.26 88.818 176.873 89.7637 176.702 90.9941H183.572V90.6011C183.549 89.5073 183.253 88.6642 182.684 88.0718C182.114 87.4679 181.305 87.166 180.257 87.166ZM201.26 96.8901C201.26 96.2863 200.958 95.8135 200.354 95.4717C199.762 95.1185 198.805 94.8052 197.483 94.5317C193.086 93.6089 190.887 91.7404 190.887 88.9263C190.887 87.2856 191.565 85.9185 192.92 84.8247C194.288 83.7196 196.071 83.167 198.27 83.167C200.617 83.167 202.491 83.7196 203.892 84.8247C205.305 85.9299 206.011 87.3654 206.011 89.1313H201.072C201.072 88.425 200.844 87.8439 200.389 87.3882C199.933 86.9211 199.221 86.6875 198.252 86.6875C197.421 86.6875 196.777 86.8755 196.321 87.2515C195.866 87.6274 195.638 88.106 195.638 88.687C195.638 89.2339 195.894 89.6782 196.407 90.02C196.931 90.3504 197.808 90.641 199.039 90.8916C200.269 91.1309 201.306 91.4043 202.149 91.7119C204.758 92.6689 206.062 94.3267 206.062 96.6851C206.062 98.3713 205.339 99.7384 203.892 100.787C202.445 101.823 200.577 102.342 198.287 102.342C196.737 102.342 195.359 102.068 194.151 101.521C192.955 100.963 192.015 100.206 191.331 99.2485C190.647 98.2801 190.306 97.2376 190.306 96.1211H194.988C195.034 96.9984 195.359 97.6706 195.962 98.1377C196.566 98.6048 197.375 98.8384 198.389 98.8384C199.335 98.8384 200.047 98.6618 200.525 98.3086C201.015 97.944 201.26 97.4712 201.26 96.8901ZM219.273 96.8901C219.273 96.2863 218.971 95.8135 218.367 95.4717C217.775 95.1185 216.818 94.8052 215.496 94.5317C211.098 93.6089 208.899 91.7404 208.899 88.9263C208.899 87.2856 209.577 85.9185 210.933 84.8247C212.3 83.7196 214.083 83.167 216.282 83.167C218.629 83.167 220.503 83.7196 221.905 84.8247C223.318 85.9299 224.024 87.3654 224.024 89.1313H219.085C219.085 88.425 218.857 87.8439 218.401 87.3882C217.946 86.9211 217.234 86.6875 216.265 86.6875C215.433 86.6875 214.79 86.8755 214.334 87.2515C213.878 87.6274 213.65 88.106 213.65 88.687C213.65 89.2339 213.907 89.6782 214.419 90.02C214.944 90.3504 215.821 90.641 217.051 90.8916C218.282 91.1309 219.319 91.4043 220.162 91.7119C222.771 92.6689 224.075 94.3267 224.075 96.6851C224.075 98.3713 223.352 99.7384 221.905 100.787C220.458 101.823 218.589 102.342 216.299 102.342C214.75 102.342 213.371 102.068 212.164 101.521C210.967 100.963 210.027 100.206 209.344 99.2485C208.66 98.2801 208.318 97.2376 208.318 96.1211H213.001C213.047 96.9984 213.371 97.6706 213.975 98.1377C214.579 98.6048 215.388 98.8384 216.402 98.8384C217.347 98.8384 218.06 98.6618 218.538 98.3086C219.028 97.944 219.273 97.4712 219.273 96.8901ZM235.782 102.342C233.07 102.342 230.86 101.51 229.151 99.8467C227.453 98.1833 226.604 95.9673 226.604 93.1987V92.7202C226.604 90.8631 226.963 89.2054 227.681 87.7471C228.399 86.2773 229.413 85.1494 230.723 84.3633C232.045 83.5658 233.549 83.167 235.235 83.167C237.764 83.167 239.752 83.9645 241.199 85.5596C242.658 87.1546 243.387 89.4162 243.387 92.3442V94.3608H231.612C231.771 95.5685 232.25 96.5369 233.047 97.2661C233.856 97.9953 234.876 98.3599 236.106 98.3599C238.009 98.3599 239.496 97.6706 240.567 96.292L242.994 99.0093C242.253 100.057 241.25 100.878 239.986 101.47C238.721 102.051 237.32 102.342 235.782 102.342ZM235.218 87.166C234.238 87.166 233.44 87.4964 232.825 88.1572C232.221 88.818 231.834 89.7637 231.663 90.9941H238.533V90.6011C238.51 89.5073 238.214 88.6642 237.645 88.0718C237.075 87.4679 236.266 87.166 235.218 87.166ZM48.5283 124.509L48.6821 126.577C49.9924 124.97 51.764 124.167 53.9971 124.167C56.3783 124.167 58.0132 125.107 58.9019 126.987C60.2007 125.107 62.0521 124.167 64.4561 124.167C66.4613 124.167 67.9538 124.754 68.9336 125.927C69.9134 127.089 70.4033 128.844 70.4033 131.191V143H65.4473V131.208C65.4473 130.16 65.2422 129.396 64.832 128.918C64.4219 128.428 63.6984 128.183 62.6616 128.183C61.1805 128.183 60.1551 128.889 59.5854 130.302L59.6025 143H54.6636V131.225C54.6636 130.154 54.4528 129.379 54.0312 128.901C53.6097 128.422 52.8919 128.183 51.8779 128.183C50.4766 128.183 49.4626 128.764 48.8359 129.926V143H43.897V124.509H48.5283ZM82.7251 143.342C80.0135 143.342 77.8032 142.51 76.0942 140.847C74.3966 139.183 73.5479 136.967 73.5479 134.199V133.72C73.5479 131.863 73.9067 130.205 74.6245 128.747C75.3423 127.277 76.3563 126.149 77.6665 125.363C78.9881 124.566 80.492 124.167 82.1782 124.167C84.7075 124.167 86.6956 124.965 88.1426 126.56C89.6009 128.155 90.3301 130.416 90.3301 133.344V135.361H78.5552C78.7147 136.569 79.1932 137.537 79.9907 138.266C80.7996 138.995 81.8193 139.36 83.0498 139.36C84.9525 139.36 86.4393 138.671 87.5103 137.292L89.937 140.009C89.1965 141.057 88.1938 141.878 86.9292 142.47C85.6646 143.051 84.2632 143.342 82.7251 143.342ZM82.1611 128.166C81.1813 128.166 80.3838 128.496 79.7686 129.157C79.1647 129.818 78.7773 130.764 78.6064 131.994H85.4766V131.601C85.4538 130.507 85.1576 129.664 84.5879 129.072C84.0182 128.468 83.2093 128.166 82.1611 128.166ZM88.1768 121.535V121.74H84.2461L81.6143 119.262L78.9824 121.74H75.1201V121.467L80.1787 116.75H83.0498L88.1768 121.535ZM103.165 137.89C103.165 137.286 102.863 136.813 102.259 136.472C101.666 136.118 100.709 135.805 99.3877 135.532C94.9899 134.609 92.791 132.74 92.791 129.926C92.791 128.286 93.4689 126.918 94.8247 125.825C96.1919 124.72 97.9749 124.167 100.174 124.167C102.521 124.167 104.395 124.72 105.796 125.825C107.209 126.93 107.916 128.365 107.916 130.131H102.977C102.977 129.425 102.749 128.844 102.293 128.388C101.837 127.921 101.125 127.688 100.157 127.688C99.325 127.688 98.6813 127.875 98.2256 128.251C97.7699 128.627 97.542 129.106 97.542 129.687C97.542 130.234 97.7983 130.678 98.311 131.02C98.8351 131.35 99.7124 131.641 100.943 131.892C102.173 132.131 103.21 132.404 104.053 132.712C106.662 133.669 107.967 135.327 107.967 137.685C107.967 139.371 107.243 140.738 105.796 141.787C104.349 142.823 102.481 143.342 100.191 143.342C98.6414 143.342 97.2629 143.068 96.0552 142.521C94.8589 141.963 93.9189 141.206 93.2354 140.249C92.5518 139.28 92.21 138.238 92.21 137.121H96.8926C96.9382 137.998 97.2629 138.671 97.8667 139.138C98.4705 139.605 99.2795 139.838 100.293 139.838C101.239 139.838 101.951 139.662 102.43 139.309C102.92 138.944 103.165 138.471 103.165 137.89Z" fill="#909090"/>
<defs>
<filter id="filter0_d" x="0" y="0" width="355" height="187" filterUnits="userSpaceOnUse" color-interpolation-filters="sRGB">
<feFlood flood-opacity="0" result="BackgroundImageFix"/>
<feColorMatrix in="SourceAlpha" type="matrix" values="0 0 0 0 0 0 0 0 0 0 0 0 0 0 0 0 0 0 127 0"/>
<feOffset/>
<feGaussianBlur stdDeviation="5"/>
<feColorMatrix type="matrix" values="0 0 0 0 0 0 0 0 0 0 0 0 0 0 0 0 0 0 0.25 0"/>
<feBlend mode="normal" in2="BackgroundImageFix" result="effect1_dropShadow"/>
<feBlend mode="normal" in="SourceGraphic" in2="effect1_dropShadow" result="shape"/>
</filter>
</defs>
</svg>
