<svg width="39" height="39" viewBox="0 0 39 39" fill="none" xmlns="http://www.w3.org/2000/svg">
<g clip-path="url(#clip0)">
<path d="M19.5 39C30.2696 39 39 30.2696 39 19.5C39 8.73045 30.2696 0 19.5 0C8.73045 0 0 8.73045 0 19.5C0 30.2696 8.73045 39 19.5 39Z" fill="#4584FF"/>
<path d="M39 19.5C39 19.1744 38.9916 18.8507 38.9759 18.5289L32.6508 12.2038C30.9626 10.3834 28.5507 9.24365 25.8723 9.24365C23.4021 9.24365 21.1582 10.2128 19.5 11.7914C17.8418 10.2127 15.5979 9.24365 13.1277 9.24365C8.02295 9.24365 3.88477 13.3818 3.88477 18.4866C3.88477 21.1649 5.0246 23.5765 6.84488 25.2647C6.8605 25.2814 6.87573 25.2986 6.89142 25.3152L6.40156 27.7295L17.5777 38.9057C18.2102 38.9676 18.8513 39 19.5 39C30.2696 39 39 30.2696 39 19.5Z" fill="#114ABA"/>
<path d="M25.8723 9.24365C30.9771 9.24365 35.1152 13.3818 35.1152 18.4866C35.1152 21.1885 33.9558 23.6193 32.1074 25.3094L32.5985 27.7296L29.5095 26.9859C28.3932 27.4643 27.1637 27.7296 25.8723 27.7296C20.7676 27.7296 16.6294 23.5914 16.6294 18.4867C16.6294 13.3819 20.7676 9.24365 25.8723 9.24365Z" fill="#00DFC1"/>
<path d="M13.1277 9.24365C8.02296 9.24365 3.88477 13.3818 3.88477 18.4866C3.88477 21.1885 5.04425 23.6193 6.89256 25.3094L6.40156 27.7296L9.49048 26.9859C10.6069 27.4643 11.8363 27.7296 13.1277 27.7296C18.2324 27.7296 22.3706 23.5914 22.3706 18.4867C22.3706 13.3819 18.2324 9.24365 13.1277 9.24365Z" fill="white"/>
<path d="M22.3706 18.4864C22.3706 15.8519 21.2684 13.4749 19.5 11.7913C17.7316 13.4749 16.6294 15.8519 16.6294 18.4864C16.6294 21.1209 17.7316 23.4979 19.5 25.1815C21.2684 23.4979 22.3706 21.1209 22.3706 18.4864Z" fill="#FFF5CB"/>
<path d="M22.3709 18.486C22.3709 21.1208 21.2687 23.4981 19.5 25.1815V11.7913C21.2687 13.4747 22.3709 15.852 22.3709 18.486Z" fill="#FFE670"/>
<path d="M8.78262 19.7278C9.46834 19.7278 10.0242 19.1719 10.0242 18.4862C10.0242 17.8005 9.46834 17.2446 8.78262 17.2446C8.0969 17.2446 7.54102 17.8005 7.54102 18.4862C7.54102 19.1719 8.0969 19.7278 8.78262 19.7278Z" fill="#FFB84D"/>
<path d="M13.5464 19.7278C14.2321 19.7278 14.788 19.1719 14.788 18.4862C14.788 17.8005 14.2321 17.2446 13.5464 17.2446C12.8607 17.2446 12.3048 17.8005 12.3048 18.4862C12.3048 19.1719 12.8607 19.7278 13.5464 19.7278Z" fill="#FFB84D"/>
<path d="M25.4536 19.7278C26.1394 19.7278 26.6952 19.1719 26.6952 18.4862C26.6952 17.8005 26.1394 17.2446 25.4536 17.2446C24.7679 17.2446 24.212 17.8005 24.212 18.4862C24.212 19.1719 24.7679 19.7278 25.4536 19.7278Z" fill="#008878"/>
<path d="M30.2174 19.7278C30.9032 19.7278 31.459 19.1719 31.459 18.4862C31.459 17.8005 30.9032 17.2446 30.2174 17.2446C29.5317 17.2446 28.9758 17.8005 28.9758 18.4862C28.9758 19.1719 29.5317 19.7278 30.2174 19.7278Z" fill="#008878"/>
<path d="M30 263C171.385 263 286 148.385 286 7C286 -134.385 171.385 -249 30 -249C-111.385 -249 -226 -134.385 -226 7C-226 148.385 -111.385 263 30 263Z" fill="#FF328E"/>
<path d="M30 263C171.385 263 286 148.385 286 7C286 0.220001 285.731 -6.49699 285.214 -13.144L170.167 -128.191C150.603 -149.582 122.466 -163 91.193 -163C68.435 -163 47.34 -155.889 29.998 -143.776C12.656 -155.889 -8.43803 -163 -31.196 -163C-90.29 -163 -138.196 -115.094 -138.196 -56C-138.196 -26.75 -126.457 -0.243988 -107.437 19.071L-60.359 66.135C-63.447 66.073 -66.594 66.593 -69.73 68.15C-72.21 69.38 -140.273 103.076 -194.582 129.956C-151.08 209.244 -66.821 263 30 263Z" fill="#C50A5B"/>
<path d="M91.1899 51C150.284 51 198.19 3.09447 198.19 -56C198.19 -115.094 150.284 -163 91.1899 -163C32.0955 -163 -15.8101 -115.094 -15.8101 -56C-15.8101 3.09447 32.0955 51 91.1899 51Z" fill="#FEC000"/>
<path d="M91.193 13.211C118.816 13.211 142.347 -5.75 151.286 -32.302H31.1C40.04 -5.75 63.57 13.211 91.193 13.211Z" fill="#AB3CCC"/>
<path d="M-31.2 51C27.8945 51 75.8 3.09447 75.8 -56C75.8 -115.094 27.8945 -163 -31.2 -163C-90.2945 -163 -138.2 -115.094 -138.2 -56C-138.2 3.09447 -90.2945 51 -31.2 51Z" fill="#FFE670"/>
<path d="M75.809 -56.0001C75.809 3.09993 27.899 50.9979 -31.202 50.9979V-162.997C27.899 -162.997 75.809 -115.1 75.809 -56.0001Z" fill="#FFD400"/>
<path d="M-31.196 13.211C-3.573 13.211 19.957 -5.75 28.897 -32.302H-91.289C-82.35 -5.75 -58.82 13.211 -31.196 13.211Z" fill="#AB3CCC"/>
<path d="M28.901 -32.3049C19.962 -5.74793 -3.57705 13.2111 -31.201 13.2111V-32.3049H28.901Z" fill="#681F7B"/>
</g>
<defs>
<clipPath id="clip0">
<rect width="39" height="39" fill="white"/>
</clipPath>
</defs>
</svg>
