<svg width="264" height="104" viewBox="0 0 264 104" fill="none" xmlns="http://www.w3.org/2000/svg">
<g clip-path="url(#clip0)">
<path d="M84.6575 55.6579C82.4454 49.9909 77.7471 45.5312 72.1398 43.4847C66.4814 41.3857 60.2567 41.8056 54.9584 44.6914C49.6598 47.5251 45.8017 52.5621 44.31 58.4388L43.8983 60.1704L43.4866 58.4388C41.9949 52.5621 38.1368 47.5251 32.8382 44.6914C27.5399 41.8056 21.3152 41.3859 15.6568 43.4847C10.0495 45.5312 5.35117 49.9911 3.13911 55.6579C0.875777 61.2723 1.08172 67.6735 3.65388 73.1829L17.3032 102.129C17.766 103.021 18.6407 103.599 19.6694 103.599H68.1276C69.1563 103.599 70.031 103.021 70.4938 102.129L84.143 73.1829C86.7149 67.6735 86.9208 61.2723 84.6575 55.6579Z" fill="white"/>
<path d="M84.1427 73.1829L70.4935 102.129C70.0307 103.021 69.156 103.599 68.1273 103.599H43.8982V60.1703L44.3099 58.4388C45.8016 52.5621 49.6597 47.5251 54.9583 44.6914C60.2566 41.8056 66.4813 41.3858 72.1397 43.4847C77.747 45.5311 82.4453 49.9911 84.6574 55.6579C86.9207 61.2722 86.7147 67.6735 84.1427 73.1829Z" fill="#97ECFF" fill-opacity="0.8"/>
<path d="M67.5614 75.8588L53.0036 87.0875L49.0425 103.598H38.754L34.7929 87.0875L20.2351 75.8588C17.8686 74.0224 17.3545 70.402 19.6691 67.9881C21.4698 66.0467 24.6591 66.0991 26.8195 67.7784L43.8982 79.6368L60.9768 67.7784C63.1372 66.0993 66.3265 65.9942 68.1272 67.9881C70.3909 70.3496 69.9792 74.0226 67.5614 75.8588Z" fill="#ACF0FF"/>
<path d="M0.624387 37.8275C-1.31983 32.3718 1.4269 26.3589 6.77322 24.3768C12.1931 22.3764 18.2017 25.2522 20.1317 30.6486C22.0682 36.0832 19.3504 42.1021 13.9828 44.0993C8.6665 46.0758 2.565 43.2633 0.624387 37.8275Z" fill="white"/>
<path d="M73.8164 44.0995C68.4776 42.115 65.7165 36.1167 67.665 30.6488C69.6046 25.2258 75.6363 22.3841 81.0234 24.377C86.3701 26.3592 89.1165 32.3721 87.1722 37.8277C85.2507 43.2101 79.1732 46.0952 73.8164 44.0995Z" fill="#97ECFF" fill-opacity="0.8"/>
<path d="M67.5612 75.8588L53.0035 87.0875L49.0423 103.598H43.8982V79.637L60.9768 67.7786C63.1373 66.0995 66.3266 65.9944 68.1273 67.9883C70.3908 70.3496 69.9791 74.0226 67.5612 75.8588Z" fill="white"/>
<path d="M51.6145 71.7663C51.6145 76.1211 48.1682 79.637 43.8982 79.637C39.6284 79.637 36.1819 76.1213 36.1819 71.7663C36.1819 67.4111 39.6282 63.8957 43.8982 63.8957C48.168 63.8957 51.6145 67.4113 51.6145 71.7663Z" fill="#7CE6FD"/>
<path d="M51.6145 71.7663C51.6145 76.1211 48.1682 79.6369 43.8982 79.6369V63.8958C48.168 63.8956 51.6145 67.4113 51.6145 71.7663Z" fill="#EEEEEE"/>
<path d="M56.9532 27.9467C58.7309 25.9334 59.7 23.4445 59.7 20.8513C59.7 17.6066 58.1815 14.6681 55.7495 12.5832C55.694 20.0173 49.0708 26.0637 40.9354 26.0637H35.4294C37.559 29.771 41.886 32.3186 46.861 32.3186H58.7124C59.1136 32.3186 59.4716 32.0645 59.6259 31.6736C59.7802 31.2826 59.6938 30.8331 59.4099 30.5399L56.9532 27.9467Z" fill="white"/>
<path d="M40.9354 1.04413C33.8555 1.04413 28.0965 6.18485 28.0965 12.5114C28.0965 15.1046 29.0655 17.587 30.8432 19.6068L28.3866 22.1999C28.1026 22.4996 28.0162 22.9492 28.1705 23.3336C28.3248 23.7246 28.6828 23.9787 29.0841 23.9787H40.9354C48.0153 23.9787 53.7744 18.8379 53.7744 12.5114C53.7744 6.18485 48.0153 1.04413 40.9354 1.04413Z" fill="#ACF0FF"/>
<path d="M46.861 9.38406H35.0097C34.4665 9.38406 34.0221 9.85318 34.0221 10.4265C34.0221 10.9999 34.4665 11.469 35.0097 11.469H46.861C47.4042 11.469 47.8487 10.9999 47.8487 10.4265C47.8487 9.85318 47.4042 9.38406 46.861 9.38406Z" fill="#4584FF"/>
<path d="M42.9106 13.554H35.0097C34.4665 13.554 34.0221 14.0231 34.0221 14.5965C34.0221 15.1699 34.4665 15.639 35.0097 15.639H42.9106C43.4538 15.639 43.8982 15.1699 43.8982 14.5965C43.8982 14.0231 43.4538 13.554 42.9106 13.554Z" fill="#4584FF"/>
<path d="M113.171 57.8963C112.515 57.8963 111.984 57.7003 111.577 57.3084C111.192 56.8935 111 56.3403 111 55.6487V35.4205C111 34.752 111.181 34.2333 111.543 33.8645C111.927 33.4956 112.447 33.3112 113.103 33.3112H121.448C124.004 33.3112 125.994 33.9682 127.419 35.2822C128.843 36.5731 129.556 38.3942 129.556 40.7455C129.556 43.0968 128.843 44.9295 127.419 46.2434C125.994 47.5574 124.004 48.2144 121.448 48.2144H115.376V55.6487C115.376 56.3403 115.173 56.8935 114.765 57.3084C114.381 57.7003 113.85 57.8963 113.171 57.8963ZM120.905 44.7911C123.913 44.7911 125.417 43.4541 125.417 40.7801C125.417 38.106 123.913 36.769 120.905 36.769H115.376V44.7911H120.905Z" fill="white"/>
<path d="M141.672 58C139.93 58 138.279 57.7695 136.719 57.3084C135.181 56.8243 133.926 56.1789 132.953 55.3721C132.433 54.9802 132.173 54.4269 132.173 53.7123C132.173 53.2282 132.309 52.8133 132.58 52.4675C132.874 52.0987 133.213 51.9142 133.598 51.9142C134.005 51.9142 134.469 52.0756 134.989 52.3983C135.961 53.113 136.979 53.6316 138.042 53.9544C139.105 54.2771 140.281 54.4385 141.57 54.4385C143.221 54.4385 144.487 54.1503 145.369 53.574C146.251 52.9746 146.692 52.1102 146.692 50.9806C146.692 50.1047 146.274 49.4361 145.437 48.9751C144.623 48.491 143.255 48.03 141.332 47.592C139.342 47.154 137.725 46.6468 136.481 46.0705C135.238 45.4942 134.299 44.7566 133.666 43.8575C133.033 42.9585 132.716 41.8174 132.716 40.4343C132.716 39.0051 133.112 37.7257 133.903 36.5961C134.695 35.4666 135.792 34.5906 137.194 33.9682C138.618 33.3227 140.213 33 141.977 33C145.211 33 147.846 33.876 149.881 35.6279C150.175 35.8815 150.378 36.1351 150.491 36.3887C150.627 36.6192 150.695 36.9189 150.695 37.2877C150.695 37.7718 150.548 38.1982 150.254 38.5671C149.983 38.9129 149.655 39.0858 149.27 39.0858C149.044 39.0858 148.829 39.0512 148.626 38.982C148.445 38.9129 148.196 38.7861 147.879 38.6017C146.952 37.9101 146.048 37.403 145.166 37.0802C144.306 36.7344 143.243 36.5616 141.977 36.5616C140.439 36.5616 139.218 36.8843 138.313 37.5297C137.431 38.1521 136.99 39.0281 136.99 40.1577C136.99 41.1028 137.386 41.829 138.178 42.3361C138.969 42.8432 140.315 43.3158 142.214 43.7538C144.227 44.2148 145.855 44.7335 147.099 45.3098C148.366 45.8631 149.327 46.5777 149.983 47.4537C150.661 48.3296 151 49.4246 151 50.7386C151 52.1678 150.605 53.4357 149.813 54.5422C149.044 55.6256 147.947 56.4786 146.523 57.101C145.12 57.7003 143.503 58 141.672 58Z" fill="white"/>
<path d="M157.198 57.8963C156.542 57.8963 156.011 57.6888 155.604 57.2739C155.219 56.8589 155.027 56.3172 155.027 55.6487V35.3513C155.027 34.6828 155.219 34.1526 155.604 33.7607C156.011 33.3458 156.542 33.1383 157.198 33.1383C157.876 33.1383 158.408 33.3458 158.792 33.7607C159.199 34.1526 159.403 34.6828 159.403 35.3513V55.6487C159.403 56.3172 159.199 56.8589 158.792 57.2739C158.408 57.6888 157.876 57.8963 157.198 57.8963Z" fill="white"/>
<path d="M175.948 57.8963C175.292 57.8963 174.761 57.7003 174.354 57.3084C173.969 56.8935 173.777 56.3403 173.777 55.6487V35.4205C173.777 34.752 173.958 34.2333 174.32 33.8645C174.704 33.4956 175.225 33.3112 175.88 33.3112H184.225C186.781 33.3112 188.771 33.9682 190.196 35.2822C191.621 36.5731 192.333 38.3942 192.333 40.7455C192.333 43.0968 191.621 44.9295 190.196 46.2434C188.771 47.5574 186.781 48.2144 184.225 48.2144H178.153V55.6487C178.153 56.3403 177.95 56.8935 177.543 57.3084C177.158 57.7003 176.627 57.8963 175.948 57.8963ZM183.683 44.7911C186.69 44.7911 188.194 43.4541 188.194 40.7801C188.194 38.106 186.69 36.769 183.683 36.769H178.153V44.7911H183.683Z" fill="white"/>
<path d="M215.297 55.0263C215.433 55.326 215.501 55.6256 215.501 55.9253C215.501 56.4555 215.286 56.905 214.856 57.2739C214.449 57.6427 213.974 57.8271 213.432 57.8271C213.07 57.8271 212.731 57.7349 212.414 57.5505C212.097 57.343 211.849 57.0318 211.668 56.6169L209.632 51.9834H197.691L195.656 56.6169C195.475 57.0318 195.226 57.343 194.91 57.5505C194.593 57.7349 194.243 57.8271 193.858 57.8271C193.338 57.8271 192.863 57.6427 192.433 57.2739C192.004 56.905 191.789 56.4555 191.789 55.9253C191.789 55.6256 191.857 55.326 191.992 55.0263L201.355 34.5214C201.559 34.0604 201.864 33.7146 202.271 33.4841C202.701 33.2305 203.153 33.1037 203.628 33.1037C204.103 33.1037 204.544 33.2305 204.951 33.4841C205.381 33.7146 205.697 34.0604 205.901 34.5214L215.297 55.0263ZM208.14 48.5256L203.662 38.2559L199.184 48.5256H208.14Z" fill="white"/>
<path d="M237.93 54.888C238.202 55.3029 238.337 55.7063 238.337 56.0982C238.337 56.6284 238.123 57.0664 237.693 57.4122C237.286 57.758 236.8 57.9308 236.234 57.9308C235.872 57.9308 235.522 57.8502 235.183 57.6888C234.866 57.5044 234.595 57.2393 234.368 56.8935L229.857 49.9087C229.404 49.171 228.918 48.6524 228.398 48.3527C227.9 48.053 227.245 47.9032 226.43 47.9032H223.106V55.6487C223.106 56.3403 222.914 56.8935 222.529 57.3084C222.145 57.7003 221.625 57.8963 220.969 57.8963C220.313 57.8963 219.782 57.7003 219.374 57.3084C218.99 56.8935 218.798 56.3403 218.798 55.6487V35.4205C218.798 34.752 218.979 34.2333 219.341 33.8645C219.725 33.4956 220.245 33.3112 220.901 33.3112H229.382C232.096 33.3112 234.154 33.9336 235.556 35.1784C236.98 36.4002 237.693 38.1752 237.693 40.5035C237.693 42.3937 237.161 43.9497 236.098 45.1715C235.058 46.3702 233.577 47.1425 231.655 47.4882C232.31 47.6496 232.887 47.9378 233.385 48.3527C233.882 48.7676 234.368 49.3439 234.843 50.0816L237.93 54.888ZM228.771 44.4799C230.422 44.4799 231.632 44.1687 232.401 43.5463C233.17 42.9009 233.554 41.9212 233.554 40.6072C233.554 39.2702 233.17 38.302 232.401 37.7026C231.632 37.0802 230.422 36.769 228.771 36.769H223.072V44.4799H228.771Z" fill="white"/>
<path d="M263.796 55.0263C263.932 55.326 264 55.6256 264 55.9253C264 56.4555 263.785 56.905 263.355 57.2739C262.948 57.6427 262.473 57.8271 261.931 57.8271C261.569 57.8271 261.23 57.7349 260.913 57.5505C260.596 57.343 260.348 57.0318 260.167 56.6169L258.131 51.9834H246.191L244.155 56.6169C243.974 57.0318 243.725 57.343 243.409 57.5505C243.092 57.7349 242.742 57.8271 242.357 57.8271C241.837 57.8271 241.362 57.6427 240.932 57.2739C240.503 56.905 240.288 56.4555 240.288 55.9253C240.288 55.6256 240.356 55.326 240.491 55.0263L249.854 34.5214C250.058 34.0604 250.363 33.7146 250.77 33.4841C251.2 33.2305 251.652 33.1037 252.127 33.1037C252.602 33.1037 253.043 33.2305 253.45 33.4841C253.88 33.7146 254.196 34.0604 254.4 34.5214L263.796 55.0263ZM256.639 48.5256L252.161 38.2559L247.683 48.5256H256.639Z" fill="white"/>
<path d="M132.002 77.9173C132.354 77.9173 132.624 78.0786 132.813 78.4012C133.03 78.7239 133.138 79.1675 133.138 79.7322C133.138 80.8077 132.881 81.6412 132.367 82.2327C131.204 83.6577 129.933 84.8273 128.553 85.7415C127.174 86.6556 125.592 87.1127 123.806 87.1127C118.289 87.1127 115.53 83.2544 115.53 75.5377C115.53 74.3547 115.57 73.1582 115.651 71.9483H114.069C113.258 71.9483 112.703 71.8004 112.406 71.5047C112.135 71.2089 112 70.7384 112 70.0931C112 68.5874 112.609 67.8345 113.826 67.8345H116.138C116.598 64.8769 117.301 62.1748 118.248 59.728C119.195 57.2813 120.331 55.332 121.656 53.88C123.008 52.4281 124.456 51.7022 125.997 51.7022C127.133 51.7022 128.026 52.1996 128.675 53.1944C129.324 54.1892 129.649 55.4395 129.649 56.9452C129.649 61.1127 127.891 64.7425 124.374 67.8345H128.918C129.351 67.8345 129.662 67.9286 129.852 68.1169C130.041 68.3051 130.136 68.6546 130.136 69.1655C130.136 71.0207 128.607 71.9483 125.551 71.9483H120.601C120.547 73.2927 120.52 74.3413 120.52 75.0941C120.52 77.8904 120.845 79.8532 121.494 80.9824C122.17 82.1117 123.225 82.6763 124.658 82.6763C125.821 82.6763 126.849 82.3268 127.742 81.6277C128.634 80.9286 129.689 79.88 130.906 78.4819C131.231 78.1055 131.596 77.9173 132.002 77.9173ZM124.902 55.5739C124.496 55.5739 124.036 56.0848 123.522 57.1065C123.036 58.1013 122.562 59.4995 122.102 61.3009C121.67 63.0755 121.304 65.0517 121.007 67.2296C122.603 65.8583 123.793 64.3257 124.577 62.6319C125.389 60.9111 125.794 59.3516 125.794 57.9535C125.794 56.3671 125.497 55.5739 124.902 55.5739Z" fill="#FD3C65"/>
<path d="M150.526 74.5295C150.878 74.5295 151.148 74.7042 151.338 75.0538C151.527 75.4033 151.622 75.8469 151.622 76.3847C151.622 77.6753 151.229 78.4416 150.445 78.6836C148.822 79.2482 147.037 79.5708 145.089 79.6515C144.576 81.91 143.561 83.7249 142.047 85.0962C140.532 86.4405 138.814 87.1127 136.894 87.1127C135.271 87.1127 133.878 86.7229 132.715 85.9431C131.579 85.1634 130.714 84.1282 130.118 82.8376C129.523 81.5471 129.226 80.1489 129.226 78.6432C129.226 76.5998 129.618 74.7849 130.402 73.1986C131.187 71.5853 132.269 70.3351 133.648 69.4478C135.028 68.5336 136.556 68.0765 138.233 68.0765C140.288 68.0765 141.938 68.789 143.183 70.2141C144.454 71.6122 145.198 73.3464 145.414 75.4168C146.685 75.3361 148.2 75.0672 149.958 74.6101C150.174 74.5564 150.364 74.5295 150.526 74.5295ZM137.219 82.8376C138.084 82.8376 138.828 82.4881 139.45 81.789C140.099 81.09 140.532 80.0817 140.748 78.7642C139.91 78.1996 139.261 77.4602 138.801 76.546C138.368 75.6319 138.152 74.6639 138.152 73.6422C138.152 73.212 138.192 72.7818 138.273 72.3516H138.071C136.989 72.3516 136.083 72.8759 135.352 73.9245C134.649 74.9462 134.297 76.3981 134.297 78.2802C134.297 79.759 134.581 80.8883 135.149 81.668C135.744 82.4478 136.434 82.8376 137.219 82.8376Z" fill="#FD3C65"/>
<path d="M171.184 77.9173C171.536 77.9173 171.806 78.0786 171.996 78.4012C172.212 78.7239 172.32 79.1675 172.32 79.7322C172.32 80.8077 172.063 81.6412 171.549 82.2327C170.44 83.577 169.223 84.7332 167.898 85.7011C166.572 86.6422 165.261 87.1127 163.962 87.1127C161.907 87.1127 160.338 85.9162 159.256 83.5233C158.12 84.9483 157.119 85.9028 156.254 86.3868C155.415 86.8707 154.428 87.1127 153.292 87.1127C151.642 87.1127 150.276 86.5078 149.194 85.2978C148.139 84.061 147.612 82.4612 147.612 80.4984C147.612 78.3475 148.072 76.3578 148.991 74.5295C149.911 72.6743 151.169 71.1686 152.765 70.0124C154.387 68.8294 156.2 68.1303 158.201 67.9152C158.715 62.6991 159.689 58.2492 161.122 54.5657C162.583 50.8552 164.49 49 166.843 49C168.006 49 168.966 49.5243 169.724 50.5729C170.508 51.6215 170.9 53.2079 170.9 55.332C170.9 58.3433 170.156 61.8656 168.669 65.8987C167.181 69.9317 165.193 74.0724 162.705 78.3206C162.813 79.88 163.043 80.9959 163.394 81.668C163.773 82.3402 164.246 82.6763 164.814 82.6763C165.545 82.6763 166.288 82.3537 167.046 81.7084C167.803 81.0631 168.817 79.9876 170.089 78.4819C170.413 78.1055 170.778 77.9173 171.184 77.9173ZM166.397 52.9524C165.883 52.9524 165.369 53.8666 164.855 55.6949C164.341 57.4964 163.895 59.8625 163.516 62.7932C163.164 65.7239 162.907 68.789 162.745 71.9886C165.775 65.4281 167.289 60.1582 167.289 56.1789C167.289 55.1572 167.195 54.364 167.005 53.7994C166.843 53.2347 166.64 52.9524 166.397 52.9524ZM154.712 83.0393C155.226 83.0393 155.74 82.8376 156.254 82.4343C156.768 82.0041 157.417 81.2244 158.201 80.0951C157.931 78.6432 157.795 77.0165 157.795 75.2151C157.795 74.5698 157.822 73.5212 157.877 72.0693C156.389 72.5264 155.145 73.5212 154.144 75.0538C153.17 76.5595 152.683 78.2399 152.683 80.0951C152.683 82.0579 153.36 83.0393 154.712 83.0393Z" fill="#FD3C65"/>
<path d="M175.876 87.1127C174.28 87.1127 172.914 86.7229 171.778 85.9431C170.669 85.1365 169.831 84.0879 169.263 82.7973C168.695 81.5067 168.411 80.122 168.411 78.6432C168.411 76.5998 168.79 74.7849 169.547 73.1986C170.331 71.5853 171.386 70.3351 172.712 69.4478C174.037 68.5336 175.525 68.0765 177.175 68.0765C178.77 68.0765 180.136 68.4798 181.272 69.2865C182.408 70.0662 183.26 71.1013 183.828 72.3919C184.396 73.6825 184.68 75.0672 184.68 76.546C184.68 78.5895 184.288 80.4178 183.504 82.031C182.719 83.6174 181.651 84.8676 180.299 85.7818C178.973 86.6691 177.499 87.1127 175.876 87.1127ZM176.323 82.757C177.242 82.757 178.013 82.2596 178.635 81.2647C179.284 80.2699 179.609 78.818 179.609 76.909C179.609 75.4302 179.338 74.3144 178.797 73.5615C178.256 72.8087 177.607 72.4323 176.85 72.4323C175.876 72.4323 175.065 72.9297 174.416 73.9245C173.794 74.8925 173.482 76.3444 173.482 78.2802C173.482 79.8128 173.753 80.9421 174.294 81.668C174.835 82.394 175.511 82.757 176.323 82.757Z" fill="#FD3C65"/>
<path d="M194.752 88C193.345 88 192.264 87.6774 191.506 87.0321C190.776 86.3868 190.411 85.6608 190.411 84.8542C190.411 84.1551 190.668 83.5502 191.182 83.0393C191.696 82.5284 192.453 82.273 193.454 82.273C193.805 82.273 194.211 82.3133 194.671 82.394C195.158 82.4478 195.523 82.4881 195.766 82.515C195.739 81.8159 195.577 81.1572 195.279 80.5388C195.009 79.9204 194.657 79.3289 194.225 78.7642C193.792 78.1727 193.386 77.6618 193.007 77.2316C192.169 78.818 191.33 80.1355 190.492 81.1841C189.68 82.2327 188.788 83.2275 187.814 84.1686C187.327 84.6525 186.813 84.8945 186.272 84.8945C185.84 84.8945 185.488 84.7466 185.218 84.4509C184.947 84.1282 184.812 83.7384 184.812 83.2813C184.812 82.7435 185.001 82.2461 185.38 81.789L185.907 81.1437C187.395 79.3154 188.517 77.8097 189.275 76.6267C189.762 75.847 190.248 74.9193 190.735 73.8438C191.249 72.7684 191.912 71.303 192.723 69.4478C193.237 68.2647 194.306 67.6732 195.929 67.6732C196.686 67.6732 197.213 67.7404 197.511 67.8749C197.808 68.0093 197.957 68.2244 197.957 68.5202C197.957 68.6815 197.903 68.9369 197.795 69.2865C197.687 69.636 197.538 69.9855 197.349 70.3351C196.862 71.303 196.618 72.1231 196.618 72.7952C196.618 73.1986 196.753 73.6422 197.024 74.1262C197.321 74.6101 197.768 75.2151 198.363 75.9411C199.228 77.0703 199.878 78.0383 200.31 78.8449C200.77 79.6246 201 80.485 201 81.4261C201 82.5553 200.73 83.6308 200.189 84.6525C199.675 85.6474 198.944 86.454 197.998 87.0724C197.051 87.6908 195.969 88 194.752 88Z" fill="#FD3C65"/>
</g>
<defs>
<clipPath id="clip0">
<rect width="264" height="104" fill="white"/>
</clipPath>
</defs>
</svg>
