<svg width="39" height="39" viewBox="0 0 39 39" fill="none" xmlns="http://www.w3.org/2000/svg">
<g clip-path="url(#clip0)">
<path d="M19.5005 38.9848C30.2658 38.9848 38.9928 30.2577 38.9928 19.4924C38.9928 8.72704 30.2658 0 19.5005 0C8.7351 0 0.00805664 8.72704 0.00805664 19.4924C0.00805664 30.2577 8.7351 38.9848 19.5005 38.9848Z" fill="#00AD95"/>
<path d="M38.9924 19.4923C38.9924 19.142 38.9848 18.7842 38.962 18.4415L31.0203 10.439C30.9137 10.34 30.7919 10.241 30.6549 10.1649C30.2741 9.93647 29.8706 9.88317 29.4823 10.005L26.3833 6.90601C26.1777 6.67758 25.9112 6.51007 25.5457 6.41109C25.0889 6.28926 24.6701 6.35017 24.3046 6.59383C24.0914 6.73088 23.901 6.93647 23.7259 7.19535L20.5965 4.05068C20.2538 3.72327 19.8351 3.54053 19.3706 3.54053C18.8604 3.54053 17.2005 3.77657 17.2005 6.78418V10.203L14.8173 7.78164C14.7031 7.66743 14.5965 7.57606 14.4899 7.50753C14.1244 7.26388 13.7056 7.18012 13.3021 7.27911C12.4036 7.49992 11.368 8.37555 11.5508 11.2613C11.6422 12.6624 11.9772 15.5634 12.2894 18.1522C12.4188 20.5278 12.4797 20.3451 12.5787 21.7309L10.5153 19.6674C9.66246 18.7842 8.75637 18.3197 7.94165 18.3426C7.37819 18.3578 6.8985 18.6091 6.54824 19.0735C5.46703 20.4822 5.64215 22.3248 7.20307 23.9771C8.42134 25.2639 10.9036 27.6928 12.4188 29.2613C12.83 29.6877 13.066 30.3121 13.066 30.9745V33.3349L18.7158 38.9847C18.9746 38.9923 19.2411 38.9999 19.5076 38.9999C30.2665 38.9847 38.9924 30.2588 38.9924 19.4923Z" fill="#006659"/>
<path d="M30.6548 10.1573C30.2665 9.92129 29.8477 9.8756 29.4518 10.005C28.8198 10.2182 28.2792 10.8731 27.8528 11.9543C27.2284 13.5152 26.2005 16.6979 25.7817 17.9924C25.7589 18.0609 25.7208 18.0761 25.7132 18.0761C25.6751 18.0685 25.6295 17.9847 25.6447 17.8705C25.6828 17.6193 25.7361 17.269 25.8046 16.8655C26.0482 15.3198 26.4594 12.7309 26.6955 10.8959C26.962 8.80961 27.2208 6.84514 25.5381 6.3959C25.0812 6.27408 24.6625 6.33499 24.297 6.57865C23.5812 7.05073 23.1168 8.14717 22.835 10.0507C22.6447 11.3223 21.929 15.8223 21.6701 17.2005C21.6548 17.2766 21.6092 17.3147 21.6015 17.3147C21.5863 17.3147 21.5254 17.2614 21.5254 17.1548V6.70809C21.5254 4.86545 20.6117 3.53296 19.3554 3.53296C18.8452 3.53296 17.1853 3.769 17.1853 6.77661V17.1091C17.1853 17.2233 17.1168 17.2918 17.0939 17.2918C17.0711 17.2918 17.0254 17.2462 17.0102 17.1624C16.8046 16.0127 16.0965 12.099 15.7995 10.1573C15.5482 8.52027 14.9467 7.81215 14.4823 7.50758C14.1168 7.26392 13.698 7.18017 13.2944 7.27915C12.396 7.49996 11.3604 8.3756 11.5432 11.2614C11.6878 13.5 12.4645 19.6142 12.7843 22.0888C12.1447 21.434 11.2462 20.505 10.7817 19.9644C9.85281 18.8984 8.84012 18.3198 7.94165 18.3502C7.37819 18.3655 6.8985 18.6167 6.54824 19.0812C5.46703 20.4898 5.64215 22.3325 7.20307 23.9847C8.42134 25.2715 10.9036 27.7005 12.4188 29.269C12.83 29.6954 13.066 30.3198 13.066 30.9822V33.3426H27.7919V28.2792C27.8224 27.9594 28.3477 22.9035 30.5939 15.868C31.6523 12.4949 31.9797 10.9492 30.6548 10.1573Z" fill="#FFDCA8"/>
<path d="M30.5863 15.8452C28.3478 22.8808 27.8148 27.9366 27.7843 28.2564V33.3199H19.9569V3.63965C20.8935 3.9899 21.5254 5.17011 21.5254 6.70818V17.1625C21.5254 17.2691 21.5864 17.3224 21.6016 17.3224C21.6092 17.3224 21.6549 17.2919 21.6701 17.2082C21.929 15.83 22.6523 11.3224 22.8351 10.0584C23.1168 8.16249 23.5813 7.05843 24.297 6.58635C24.6625 6.34269 25.0813 6.28178 25.5381 6.40361C27.2209 6.85285 26.9696 8.81731 26.6955 10.9036C26.4594 12.7386 26.0483 15.3275 25.8046 16.8732C25.7437 17.2767 25.6828 17.627 25.6447 17.8782C25.6295 17.9848 25.6828 18.0686 25.7133 18.0838C25.7209 18.0838 25.7589 18.0686 25.7818 18.0001C26.1929 16.7056 27.2285 13.5305 27.8528 11.962C28.2869 10.8808 28.8198 10.2259 29.4518 10.0127C29.8478 9.87569 30.2666 9.92899 30.6549 10.1574C31.9797 10.9493 31.6523 12.495 30.5863 15.8452Z" fill="#FFC56E"/>
<path d="M23.2081 19.6674C21.0761 19.0887 19.9568 21.3121 19.9568 21.3121C19.9568 21.3121 18.8375 19.0887 16.7056 19.6674C14.1167 20.3679 13.5381 26.0862 19.9568 28.3628C26.3756 26.0862 25.7969 20.3603 23.2081 19.6674Z" fill="#FF328E"/>
<path d="M19.9569 21.3121C19.9569 21.3121 21.0762 19.0887 23.2082 19.6674C25.797 20.3679 26.3757 26.0862 19.9569 28.3628V21.3121Z" fill="#C50A5B"/>
</g>
<defs>
<clipPath id="clip0">
<rect width="39" height="39" fill="white"/>
</clipPath>
</defs>
</svg>
